M48
;DRILL file {KiCad (5.0.0)} date 05/29/19 22:19:01
;FORMAT={-:-/ absolute / inch / decimal}
FMAT,2
INCH,TZ
T1C0.0472
T2C0.0591
T3C0.0669
T4C0.0689
T5C0.0866
T6C0.1570
%
G90
G05
M72
T1
X9.7962Y-5.7323
X6.1695Y-2.5091
X8.4195Y-5.6966
X9.2679Y-5.1241
X5.4195Y-3.8216
X8.4195Y-4.9466
X6.9195Y-4.5716
X8.4195Y-3.4466
X7.6695Y-3.4466
X5.4195Y-5.3216
X6.9195Y-2.3216
X7.6695Y-2.6966
X9.1695Y-3.4466
X5.4195Y-4.5716
X7.6695Y-4.1966
X5.4195Y-3.0716
X4.6695Y-3.8216
X4.6695Y-5.3216
X7.6695Y-4.9466
X8.4195Y-4.1966
X6.9195Y-3.8216
X8.4195Y-2.6966
X6.1695Y-4.0091
X4.6695Y-4.5716
X6.9195Y-3.0716
X6.1695Y-3.2591
X9.1695Y-4.1966
X4.6695Y-3.0716
X9.1695Y-2.6966
X6.1695Y-4.7591
T2
X5.698Y-2.1185
X5.698Y-2.3941
X5.8791Y-2.1185
X5.8791Y-2.3941
T3
X9.9339Y-5.64
X10.1504Y-6.0151
X6.1585Y-2.3438
X6.5915Y-2.3438
X8.4085Y-5.5312
X8.8415Y-5.5312
X9.377Y-4.9994
X9.6832Y-5.3056
X5.4085Y-3.6562
X5.8415Y-3.6562
X8.4085Y-4.7812
X8.8415Y-4.7812
X6.9085Y-4.4062
X7.3415Y-4.4062
X8.4085Y-3.2812
X8.8415Y-3.2812
X7.6585Y-3.2812
X8.0915Y-3.2812
X5.4085Y-5.1562
X5.8415Y-5.1562
X6.9085Y-2.1562
X7.3415Y-2.1562
X7.6585Y-2.5312
X8.0915Y-2.5312
X9.1585Y-3.2812
X9.5915Y-3.2812
X5.4085Y-4.4062
X5.8415Y-4.4062
X7.6585Y-4.0312
X8.0915Y-4.0312
X5.4085Y-2.9062
X5.8415Y-2.9062
X4.6585Y-3.6562
X5.0915Y-3.6562
X4.6585Y-5.1562
X5.0915Y-5.1562
X7.6585Y-4.7812
X8.0915Y-4.7812
X8.4085Y-4.0312
X8.8415Y-4.0312
X6.9085Y-3.6562
X7.3415Y-3.6562
X8.4085Y-2.5312
X8.8415Y-2.5312
X6.1585Y-3.8438
X6.5915Y-3.8438
X4.6585Y-4.4062
X5.0915Y-4.4062
X6.9085Y-2.9062
X7.3415Y-2.9062
X6.1585Y-3.0938
X6.5915Y-3.0938
X9.1585Y-4.0312
X9.5915Y-4.0312
X4.6585Y-2.9062
X5.0915Y-2.9062
X9.1585Y-2.5312
X9.5915Y-2.5312
X6.1585Y-4.5938
X6.5915Y-4.5938
T4
X6.925Y-3.6562
X7.325Y-3.6562
X8.425Y-2.5312
X8.825Y-2.5312
X6.175Y-3.8438
X6.575Y-3.8438
X4.675Y-4.4062
X5.075Y-4.4062
X6.925Y-2.9062
X7.325Y-2.9062
X6.175Y-3.0938
X6.575Y-3.0938
X9.175Y-4.0312
X9.575Y-4.0312
X4.675Y-2.9062
X5.075Y-2.9062
X9.175Y-2.5312
X9.575Y-2.5312
X6.175Y-4.5938
X6.575Y-4.5938
X9.9421Y-5.6544
X10.1421Y-6.0008
X6.175Y-2.3438
X6.575Y-2.3438
X8.425Y-5.5312
X8.825Y-5.5312
X9.3887Y-5.0111
X9.6715Y-5.2939
X5.425Y-3.6562
X5.825Y-3.6562
X8.425Y-4.7812
X8.825Y-4.7812
X6.925Y-4.4062
X7.325Y-4.4062
X8.425Y-3.2812
X8.825Y-3.2812
X7.675Y-3.2812
X8.075Y-3.2812
X5.425Y-5.1562
X5.825Y-5.1562
X6.925Y-2.1562
X7.325Y-2.1562
X7.675Y-2.5312
X8.075Y-2.5312
X9.175Y-3.2812
X9.575Y-3.2812
X5.425Y-4.4062
X5.825Y-4.4062
X7.675Y-4.0312
X8.075Y-4.0312
X5.425Y-2.9062
X5.825Y-2.9062
X4.675Y-3.6562
X5.075Y-3.6562
X4.675Y-5.1562
X5.075Y-5.1562
X7.675Y-4.7812
X8.075Y-4.7812
X8.425Y-4.0312
X8.825Y-4.0312
T5
X7.5938Y-2.9062
X9.Y-3.2812
X9.Y-4.7812
X6.Y-3.0938
X6.Y-4.4062
X7.5Y-4.0312
T6
X4.875Y-2.9062
X9.375Y-2.5312
X6.375Y-4.5938
X10.0421Y-5.8276
X6.375Y-2.3438
X8.625Y-5.5312
X9.5301Y-5.1525
X5.625Y-3.6562
X8.625Y-4.7812
X7.125Y-4.4062
X8.625Y-3.2812
X7.875Y-3.2812
X5.625Y-5.1562
X7.125Y-2.1562
X7.875Y-2.5312
X9.375Y-3.2812
X5.625Y-4.4062
X7.875Y-4.0312
X5.625Y-2.9062
X4.875Y-3.6562
X4.875Y-5.1562
X7.875Y-4.7812
X8.625Y-4.0312
X7.125Y-3.6562
X8.625Y-2.5312
X6.375Y-3.8438
X4.875Y-4.4062
X7.125Y-2.9062
X6.375Y-3.0938
X9.375Y-4.0312
T0
M30
