G04 #@! TF.GenerationSoftware,KiCad,Pcbnew,(5.0.0)*
G04 #@! TF.CreationDate,2019-05-29T22:18:10-05:00*
G04 #@! TF.ProjectId,PCB,5043422E6B696361645F706362000000,rev?*
G04 #@! TF.SameCoordinates,Original*
G04 #@! TF.FileFunction,Legend,Top*
G04 #@! TF.FilePolarity,Positive*
%FSLAX46Y46*%
G04 Gerber Fmt 4.6, Leading zero omitted, Abs format (unit mm)*
G04 Created by KiCad (PCBNEW (5.0.0)) date 05/29/19 22:18:10*
%MOMM*%
%LPD*%
G01*
G04 APERTURE LIST*
%ADD10C,0.300000*%
%ADD11C,0.120000*%
%ADD12C,0.381000*%
%ADD13C,0.150000*%
G04 APERTURE END LIST*
D10*
X193515714Y-55724285D02*
X193515714Y-56438571D01*
X193015714Y-54938571D02*
X193515714Y-55724285D01*
X194015714Y-54938571D01*
X194730000Y-56438571D02*
X194587142Y-56367142D01*
X194515714Y-56295714D01*
X194444285Y-56152857D01*
X194444285Y-55724285D01*
X194515714Y-55581428D01*
X194587142Y-55510000D01*
X194730000Y-55438571D01*
X194944285Y-55438571D01*
X195087142Y-55510000D01*
X195158571Y-55581428D01*
X195230000Y-55724285D01*
X195230000Y-56152857D01*
X195158571Y-56295714D01*
X195087142Y-56367142D01*
X194944285Y-56438571D01*
X194730000Y-56438571D01*
X196515714Y-55438571D02*
X196515714Y-56438571D01*
X195872857Y-55438571D02*
X195872857Y-56224285D01*
X195944285Y-56367142D01*
X196087142Y-56438571D01*
X196301428Y-56438571D01*
X196444285Y-56367142D01*
X196515714Y-56295714D01*
X198301428Y-56367142D02*
X198444285Y-56438571D01*
X198730000Y-56438571D01*
X198872857Y-56367142D01*
X198944285Y-56224285D01*
X198944285Y-56152857D01*
X198872857Y-56010000D01*
X198730000Y-55938571D01*
X198515714Y-55938571D01*
X198372857Y-55867142D01*
X198301428Y-55724285D01*
X198301428Y-55652857D01*
X198372857Y-55510000D01*
X198515714Y-55438571D01*
X198730000Y-55438571D01*
X198872857Y-55510000D01*
X199587142Y-56438571D02*
X199587142Y-54938571D01*
X200230000Y-56438571D02*
X200230000Y-55652857D01*
X200158571Y-55510000D01*
X200015714Y-55438571D01*
X199801428Y-55438571D01*
X199658571Y-55510000D01*
X199587142Y-55581428D01*
X201158571Y-56438571D02*
X201015714Y-56367142D01*
X200944285Y-56295714D01*
X200872857Y-56152857D01*
X200872857Y-55724285D01*
X200944285Y-55581428D01*
X201015714Y-55510000D01*
X201158571Y-55438571D01*
X201372857Y-55438571D01*
X201515714Y-55510000D01*
X201587142Y-55581428D01*
X201658571Y-55724285D01*
X201658571Y-56152857D01*
X201587142Y-56295714D01*
X201515714Y-56367142D01*
X201372857Y-56438571D01*
X201158571Y-56438571D01*
X202944285Y-55438571D02*
X202944285Y-56438571D01*
X202301428Y-55438571D02*
X202301428Y-56224285D01*
X202372857Y-56367142D01*
X202515714Y-56438571D01*
X202730000Y-56438571D01*
X202872857Y-56367142D01*
X202944285Y-56295714D01*
X203872857Y-56438571D02*
X203730000Y-56367142D01*
X203658571Y-56224285D01*
X203658571Y-54938571D01*
X205087142Y-56438571D02*
X205087142Y-54938571D01*
X205087142Y-56367142D02*
X204944285Y-56438571D01*
X204658571Y-56438571D01*
X204515714Y-56367142D01*
X204444285Y-56295714D01*
X204372857Y-56152857D01*
X204372857Y-55724285D01*
X204444285Y-55581428D01*
X204515714Y-55510000D01*
X204658571Y-55438571D01*
X204944285Y-55438571D01*
X205087142Y-55510000D01*
X206872857Y-56367142D02*
X207015714Y-56438571D01*
X207301428Y-56438571D01*
X207444285Y-56367142D01*
X207515714Y-56224285D01*
X207515714Y-56152857D01*
X207444285Y-56010000D01*
X207301428Y-55938571D01*
X207087142Y-55938571D01*
X206944285Y-55867142D01*
X206872857Y-55724285D01*
X206872857Y-55652857D01*
X206944285Y-55510000D01*
X207087142Y-55438571D01*
X207301428Y-55438571D01*
X207444285Y-55510000D01*
X208730000Y-56367142D02*
X208587142Y-56438571D01*
X208301428Y-56438571D01*
X208158571Y-56367142D01*
X208087142Y-56224285D01*
X208087142Y-55652857D01*
X208158571Y-55510000D01*
X208301428Y-55438571D01*
X208587142Y-55438571D01*
X208730000Y-55510000D01*
X208801428Y-55652857D01*
X208801428Y-55795714D01*
X208087142Y-55938571D01*
X210015714Y-56367142D02*
X209872857Y-56438571D01*
X209587142Y-56438571D01*
X209444285Y-56367142D01*
X209372857Y-56224285D01*
X209372857Y-55652857D01*
X209444285Y-55510000D01*
X209587142Y-55438571D01*
X209872857Y-55438571D01*
X210015714Y-55510000D01*
X210087142Y-55652857D01*
X210087142Y-55795714D01*
X209372857Y-55938571D01*
X211658571Y-55438571D02*
X212230000Y-55438571D01*
X211872857Y-56438571D02*
X211872857Y-55152857D01*
X211944285Y-55010000D01*
X212087142Y-54938571D01*
X212230000Y-54938571D01*
X212944285Y-56438571D02*
X212801428Y-56367142D01*
X212730000Y-56224285D01*
X212730000Y-54938571D01*
X214158571Y-56438571D02*
X214158571Y-55652857D01*
X214087142Y-55510000D01*
X213944285Y-55438571D01*
X213658571Y-55438571D01*
X213515714Y-55510000D01*
X214158571Y-56367142D02*
X214015714Y-56438571D01*
X213658571Y-56438571D01*
X213515714Y-56367142D01*
X213444285Y-56224285D01*
X213444285Y-56081428D01*
X213515714Y-55938571D01*
X213658571Y-55867142D01*
X214015714Y-55867142D01*
X214158571Y-55795714D01*
X214658571Y-55438571D02*
X215230000Y-55438571D01*
X214872857Y-54938571D02*
X214872857Y-56224285D01*
X214944285Y-56367142D01*
X215087142Y-56438571D01*
X215230000Y-56438571D01*
X215730000Y-56295714D02*
X215801428Y-56367142D01*
X215730000Y-56438571D01*
X215658571Y-56367142D01*
X215730000Y-56295714D01*
X215730000Y-56438571D01*
X215730000Y-55867142D02*
X215658571Y-55010000D01*
X215730000Y-54938571D01*
X215801428Y-55010000D01*
X215730000Y-55867142D01*
X215730000Y-54938571D01*
D11*
G04 #@! TO.C,D1*
X127373750Y-84463750D02*
X127373750Y-82223750D01*
X127373750Y-82223750D02*
X123133750Y-82223750D01*
X123133750Y-82223750D02*
X123133750Y-84463750D01*
X123133750Y-84463750D02*
X127373750Y-84463750D01*
X128023750Y-83343750D02*
X127373750Y-83343750D01*
X122483750Y-83343750D02*
X123133750Y-83343750D01*
X126653750Y-84463750D02*
X126653750Y-82223750D01*
X126533750Y-84463750D02*
X126533750Y-82223750D01*
X126773750Y-84463750D02*
X126773750Y-82223750D01*
G04 #@! TO.C,D2*
X145347500Y-84463750D02*
X145347500Y-82223750D01*
X145107500Y-84463750D02*
X145107500Y-82223750D01*
X145227500Y-84463750D02*
X145227500Y-82223750D01*
X141057500Y-83343750D02*
X141707500Y-83343750D01*
X146597500Y-83343750D02*
X145947500Y-83343750D01*
X141707500Y-84463750D02*
X145947500Y-84463750D01*
X141707500Y-82223750D02*
X141707500Y-84463750D01*
X145947500Y-82223750D02*
X141707500Y-82223750D01*
X145947500Y-84463750D02*
X145947500Y-82223750D01*
G04 #@! TO.C,D3*
X164308389Y-70176250D02*
X164308389Y-67936250D01*
X164308389Y-67936250D02*
X160068389Y-67936250D01*
X160068389Y-67936250D02*
X160068389Y-70176250D01*
X160068389Y-70176250D02*
X164308389Y-70176250D01*
X164958389Y-69056250D02*
X164308389Y-69056250D01*
X159418389Y-69056250D02*
X160068389Y-69056250D01*
X163588389Y-70176250D02*
X163588389Y-67936250D01*
X163468389Y-70176250D02*
X163468389Y-67936250D01*
X163708389Y-70176250D02*
X163708389Y-67936250D01*
G04 #@! TO.C,D4*
X183447500Y-65413750D02*
X183447500Y-63173750D01*
X183207500Y-65413750D02*
X183207500Y-63173750D01*
X183327500Y-65413750D02*
X183327500Y-63173750D01*
X179157500Y-64293750D02*
X179807500Y-64293750D01*
X184697500Y-64293750D02*
X184047500Y-64293750D01*
X179807500Y-65413750D02*
X184047500Y-65413750D01*
X179807500Y-63173750D02*
X179807500Y-65413750D01*
X184047500Y-63173750D02*
X179807500Y-63173750D01*
X184047500Y-65413750D02*
X184047500Y-63173750D01*
G04 #@! TO.C,D5*
X203097500Y-74938750D02*
X203097500Y-72698750D01*
X203097500Y-72698750D02*
X198857500Y-72698750D01*
X198857500Y-72698750D02*
X198857500Y-74938750D01*
X198857500Y-74938750D02*
X203097500Y-74938750D01*
X203747500Y-73818750D02*
X203097500Y-73818750D01*
X198207500Y-73818750D02*
X198857500Y-73818750D01*
X202377500Y-74938750D02*
X202377500Y-72698750D01*
X202257500Y-74938750D02*
X202257500Y-72698750D01*
X202497500Y-74938750D02*
X202497500Y-72698750D01*
G04 #@! TO.C,D6*
X221547500Y-74938750D02*
X221547500Y-72698750D01*
X221307500Y-74938750D02*
X221307500Y-72698750D01*
X221427500Y-74938750D02*
X221427500Y-72698750D01*
X217257500Y-73818750D02*
X217907500Y-73818750D01*
X222797500Y-73818750D02*
X222147500Y-73818750D01*
X217907500Y-74938750D02*
X222147500Y-74938750D01*
X217907500Y-72698750D02*
X217907500Y-74938750D01*
X222147500Y-72698750D02*
X217907500Y-72698750D01*
X222147500Y-74938750D02*
X222147500Y-72698750D01*
G04 #@! TO.C,D7*
X241197500Y-74938750D02*
X241197500Y-72698750D01*
X241197500Y-72698750D02*
X236957500Y-72698750D01*
X236957500Y-72698750D02*
X236957500Y-74938750D01*
X236957500Y-74938750D02*
X241197500Y-74938750D01*
X241847500Y-73818750D02*
X241197500Y-73818750D01*
X236307500Y-73818750D02*
X236957500Y-73818750D01*
X240477500Y-74938750D02*
X240477500Y-72698750D01*
X240357500Y-74938750D02*
X240357500Y-72698750D01*
X240597500Y-74938750D02*
X240597500Y-72698750D01*
G04 #@! TO.C,D8*
X126297500Y-103513750D02*
X126297500Y-101273750D01*
X126057500Y-103513750D02*
X126057500Y-101273750D01*
X126177500Y-103513750D02*
X126177500Y-101273750D01*
X122007500Y-102393750D02*
X122657500Y-102393750D01*
X127547500Y-102393750D02*
X126897500Y-102393750D01*
X122657500Y-103513750D02*
X126897500Y-103513750D01*
X122657500Y-101273750D02*
X122657500Y-103513750D01*
X126897500Y-101273750D02*
X122657500Y-101273750D01*
X126897500Y-103513750D02*
X126897500Y-101273750D01*
G04 #@! TO.C,D9*
X145947500Y-103513750D02*
X145947500Y-101273750D01*
X145947500Y-101273750D02*
X141707500Y-101273750D01*
X141707500Y-101273750D02*
X141707500Y-103513750D01*
X141707500Y-103513750D02*
X145947500Y-103513750D01*
X146597500Y-102393750D02*
X145947500Y-102393750D01*
X141057500Y-102393750D02*
X141707500Y-102393750D01*
X145227500Y-103513750D02*
X145227500Y-101273750D01*
X145107500Y-103513750D02*
X145107500Y-101273750D01*
X145347500Y-103513750D02*
X145347500Y-101273750D01*
G04 #@! TO.C,D10*
X164397500Y-89226250D02*
X164397500Y-86986250D01*
X164157500Y-89226250D02*
X164157500Y-86986250D01*
X164277500Y-89226250D02*
X164277500Y-86986250D01*
X160107500Y-88106250D02*
X160757500Y-88106250D01*
X165647500Y-88106250D02*
X164997500Y-88106250D01*
X160757500Y-89226250D02*
X164997500Y-89226250D01*
X160757500Y-86986250D02*
X160757500Y-89226250D01*
X164997500Y-86986250D02*
X160757500Y-86986250D01*
X164997500Y-89226250D02*
X164997500Y-86986250D01*
G04 #@! TO.C,D11*
X184047500Y-84463750D02*
X184047500Y-82223750D01*
X184047500Y-82223750D02*
X179807500Y-82223750D01*
X179807500Y-82223750D02*
X179807500Y-84463750D01*
X179807500Y-84463750D02*
X184047500Y-84463750D01*
X184697500Y-83343750D02*
X184047500Y-83343750D01*
X179157500Y-83343750D02*
X179807500Y-83343750D01*
X183327500Y-84463750D02*
X183327500Y-82223750D01*
X183207500Y-84463750D02*
X183207500Y-82223750D01*
X183447500Y-84463750D02*
X183447500Y-82223750D01*
G04 #@! TO.C,D12*
X202497500Y-93988750D02*
X202497500Y-91748750D01*
X202257500Y-93988750D02*
X202257500Y-91748750D01*
X202377500Y-93988750D02*
X202377500Y-91748750D01*
X198207500Y-92868750D02*
X198857500Y-92868750D01*
X203747500Y-92868750D02*
X203097500Y-92868750D01*
X198857500Y-93988750D02*
X203097500Y-93988750D01*
X198857500Y-91748750D02*
X198857500Y-93988750D01*
X203097500Y-91748750D02*
X198857500Y-91748750D01*
X203097500Y-93988750D02*
X203097500Y-91748750D01*
G04 #@! TO.C,D13*
X222147500Y-93988750D02*
X222147500Y-91748750D01*
X222147500Y-91748750D02*
X217907500Y-91748750D01*
X217907500Y-91748750D02*
X217907500Y-93988750D01*
X217907500Y-93988750D02*
X222147500Y-93988750D01*
X222797500Y-92868750D02*
X222147500Y-92868750D01*
X217257500Y-92868750D02*
X217907500Y-92868750D01*
X221427500Y-93988750D02*
X221427500Y-91748750D01*
X221307500Y-93988750D02*
X221307500Y-91748750D01*
X221547500Y-93988750D02*
X221547500Y-91748750D01*
G04 #@! TO.C,D14*
X240597500Y-93988750D02*
X240597500Y-91748750D01*
X240357500Y-93988750D02*
X240357500Y-91748750D01*
X240477500Y-93988750D02*
X240477500Y-91748750D01*
X236307500Y-92868750D02*
X236957500Y-92868750D01*
X241847500Y-92868750D02*
X241197500Y-92868750D01*
X236957500Y-93988750D02*
X241197500Y-93988750D01*
X236957500Y-91748750D02*
X236957500Y-93988750D01*
X241197500Y-91748750D02*
X236957500Y-91748750D01*
X241197500Y-93988750D02*
X241197500Y-91748750D01*
G04 #@! TO.C,D15*
X126897500Y-122563750D02*
X126897500Y-120323750D01*
X126897500Y-120323750D02*
X122657500Y-120323750D01*
X122657500Y-120323750D02*
X122657500Y-122563750D01*
X122657500Y-122563750D02*
X126897500Y-122563750D01*
X127547500Y-121443750D02*
X126897500Y-121443750D01*
X122007500Y-121443750D02*
X122657500Y-121443750D01*
X126177500Y-122563750D02*
X126177500Y-120323750D01*
X126057500Y-122563750D02*
X126057500Y-120323750D01*
X126297500Y-122563750D02*
X126297500Y-120323750D01*
G04 #@! TO.C,D16*
X145347500Y-122563750D02*
X145347500Y-120323750D01*
X145107500Y-122563750D02*
X145107500Y-120323750D01*
X145227500Y-122563750D02*
X145227500Y-120323750D01*
X141057500Y-121443750D02*
X141707500Y-121443750D01*
X146597500Y-121443750D02*
X145947500Y-121443750D01*
X141707500Y-122563750D02*
X145947500Y-122563750D01*
X141707500Y-120323750D02*
X141707500Y-122563750D01*
X145947500Y-120323750D02*
X141707500Y-120323750D01*
X145947500Y-122563750D02*
X145947500Y-120323750D01*
G04 #@! TO.C,D17*
X164997500Y-108276250D02*
X164997500Y-106036250D01*
X164997500Y-106036250D02*
X160757500Y-106036250D01*
X160757500Y-106036250D02*
X160757500Y-108276250D01*
X160757500Y-108276250D02*
X164997500Y-108276250D01*
X165647500Y-107156250D02*
X164997500Y-107156250D01*
X160107500Y-107156250D02*
X160757500Y-107156250D01*
X164277500Y-108276250D02*
X164277500Y-106036250D01*
X164157500Y-108276250D02*
X164157500Y-106036250D01*
X164397500Y-108276250D02*
X164397500Y-106036250D01*
G04 #@! TO.C,D18*
X183447500Y-103513750D02*
X183447500Y-101273750D01*
X183207500Y-103513750D02*
X183207500Y-101273750D01*
X183327500Y-103513750D02*
X183327500Y-101273750D01*
X179157500Y-102393750D02*
X179807500Y-102393750D01*
X184697500Y-102393750D02*
X184047500Y-102393750D01*
X179807500Y-103513750D02*
X184047500Y-103513750D01*
X179807500Y-101273750D02*
X179807500Y-103513750D01*
X184047500Y-101273750D02*
X179807500Y-101273750D01*
X184047500Y-103513750D02*
X184047500Y-101273750D01*
G04 #@! TO.C,D19*
X203573750Y-113038750D02*
X203573750Y-110798750D01*
X203573750Y-110798750D02*
X199333750Y-110798750D01*
X199333750Y-110798750D02*
X199333750Y-113038750D01*
X199333750Y-113038750D02*
X203573750Y-113038750D01*
X204223750Y-111918750D02*
X203573750Y-111918750D01*
X198683750Y-111918750D02*
X199333750Y-111918750D01*
X202853750Y-113038750D02*
X202853750Y-110798750D01*
X202733750Y-113038750D02*
X202733750Y-110798750D01*
X202973750Y-113038750D02*
X202973750Y-110798750D01*
G04 #@! TO.C,D20*
X221547500Y-113038750D02*
X221547500Y-110798750D01*
X221307500Y-113038750D02*
X221307500Y-110798750D01*
X221427500Y-113038750D02*
X221427500Y-110798750D01*
X217257500Y-111918750D02*
X217907500Y-111918750D01*
X222797500Y-111918750D02*
X222147500Y-111918750D01*
X217907500Y-113038750D02*
X222147500Y-113038750D01*
X217907500Y-110798750D02*
X217907500Y-113038750D01*
X222147500Y-110798750D02*
X217907500Y-110798750D01*
X222147500Y-113038750D02*
X222147500Y-110798750D01*
G04 #@! TO.C,D21*
X241197500Y-113038750D02*
X241197500Y-110798750D01*
X241197500Y-110798750D02*
X236957500Y-110798750D01*
X236957500Y-110798750D02*
X236957500Y-113038750D01*
X236957500Y-113038750D02*
X241197500Y-113038750D01*
X241847500Y-111918750D02*
X241197500Y-111918750D01*
X236307500Y-111918750D02*
X236957500Y-111918750D01*
X240477500Y-113038750D02*
X240477500Y-110798750D01*
X240357500Y-113038750D02*
X240357500Y-110798750D01*
X240597500Y-113038750D02*
X240597500Y-110798750D01*
G04 #@! TO.C,D22*
X131930000Y-133140000D02*
X134170000Y-133140000D01*
X131930000Y-132900000D02*
X134170000Y-132900000D01*
X131930000Y-133020000D02*
X134170000Y-133020000D01*
X133050000Y-128850000D02*
X133050000Y-129500000D01*
X133050000Y-134390000D02*
X133050000Y-133740000D01*
X131930000Y-129500000D02*
X131930000Y-133740000D01*
X134170000Y-129500000D02*
X131930000Y-129500000D01*
X134170000Y-133740000D02*
X134170000Y-129500000D01*
X131930000Y-133740000D02*
X134170000Y-133740000D01*
G04 #@! TO.C,D23*
X151300000Y-133860000D02*
X153540000Y-133860000D01*
X153540000Y-133860000D02*
X153540000Y-129620000D01*
X153540000Y-129620000D02*
X151300000Y-129620000D01*
X151300000Y-129620000D02*
X151300000Y-133860000D01*
X152420000Y-134510000D02*
X152420000Y-133860000D01*
X152420000Y-128970000D02*
X152420000Y-129620000D01*
X151300000Y-133140000D02*
X153540000Y-133140000D01*
X151300000Y-133020000D02*
X153540000Y-133020000D01*
X151300000Y-133260000D02*
X153540000Y-133260000D01*
G04 #@! TO.C,D24*
X164997500Y-127326250D02*
X164997500Y-125086250D01*
X164997500Y-125086250D02*
X160757500Y-125086250D01*
X160757500Y-125086250D02*
X160757500Y-127326250D01*
X160757500Y-127326250D02*
X164997500Y-127326250D01*
X165647500Y-126206250D02*
X164997500Y-126206250D01*
X160107500Y-126206250D02*
X160757500Y-126206250D01*
X164277500Y-127326250D02*
X164277500Y-125086250D01*
X164157500Y-127326250D02*
X164157500Y-125086250D01*
X164397500Y-127326250D02*
X164397500Y-125086250D01*
G04 #@! TO.C,D25*
X183248390Y-122563750D02*
X183248390Y-120323750D01*
X183008390Y-122563750D02*
X183008390Y-120323750D01*
X183128390Y-122563750D02*
X183128390Y-120323750D01*
X178958390Y-121443750D02*
X179608390Y-121443750D01*
X184498390Y-121443750D02*
X183848390Y-121443750D01*
X179608390Y-122563750D02*
X183848390Y-122563750D01*
X179608390Y-120323750D02*
X179608390Y-122563750D01*
X183848390Y-120323750D02*
X179608390Y-120323750D01*
X183848390Y-122563750D02*
X183848390Y-120323750D01*
G04 #@! TO.C,D26*
X189140000Y-123850000D02*
X191380000Y-123850000D01*
X191380000Y-123850000D02*
X191380000Y-119610000D01*
X191380000Y-119610000D02*
X189140000Y-119610000D01*
X189140000Y-119610000D02*
X189140000Y-123850000D01*
X190260000Y-124500000D02*
X190260000Y-123850000D01*
X190260000Y-118960000D02*
X190260000Y-119610000D01*
X189140000Y-123130000D02*
X191380000Y-123130000D01*
X189140000Y-123010000D02*
X191380000Y-123010000D01*
X189140000Y-123250000D02*
X191380000Y-123250000D01*
G04 #@! TO.C,D27*
X221547500Y-132088750D02*
X221547500Y-129848750D01*
X221307500Y-132088750D02*
X221307500Y-129848750D01*
X221427500Y-132088750D02*
X221427500Y-129848750D01*
X217257500Y-130968750D02*
X217907500Y-130968750D01*
X222797500Y-130968750D02*
X222147500Y-130968750D01*
X217907500Y-132088750D02*
X222147500Y-132088750D01*
X217907500Y-129848750D02*
X217907500Y-132088750D01*
X222147500Y-129848750D02*
X217907500Y-129848750D01*
X222147500Y-132088750D02*
X222147500Y-129848750D01*
G04 #@! TO.C,D28*
X233083051Y-125093030D02*
X234666970Y-126676949D01*
X234666970Y-126676949D02*
X237665103Y-123678816D01*
X237665103Y-123678816D02*
X236081184Y-122094897D01*
X236081184Y-122094897D02*
X233083051Y-125093030D01*
X233415391Y-126344609D02*
X233875010Y-125884990D01*
X237332763Y-122427237D02*
X236873143Y-122886857D01*
X233592168Y-124583913D02*
X235176087Y-126167832D01*
X233677021Y-124499060D02*
X235260940Y-126082979D01*
X233507315Y-124668766D02*
X235091234Y-126252685D01*
G04 #@! TO.C,D29*
X227480000Y-143610000D02*
X229720000Y-143610000D01*
X227480000Y-143370000D02*
X229720000Y-143370000D01*
X227480000Y-143490000D02*
X229720000Y-143490000D01*
X228600000Y-139320000D02*
X228600000Y-139970000D01*
X228600000Y-144860000D02*
X228600000Y-144210000D01*
X227480000Y-139970000D02*
X227480000Y-144210000D01*
X229720000Y-139970000D02*
X227480000Y-139970000D01*
X229720000Y-144210000D02*
X229720000Y-139970000D01*
X227480000Y-144210000D02*
X229720000Y-144210000D01*
G04 #@! TO.C,D30*
X249053198Y-139355052D02*
X250173198Y-141294948D01*
X249261045Y-139235052D02*
X250381044Y-141174948D01*
X249157122Y-139295052D02*
X250277121Y-141234948D01*
X253328447Y-138180000D02*
X252765531Y-138505000D01*
X248530666Y-140950000D02*
X249093583Y-140625000D01*
X252205532Y-137535051D02*
X248533583Y-139655052D01*
X253325530Y-139474948D02*
X252205532Y-137535051D01*
X249653583Y-141594948D02*
X253325530Y-139474948D01*
X248533583Y-139655052D02*
X249653583Y-141594948D01*
D12*
G04 #@! TO.C,U1*
X187300000Y-50430000D02*
X189840000Y-50430000D01*
X172060000Y-47890000D02*
X189840000Y-47890000D01*
X189840000Y-47890000D02*
X189840000Y-80910000D01*
X189840000Y-80910000D02*
X172060000Y-80910000D01*
X172060000Y-80910000D02*
X172060000Y-47890000D01*
D13*
G36*
X175105365Y-56319030D02*
X175105365Y-56419030D01*
X174605365Y-56419030D01*
X174605365Y-56319030D01*
X175105365Y-56319030D01*
G37*
X175105365Y-56319030D02*
X175105365Y-56419030D01*
X174605365Y-56419030D01*
X174605365Y-56319030D01*
X175105365Y-56319030D01*
G36*
X175105365Y-56319030D02*
X175105365Y-56619030D01*
X175005365Y-56619030D01*
X175005365Y-56319030D01*
X175105365Y-56319030D01*
G37*
X175105365Y-56319030D02*
X175105365Y-56619030D01*
X175005365Y-56619030D01*
X175005365Y-56319030D01*
X175105365Y-56319030D01*
G36*
X175105365Y-56919030D02*
X175105365Y-57119030D01*
X175005365Y-57119030D01*
X175005365Y-56919030D01*
X175105365Y-56919030D01*
G37*
X175105365Y-56919030D02*
X175105365Y-57119030D01*
X175005365Y-57119030D01*
X175005365Y-56919030D01*
X175105365Y-56919030D01*
G36*
X174705365Y-56319030D02*
X174705365Y-57119030D01*
X174605365Y-57119030D01*
X174605365Y-56319030D01*
X174705365Y-56319030D01*
G37*
X174705365Y-56319030D02*
X174705365Y-57119030D01*
X174605365Y-57119030D01*
X174605365Y-56319030D01*
X174705365Y-56319030D01*
G36*
X174905365Y-56719030D02*
X174905365Y-56819030D01*
X174805365Y-56819030D01*
X174805365Y-56719030D01*
X174905365Y-56719030D01*
G37*
X174905365Y-56719030D02*
X174905365Y-56819030D01*
X174805365Y-56819030D01*
X174805365Y-56719030D01*
X174905365Y-56719030D01*
D12*
X187300000Y-50430000D02*
X187300000Y-52970000D01*
X187300000Y-52970000D02*
X189840000Y-52970000D01*
D13*
G04 #@! TO.C,REF\002A\002A*
X147780000Y-52210000D02*
X141680000Y-52210000D01*
X147780000Y-64310000D02*
X141680000Y-64310000D01*
X147780000Y-52210000D02*
X147780000Y-64310000D01*
X141680000Y-52210000D02*
X141680000Y-64310000D01*
X147530000Y-52210000D02*
X147530000Y-50210000D01*
X141930000Y-52210000D02*
X141930000Y-50210000D01*
X147530000Y-50210000D02*
X141930000Y-50210000D01*
G04 #@! TO.C,K3*
X160274047Y-63102678D02*
X161035952Y-63102678D01*
X160655000Y-63483630D02*
X160655000Y-62721726D01*
X162814047Y-63102678D02*
X163575952Y-63102678D01*
G04 #@! TO.C,K2*
X143764047Y-77390178D02*
X144525952Y-77390178D01*
X141224047Y-77390178D02*
X141985952Y-77390178D01*
X141605000Y-77771130D02*
X141605000Y-77009226D01*
G04 #@! TO.C,D1*
X124515654Y-85916130D02*
X124515654Y-84916130D01*
X124753750Y-84916130D01*
X124896607Y-84963750D01*
X124991845Y-85058988D01*
X125039464Y-85154226D01*
X125087083Y-85344702D01*
X125087083Y-85487559D01*
X125039464Y-85678035D01*
X124991845Y-85773273D01*
X124896607Y-85868511D01*
X124753750Y-85916130D01*
X124515654Y-85916130D01*
X126039464Y-85916130D02*
X125468035Y-85916130D01*
X125753750Y-85916130D02*
X125753750Y-84916130D01*
X125658511Y-85058988D01*
X125563273Y-85154226D01*
X125468035Y-85201845D01*
X128801845Y-85596130D02*
X128801845Y-84596130D01*
X129373273Y-85596130D02*
X128944702Y-85024702D01*
X129373273Y-84596130D02*
X128801845Y-85167559D01*
G04 #@! TO.C,D2*
X143089404Y-85916130D02*
X143089404Y-84916130D01*
X143327500Y-84916130D01*
X143470357Y-84963750D01*
X143565595Y-85058988D01*
X143613214Y-85154226D01*
X143660833Y-85344702D01*
X143660833Y-85487559D01*
X143613214Y-85678035D01*
X143565595Y-85773273D01*
X143470357Y-85868511D01*
X143327500Y-85916130D01*
X143089404Y-85916130D01*
X144041785Y-85011369D02*
X144089404Y-84963750D01*
X144184642Y-84916130D01*
X144422738Y-84916130D01*
X144517976Y-84963750D01*
X144565595Y-85011369D01*
X144613214Y-85106607D01*
X144613214Y-85201845D01*
X144565595Y-85344702D01*
X143994166Y-85916130D01*
X144613214Y-85916130D01*
X147375595Y-85596130D02*
X147375595Y-84596130D01*
X147947023Y-85596130D02*
X147518452Y-85024702D01*
X147947023Y-84596130D02*
X147375595Y-85167559D01*
G04 #@! TO.C,D3*
X161450293Y-71628630D02*
X161450293Y-70628630D01*
X161688389Y-70628630D01*
X161831246Y-70676250D01*
X161926484Y-70771488D01*
X161974103Y-70866726D01*
X162021722Y-71057202D01*
X162021722Y-71200059D01*
X161974103Y-71390535D01*
X161926484Y-71485773D01*
X161831246Y-71581011D01*
X161688389Y-71628630D01*
X161450293Y-71628630D01*
X162355055Y-70628630D02*
X162974103Y-70628630D01*
X162640769Y-71009583D01*
X162783627Y-71009583D01*
X162878865Y-71057202D01*
X162926484Y-71104821D01*
X162974103Y-71200059D01*
X162974103Y-71438154D01*
X162926484Y-71533392D01*
X162878865Y-71581011D01*
X162783627Y-71628630D01*
X162497912Y-71628630D01*
X162402674Y-71581011D01*
X162355055Y-71533392D01*
X165736484Y-71308630D02*
X165736484Y-70308630D01*
X166307912Y-71308630D02*
X165879341Y-70737202D01*
X166307912Y-70308630D02*
X165736484Y-70880059D01*
G04 #@! TO.C,D4*
X181189404Y-66866130D02*
X181189404Y-65866130D01*
X181427500Y-65866130D01*
X181570357Y-65913750D01*
X181665595Y-66008988D01*
X181713214Y-66104226D01*
X181760833Y-66294702D01*
X181760833Y-66437559D01*
X181713214Y-66628035D01*
X181665595Y-66723273D01*
X181570357Y-66818511D01*
X181427500Y-66866130D01*
X181189404Y-66866130D01*
X182617976Y-66199464D02*
X182617976Y-66866130D01*
X182379880Y-65818511D02*
X182141785Y-66532797D01*
X182760833Y-66532797D01*
X185475595Y-66546130D02*
X185475595Y-65546130D01*
X186047023Y-66546130D02*
X185618452Y-65974702D01*
X186047023Y-65546130D02*
X185475595Y-66117559D01*
G04 #@! TO.C,D5*
X200239404Y-76391130D02*
X200239404Y-75391130D01*
X200477500Y-75391130D01*
X200620357Y-75438750D01*
X200715595Y-75533988D01*
X200763214Y-75629226D01*
X200810833Y-75819702D01*
X200810833Y-75962559D01*
X200763214Y-76153035D01*
X200715595Y-76248273D01*
X200620357Y-76343511D01*
X200477500Y-76391130D01*
X200239404Y-76391130D01*
X201715595Y-75391130D02*
X201239404Y-75391130D01*
X201191785Y-75867321D01*
X201239404Y-75819702D01*
X201334642Y-75772083D01*
X201572738Y-75772083D01*
X201667976Y-75819702D01*
X201715595Y-75867321D01*
X201763214Y-75962559D01*
X201763214Y-76200654D01*
X201715595Y-76295892D01*
X201667976Y-76343511D01*
X201572738Y-76391130D01*
X201334642Y-76391130D01*
X201239404Y-76343511D01*
X201191785Y-76295892D01*
X204525595Y-76071130D02*
X204525595Y-75071130D01*
X205097023Y-76071130D02*
X204668452Y-75499702D01*
X205097023Y-75071130D02*
X204525595Y-75642559D01*
G04 #@! TO.C,D6*
X219289404Y-76391130D02*
X219289404Y-75391130D01*
X219527500Y-75391130D01*
X219670357Y-75438750D01*
X219765595Y-75533988D01*
X219813214Y-75629226D01*
X219860833Y-75819702D01*
X219860833Y-75962559D01*
X219813214Y-76153035D01*
X219765595Y-76248273D01*
X219670357Y-76343511D01*
X219527500Y-76391130D01*
X219289404Y-76391130D01*
X220717976Y-75391130D02*
X220527500Y-75391130D01*
X220432261Y-75438750D01*
X220384642Y-75486369D01*
X220289404Y-75629226D01*
X220241785Y-75819702D01*
X220241785Y-76200654D01*
X220289404Y-76295892D01*
X220337023Y-76343511D01*
X220432261Y-76391130D01*
X220622738Y-76391130D01*
X220717976Y-76343511D01*
X220765595Y-76295892D01*
X220813214Y-76200654D01*
X220813214Y-75962559D01*
X220765595Y-75867321D01*
X220717976Y-75819702D01*
X220622738Y-75772083D01*
X220432261Y-75772083D01*
X220337023Y-75819702D01*
X220289404Y-75867321D01*
X220241785Y-75962559D01*
X223575595Y-76071130D02*
X223575595Y-75071130D01*
X224147023Y-76071130D02*
X223718452Y-75499702D01*
X224147023Y-75071130D02*
X223575595Y-75642559D01*
G04 #@! TO.C,D7*
X238339404Y-76391130D02*
X238339404Y-75391130D01*
X238577500Y-75391130D01*
X238720357Y-75438750D01*
X238815595Y-75533988D01*
X238863214Y-75629226D01*
X238910833Y-75819702D01*
X238910833Y-75962559D01*
X238863214Y-76153035D01*
X238815595Y-76248273D01*
X238720357Y-76343511D01*
X238577500Y-76391130D01*
X238339404Y-76391130D01*
X239244166Y-75391130D02*
X239910833Y-75391130D01*
X239482261Y-76391130D01*
X242625595Y-76071130D02*
X242625595Y-75071130D01*
X243197023Y-76071130D02*
X242768452Y-75499702D01*
X243197023Y-75071130D02*
X242625595Y-75642559D01*
G04 #@! TO.C,D8*
X124039404Y-104966130D02*
X124039404Y-103966130D01*
X124277500Y-103966130D01*
X124420357Y-104013750D01*
X124515595Y-104108988D01*
X124563214Y-104204226D01*
X124610833Y-104394702D01*
X124610833Y-104537559D01*
X124563214Y-104728035D01*
X124515595Y-104823273D01*
X124420357Y-104918511D01*
X124277500Y-104966130D01*
X124039404Y-104966130D01*
X125182261Y-104394702D02*
X125087023Y-104347083D01*
X125039404Y-104299464D01*
X124991785Y-104204226D01*
X124991785Y-104156607D01*
X125039404Y-104061369D01*
X125087023Y-104013750D01*
X125182261Y-103966130D01*
X125372738Y-103966130D01*
X125467976Y-104013750D01*
X125515595Y-104061369D01*
X125563214Y-104156607D01*
X125563214Y-104204226D01*
X125515595Y-104299464D01*
X125467976Y-104347083D01*
X125372738Y-104394702D01*
X125182261Y-104394702D01*
X125087023Y-104442321D01*
X125039404Y-104489940D01*
X124991785Y-104585178D01*
X124991785Y-104775654D01*
X125039404Y-104870892D01*
X125087023Y-104918511D01*
X125182261Y-104966130D01*
X125372738Y-104966130D01*
X125467976Y-104918511D01*
X125515595Y-104870892D01*
X125563214Y-104775654D01*
X125563214Y-104585178D01*
X125515595Y-104489940D01*
X125467976Y-104442321D01*
X125372738Y-104394702D01*
X128325595Y-104646130D02*
X128325595Y-103646130D01*
X128897023Y-104646130D02*
X128468452Y-104074702D01*
X128897023Y-103646130D02*
X128325595Y-104217559D01*
G04 #@! TO.C,D9*
X143089404Y-104966130D02*
X143089404Y-103966130D01*
X143327500Y-103966130D01*
X143470357Y-104013750D01*
X143565595Y-104108988D01*
X143613214Y-104204226D01*
X143660833Y-104394702D01*
X143660833Y-104537559D01*
X143613214Y-104728035D01*
X143565595Y-104823273D01*
X143470357Y-104918511D01*
X143327500Y-104966130D01*
X143089404Y-104966130D01*
X144137023Y-104966130D02*
X144327500Y-104966130D01*
X144422738Y-104918511D01*
X144470357Y-104870892D01*
X144565595Y-104728035D01*
X144613214Y-104537559D01*
X144613214Y-104156607D01*
X144565595Y-104061369D01*
X144517976Y-104013750D01*
X144422738Y-103966130D01*
X144232261Y-103966130D01*
X144137023Y-104013750D01*
X144089404Y-104061369D01*
X144041785Y-104156607D01*
X144041785Y-104394702D01*
X144089404Y-104489940D01*
X144137023Y-104537559D01*
X144232261Y-104585178D01*
X144422738Y-104585178D01*
X144517976Y-104537559D01*
X144565595Y-104489940D01*
X144613214Y-104394702D01*
X147375595Y-104646130D02*
X147375595Y-103646130D01*
X147947023Y-104646130D02*
X147518452Y-104074702D01*
X147947023Y-103646130D02*
X147375595Y-104217559D01*
G04 #@! TO.C,D10*
X161663214Y-90678630D02*
X161663214Y-89678630D01*
X161901309Y-89678630D01*
X162044166Y-89726250D01*
X162139404Y-89821488D01*
X162187023Y-89916726D01*
X162234642Y-90107202D01*
X162234642Y-90250059D01*
X162187023Y-90440535D01*
X162139404Y-90535773D01*
X162044166Y-90631011D01*
X161901309Y-90678630D01*
X161663214Y-90678630D01*
X163187023Y-90678630D02*
X162615595Y-90678630D01*
X162901309Y-90678630D02*
X162901309Y-89678630D01*
X162806071Y-89821488D01*
X162710833Y-89916726D01*
X162615595Y-89964345D01*
X163806071Y-89678630D02*
X163901309Y-89678630D01*
X163996547Y-89726250D01*
X164044166Y-89773869D01*
X164091785Y-89869107D01*
X164139404Y-90059583D01*
X164139404Y-90297678D01*
X164091785Y-90488154D01*
X164044166Y-90583392D01*
X163996547Y-90631011D01*
X163901309Y-90678630D01*
X163806071Y-90678630D01*
X163710833Y-90631011D01*
X163663214Y-90583392D01*
X163615595Y-90488154D01*
X163567976Y-90297678D01*
X163567976Y-90059583D01*
X163615595Y-89869107D01*
X163663214Y-89773869D01*
X163710833Y-89726250D01*
X163806071Y-89678630D01*
X166425595Y-90358630D02*
X166425595Y-89358630D01*
X166997023Y-90358630D02*
X166568452Y-89787202D01*
X166997023Y-89358630D02*
X166425595Y-89930059D01*
G04 #@! TO.C,D11*
X180713214Y-85916130D02*
X180713214Y-84916130D01*
X180951309Y-84916130D01*
X181094166Y-84963750D01*
X181189404Y-85058988D01*
X181237023Y-85154226D01*
X181284642Y-85344702D01*
X181284642Y-85487559D01*
X181237023Y-85678035D01*
X181189404Y-85773273D01*
X181094166Y-85868511D01*
X180951309Y-85916130D01*
X180713214Y-85916130D01*
X182237023Y-85916130D02*
X181665595Y-85916130D01*
X181951309Y-85916130D02*
X181951309Y-84916130D01*
X181856071Y-85058988D01*
X181760833Y-85154226D01*
X181665595Y-85201845D01*
X183189404Y-85916130D02*
X182617976Y-85916130D01*
X182903690Y-85916130D02*
X182903690Y-84916130D01*
X182808452Y-85058988D01*
X182713214Y-85154226D01*
X182617976Y-85201845D01*
X185475595Y-85596130D02*
X185475595Y-84596130D01*
X186047023Y-85596130D02*
X185618452Y-85024702D01*
X186047023Y-84596130D02*
X185475595Y-85167559D01*
G04 #@! TO.C,D12*
X199763214Y-95441130D02*
X199763214Y-94441130D01*
X200001309Y-94441130D01*
X200144166Y-94488750D01*
X200239404Y-94583988D01*
X200287023Y-94679226D01*
X200334642Y-94869702D01*
X200334642Y-95012559D01*
X200287023Y-95203035D01*
X200239404Y-95298273D01*
X200144166Y-95393511D01*
X200001309Y-95441130D01*
X199763214Y-95441130D01*
X201287023Y-95441130D02*
X200715595Y-95441130D01*
X201001309Y-95441130D02*
X201001309Y-94441130D01*
X200906071Y-94583988D01*
X200810833Y-94679226D01*
X200715595Y-94726845D01*
X201667976Y-94536369D02*
X201715595Y-94488750D01*
X201810833Y-94441130D01*
X202048928Y-94441130D01*
X202144166Y-94488750D01*
X202191785Y-94536369D01*
X202239404Y-94631607D01*
X202239404Y-94726845D01*
X202191785Y-94869702D01*
X201620357Y-95441130D01*
X202239404Y-95441130D01*
X204525595Y-95121130D02*
X204525595Y-94121130D01*
X205097023Y-95121130D02*
X204668452Y-94549702D01*
X205097023Y-94121130D02*
X204525595Y-94692559D01*
G04 #@! TO.C,D13*
X218813214Y-95441130D02*
X218813214Y-94441130D01*
X219051309Y-94441130D01*
X219194166Y-94488750D01*
X219289404Y-94583988D01*
X219337023Y-94679226D01*
X219384642Y-94869702D01*
X219384642Y-95012559D01*
X219337023Y-95203035D01*
X219289404Y-95298273D01*
X219194166Y-95393511D01*
X219051309Y-95441130D01*
X218813214Y-95441130D01*
X220337023Y-95441130D02*
X219765595Y-95441130D01*
X220051309Y-95441130D02*
X220051309Y-94441130D01*
X219956071Y-94583988D01*
X219860833Y-94679226D01*
X219765595Y-94726845D01*
X220670357Y-94441130D02*
X221289404Y-94441130D01*
X220956071Y-94822083D01*
X221098928Y-94822083D01*
X221194166Y-94869702D01*
X221241785Y-94917321D01*
X221289404Y-95012559D01*
X221289404Y-95250654D01*
X221241785Y-95345892D01*
X221194166Y-95393511D01*
X221098928Y-95441130D01*
X220813214Y-95441130D01*
X220717976Y-95393511D01*
X220670357Y-95345892D01*
X223575595Y-95121130D02*
X223575595Y-94121130D01*
X224147023Y-95121130D02*
X223718452Y-94549702D01*
X224147023Y-94121130D02*
X223575595Y-94692559D01*
G04 #@! TO.C,D14*
X237863214Y-95441130D02*
X237863214Y-94441130D01*
X238101309Y-94441130D01*
X238244166Y-94488750D01*
X238339404Y-94583988D01*
X238387023Y-94679226D01*
X238434642Y-94869702D01*
X238434642Y-95012559D01*
X238387023Y-95203035D01*
X238339404Y-95298273D01*
X238244166Y-95393511D01*
X238101309Y-95441130D01*
X237863214Y-95441130D01*
X239387023Y-95441130D02*
X238815595Y-95441130D01*
X239101309Y-95441130D02*
X239101309Y-94441130D01*
X239006071Y-94583988D01*
X238910833Y-94679226D01*
X238815595Y-94726845D01*
X240244166Y-94774464D02*
X240244166Y-95441130D01*
X240006071Y-94393511D02*
X239767976Y-95107797D01*
X240387023Y-95107797D01*
X242625595Y-95121130D02*
X242625595Y-94121130D01*
X243197023Y-95121130D02*
X242768452Y-94549702D01*
X243197023Y-94121130D02*
X242625595Y-94692559D01*
G04 #@! TO.C,D15*
X123563214Y-124016130D02*
X123563214Y-123016130D01*
X123801309Y-123016130D01*
X123944166Y-123063750D01*
X124039404Y-123158988D01*
X124087023Y-123254226D01*
X124134642Y-123444702D01*
X124134642Y-123587559D01*
X124087023Y-123778035D01*
X124039404Y-123873273D01*
X123944166Y-123968511D01*
X123801309Y-124016130D01*
X123563214Y-124016130D01*
X125087023Y-124016130D02*
X124515595Y-124016130D01*
X124801309Y-124016130D02*
X124801309Y-123016130D01*
X124706071Y-123158988D01*
X124610833Y-123254226D01*
X124515595Y-123301845D01*
X125991785Y-123016130D02*
X125515595Y-123016130D01*
X125467976Y-123492321D01*
X125515595Y-123444702D01*
X125610833Y-123397083D01*
X125848928Y-123397083D01*
X125944166Y-123444702D01*
X125991785Y-123492321D01*
X126039404Y-123587559D01*
X126039404Y-123825654D01*
X125991785Y-123920892D01*
X125944166Y-123968511D01*
X125848928Y-124016130D01*
X125610833Y-124016130D01*
X125515595Y-123968511D01*
X125467976Y-123920892D01*
X128325595Y-123696130D02*
X128325595Y-122696130D01*
X128897023Y-123696130D02*
X128468452Y-123124702D01*
X128897023Y-122696130D02*
X128325595Y-123267559D01*
G04 #@! TO.C,D16*
X142613214Y-124016130D02*
X142613214Y-123016130D01*
X142851309Y-123016130D01*
X142994166Y-123063750D01*
X143089404Y-123158988D01*
X143137023Y-123254226D01*
X143184642Y-123444702D01*
X143184642Y-123587559D01*
X143137023Y-123778035D01*
X143089404Y-123873273D01*
X142994166Y-123968511D01*
X142851309Y-124016130D01*
X142613214Y-124016130D01*
X144137023Y-124016130D02*
X143565595Y-124016130D01*
X143851309Y-124016130D02*
X143851309Y-123016130D01*
X143756071Y-123158988D01*
X143660833Y-123254226D01*
X143565595Y-123301845D01*
X144994166Y-123016130D02*
X144803690Y-123016130D01*
X144708452Y-123063750D01*
X144660833Y-123111369D01*
X144565595Y-123254226D01*
X144517976Y-123444702D01*
X144517976Y-123825654D01*
X144565595Y-123920892D01*
X144613214Y-123968511D01*
X144708452Y-124016130D01*
X144898928Y-124016130D01*
X144994166Y-123968511D01*
X145041785Y-123920892D01*
X145089404Y-123825654D01*
X145089404Y-123587559D01*
X145041785Y-123492321D01*
X144994166Y-123444702D01*
X144898928Y-123397083D01*
X144708452Y-123397083D01*
X144613214Y-123444702D01*
X144565595Y-123492321D01*
X144517976Y-123587559D01*
X147375595Y-123696130D02*
X147375595Y-122696130D01*
X147947023Y-123696130D02*
X147518452Y-123124702D01*
X147947023Y-122696130D02*
X147375595Y-123267559D01*
G04 #@! TO.C,D17*
X161663214Y-109728630D02*
X161663214Y-108728630D01*
X161901309Y-108728630D01*
X162044166Y-108776250D01*
X162139404Y-108871488D01*
X162187023Y-108966726D01*
X162234642Y-109157202D01*
X162234642Y-109300059D01*
X162187023Y-109490535D01*
X162139404Y-109585773D01*
X162044166Y-109681011D01*
X161901309Y-109728630D01*
X161663214Y-109728630D01*
X163187023Y-109728630D02*
X162615595Y-109728630D01*
X162901309Y-109728630D02*
X162901309Y-108728630D01*
X162806071Y-108871488D01*
X162710833Y-108966726D01*
X162615595Y-109014345D01*
X163520357Y-108728630D02*
X164187023Y-108728630D01*
X163758452Y-109728630D01*
X166425595Y-109408630D02*
X166425595Y-108408630D01*
X166997023Y-109408630D02*
X166568452Y-108837202D01*
X166997023Y-108408630D02*
X166425595Y-108980059D01*
G04 #@! TO.C,D18*
X180713214Y-104966130D02*
X180713214Y-103966130D01*
X180951309Y-103966130D01*
X181094166Y-104013750D01*
X181189404Y-104108988D01*
X181237023Y-104204226D01*
X181284642Y-104394702D01*
X181284642Y-104537559D01*
X181237023Y-104728035D01*
X181189404Y-104823273D01*
X181094166Y-104918511D01*
X180951309Y-104966130D01*
X180713214Y-104966130D01*
X182237023Y-104966130D02*
X181665595Y-104966130D01*
X181951309Y-104966130D02*
X181951309Y-103966130D01*
X181856071Y-104108988D01*
X181760833Y-104204226D01*
X181665595Y-104251845D01*
X182808452Y-104394702D02*
X182713214Y-104347083D01*
X182665595Y-104299464D01*
X182617976Y-104204226D01*
X182617976Y-104156607D01*
X182665595Y-104061369D01*
X182713214Y-104013750D01*
X182808452Y-103966130D01*
X182998928Y-103966130D01*
X183094166Y-104013750D01*
X183141785Y-104061369D01*
X183189404Y-104156607D01*
X183189404Y-104204226D01*
X183141785Y-104299464D01*
X183094166Y-104347083D01*
X182998928Y-104394702D01*
X182808452Y-104394702D01*
X182713214Y-104442321D01*
X182665595Y-104489940D01*
X182617976Y-104585178D01*
X182617976Y-104775654D01*
X182665595Y-104870892D01*
X182713214Y-104918511D01*
X182808452Y-104966130D01*
X182998928Y-104966130D01*
X183094166Y-104918511D01*
X183141785Y-104870892D01*
X183189404Y-104775654D01*
X183189404Y-104585178D01*
X183141785Y-104489940D01*
X183094166Y-104442321D01*
X182998928Y-104394702D01*
X185475595Y-104646130D02*
X185475595Y-103646130D01*
X186047023Y-104646130D02*
X185618452Y-104074702D01*
X186047023Y-103646130D02*
X185475595Y-104217559D01*
G04 #@! TO.C,D19*
X200239464Y-114491130D02*
X200239464Y-113491130D01*
X200477559Y-113491130D01*
X200620416Y-113538750D01*
X200715654Y-113633988D01*
X200763273Y-113729226D01*
X200810892Y-113919702D01*
X200810892Y-114062559D01*
X200763273Y-114253035D01*
X200715654Y-114348273D01*
X200620416Y-114443511D01*
X200477559Y-114491130D01*
X200239464Y-114491130D01*
X201763273Y-114491130D02*
X201191845Y-114491130D01*
X201477559Y-114491130D02*
X201477559Y-113491130D01*
X201382321Y-113633988D01*
X201287083Y-113729226D01*
X201191845Y-113776845D01*
X202239464Y-114491130D02*
X202429940Y-114491130D01*
X202525178Y-114443511D01*
X202572797Y-114395892D01*
X202668035Y-114253035D01*
X202715654Y-114062559D01*
X202715654Y-113681607D01*
X202668035Y-113586369D01*
X202620416Y-113538750D01*
X202525178Y-113491130D01*
X202334702Y-113491130D01*
X202239464Y-113538750D01*
X202191845Y-113586369D01*
X202144226Y-113681607D01*
X202144226Y-113919702D01*
X202191845Y-114014940D01*
X202239464Y-114062559D01*
X202334702Y-114110178D01*
X202525178Y-114110178D01*
X202620416Y-114062559D01*
X202668035Y-114014940D01*
X202715654Y-113919702D01*
X205001845Y-114171130D02*
X205001845Y-113171130D01*
X205573273Y-114171130D02*
X205144702Y-113599702D01*
X205573273Y-113171130D02*
X205001845Y-113742559D01*
G04 #@! TO.C,D20*
X218813214Y-114491130D02*
X218813214Y-113491130D01*
X219051309Y-113491130D01*
X219194166Y-113538750D01*
X219289404Y-113633988D01*
X219337023Y-113729226D01*
X219384642Y-113919702D01*
X219384642Y-114062559D01*
X219337023Y-114253035D01*
X219289404Y-114348273D01*
X219194166Y-114443511D01*
X219051309Y-114491130D01*
X218813214Y-114491130D01*
X219765595Y-113586369D02*
X219813214Y-113538750D01*
X219908452Y-113491130D01*
X220146547Y-113491130D01*
X220241785Y-113538750D01*
X220289404Y-113586369D01*
X220337023Y-113681607D01*
X220337023Y-113776845D01*
X220289404Y-113919702D01*
X219717976Y-114491130D01*
X220337023Y-114491130D01*
X220956071Y-113491130D02*
X221051309Y-113491130D01*
X221146547Y-113538750D01*
X221194166Y-113586369D01*
X221241785Y-113681607D01*
X221289404Y-113872083D01*
X221289404Y-114110178D01*
X221241785Y-114300654D01*
X221194166Y-114395892D01*
X221146547Y-114443511D01*
X221051309Y-114491130D01*
X220956071Y-114491130D01*
X220860833Y-114443511D01*
X220813214Y-114395892D01*
X220765595Y-114300654D01*
X220717976Y-114110178D01*
X220717976Y-113872083D01*
X220765595Y-113681607D01*
X220813214Y-113586369D01*
X220860833Y-113538750D01*
X220956071Y-113491130D01*
X223575595Y-114171130D02*
X223575595Y-113171130D01*
X224147023Y-114171130D02*
X223718452Y-113599702D01*
X224147023Y-113171130D02*
X223575595Y-113742559D01*
G04 #@! TO.C,D21*
X237863214Y-114491130D02*
X237863214Y-113491130D01*
X238101309Y-113491130D01*
X238244166Y-113538750D01*
X238339404Y-113633988D01*
X238387023Y-113729226D01*
X238434642Y-113919702D01*
X238434642Y-114062559D01*
X238387023Y-114253035D01*
X238339404Y-114348273D01*
X238244166Y-114443511D01*
X238101309Y-114491130D01*
X237863214Y-114491130D01*
X238815595Y-113586369D02*
X238863214Y-113538750D01*
X238958452Y-113491130D01*
X239196547Y-113491130D01*
X239291785Y-113538750D01*
X239339404Y-113586369D01*
X239387023Y-113681607D01*
X239387023Y-113776845D01*
X239339404Y-113919702D01*
X238767976Y-114491130D01*
X239387023Y-114491130D01*
X240339404Y-114491130D02*
X239767976Y-114491130D01*
X240053690Y-114491130D02*
X240053690Y-113491130D01*
X239958452Y-113633988D01*
X239863214Y-113729226D01*
X239767976Y-113776845D01*
X242625595Y-114171130D02*
X242625595Y-113171130D01*
X243197023Y-114171130D02*
X242768452Y-113599702D01*
X243197023Y-113171130D02*
X242625595Y-113742559D01*
G04 #@! TO.C,D22*
X131382380Y-132834285D02*
X130382380Y-132834285D01*
X130382380Y-132596190D01*
X130430000Y-132453333D01*
X130525238Y-132358095D01*
X130620476Y-132310476D01*
X130810952Y-132262857D01*
X130953809Y-132262857D01*
X131144285Y-132310476D01*
X131239523Y-132358095D01*
X131334761Y-132453333D01*
X131382380Y-132596190D01*
X131382380Y-132834285D01*
X130477619Y-131881904D02*
X130430000Y-131834285D01*
X130382380Y-131739047D01*
X130382380Y-131500952D01*
X130430000Y-131405714D01*
X130477619Y-131358095D01*
X130572857Y-131310476D01*
X130668095Y-131310476D01*
X130810952Y-131358095D01*
X131382380Y-131929523D01*
X131382380Y-131310476D01*
X130477619Y-130929523D02*
X130430000Y-130881904D01*
X130382380Y-130786666D01*
X130382380Y-130548571D01*
X130430000Y-130453333D01*
X130477619Y-130405714D01*
X130572857Y-130358095D01*
X130668095Y-130358095D01*
X130810952Y-130405714D01*
X131382380Y-130977142D01*
X131382380Y-130358095D01*
X131702380Y-135691904D02*
X130702380Y-135691904D01*
X131702380Y-135120476D02*
X131130952Y-135549047D01*
X130702380Y-135120476D02*
X131273809Y-135691904D01*
G04 #@! TO.C,D23*
X150752380Y-132954285D02*
X149752380Y-132954285D01*
X149752380Y-132716190D01*
X149800000Y-132573333D01*
X149895238Y-132478095D01*
X149990476Y-132430476D01*
X150180952Y-132382857D01*
X150323809Y-132382857D01*
X150514285Y-132430476D01*
X150609523Y-132478095D01*
X150704761Y-132573333D01*
X150752380Y-132716190D01*
X150752380Y-132954285D01*
X149847619Y-132001904D02*
X149800000Y-131954285D01*
X149752380Y-131859047D01*
X149752380Y-131620952D01*
X149800000Y-131525714D01*
X149847619Y-131478095D01*
X149942857Y-131430476D01*
X150038095Y-131430476D01*
X150180952Y-131478095D01*
X150752380Y-132049523D01*
X150752380Y-131430476D01*
X149752380Y-131097142D02*
X149752380Y-130478095D01*
X150133333Y-130811428D01*
X150133333Y-130668571D01*
X150180952Y-130573333D01*
X150228571Y-130525714D01*
X150323809Y-130478095D01*
X150561904Y-130478095D01*
X150657142Y-130525714D01*
X150704761Y-130573333D01*
X150752380Y-130668571D01*
X150752380Y-130954285D01*
X150704761Y-131049523D01*
X150657142Y-131097142D01*
X151072380Y-135811904D02*
X150072380Y-135811904D01*
X151072380Y-135240476D02*
X150500952Y-135669047D01*
X150072380Y-135240476D02*
X150643809Y-135811904D01*
G04 #@! TO.C,D24*
X161663214Y-128778630D02*
X161663214Y-127778630D01*
X161901309Y-127778630D01*
X162044166Y-127826250D01*
X162139404Y-127921488D01*
X162187023Y-128016726D01*
X162234642Y-128207202D01*
X162234642Y-128350059D01*
X162187023Y-128540535D01*
X162139404Y-128635773D01*
X162044166Y-128731011D01*
X161901309Y-128778630D01*
X161663214Y-128778630D01*
X162615595Y-127873869D02*
X162663214Y-127826250D01*
X162758452Y-127778630D01*
X162996547Y-127778630D01*
X163091785Y-127826250D01*
X163139404Y-127873869D01*
X163187023Y-127969107D01*
X163187023Y-128064345D01*
X163139404Y-128207202D01*
X162567976Y-128778630D01*
X163187023Y-128778630D01*
X164044166Y-128111964D02*
X164044166Y-128778630D01*
X163806071Y-127731011D02*
X163567976Y-128445297D01*
X164187023Y-128445297D01*
X166425595Y-128458630D02*
X166425595Y-127458630D01*
X166997023Y-128458630D02*
X166568452Y-127887202D01*
X166997023Y-127458630D02*
X166425595Y-128030059D01*
G04 #@! TO.C,D25*
X180514104Y-124016130D02*
X180514104Y-123016130D01*
X180752199Y-123016130D01*
X180895056Y-123063750D01*
X180990294Y-123158988D01*
X181037913Y-123254226D01*
X181085532Y-123444702D01*
X181085532Y-123587559D01*
X181037913Y-123778035D01*
X180990294Y-123873273D01*
X180895056Y-123968511D01*
X180752199Y-124016130D01*
X180514104Y-124016130D01*
X181466485Y-123111369D02*
X181514104Y-123063750D01*
X181609342Y-123016130D01*
X181847437Y-123016130D01*
X181942675Y-123063750D01*
X181990294Y-123111369D01*
X182037913Y-123206607D01*
X182037913Y-123301845D01*
X181990294Y-123444702D01*
X181418866Y-124016130D01*
X182037913Y-124016130D01*
X182942675Y-123016130D02*
X182466485Y-123016130D01*
X182418866Y-123492321D01*
X182466485Y-123444702D01*
X182561723Y-123397083D01*
X182799818Y-123397083D01*
X182895056Y-123444702D01*
X182942675Y-123492321D01*
X182990294Y-123587559D01*
X182990294Y-123825654D01*
X182942675Y-123920892D01*
X182895056Y-123968511D01*
X182799818Y-124016130D01*
X182561723Y-124016130D01*
X182466485Y-123968511D01*
X182418866Y-123920892D01*
X185276485Y-123696130D02*
X185276485Y-122696130D01*
X185847913Y-123696130D02*
X185419342Y-123124702D01*
X185847913Y-122696130D02*
X185276485Y-123267559D01*
G04 #@! TO.C,D26*
X188592380Y-122944285D02*
X187592380Y-122944285D01*
X187592380Y-122706190D01*
X187640000Y-122563333D01*
X187735238Y-122468095D01*
X187830476Y-122420476D01*
X188020952Y-122372857D01*
X188163809Y-122372857D01*
X188354285Y-122420476D01*
X188449523Y-122468095D01*
X188544761Y-122563333D01*
X188592380Y-122706190D01*
X188592380Y-122944285D01*
X187687619Y-121991904D02*
X187640000Y-121944285D01*
X187592380Y-121849047D01*
X187592380Y-121610952D01*
X187640000Y-121515714D01*
X187687619Y-121468095D01*
X187782857Y-121420476D01*
X187878095Y-121420476D01*
X188020952Y-121468095D01*
X188592380Y-122039523D01*
X188592380Y-121420476D01*
X187592380Y-120563333D02*
X187592380Y-120753809D01*
X187640000Y-120849047D01*
X187687619Y-120896666D01*
X187830476Y-120991904D01*
X188020952Y-121039523D01*
X188401904Y-121039523D01*
X188497142Y-120991904D01*
X188544761Y-120944285D01*
X188592380Y-120849047D01*
X188592380Y-120658571D01*
X188544761Y-120563333D01*
X188497142Y-120515714D01*
X188401904Y-120468095D01*
X188163809Y-120468095D01*
X188068571Y-120515714D01*
X188020952Y-120563333D01*
X187973333Y-120658571D01*
X187973333Y-120849047D01*
X188020952Y-120944285D01*
X188068571Y-120991904D01*
X188163809Y-121039523D01*
X188912380Y-125801904D02*
X187912380Y-125801904D01*
X188912380Y-125230476D02*
X188340952Y-125659047D01*
X187912380Y-125230476D02*
X188483809Y-125801904D01*
G04 #@! TO.C,D27*
X218813214Y-133541130D02*
X218813214Y-132541130D01*
X219051309Y-132541130D01*
X219194166Y-132588750D01*
X219289404Y-132683988D01*
X219337023Y-132779226D01*
X219384642Y-132969702D01*
X219384642Y-133112559D01*
X219337023Y-133303035D01*
X219289404Y-133398273D01*
X219194166Y-133493511D01*
X219051309Y-133541130D01*
X218813214Y-133541130D01*
X219765595Y-132636369D02*
X219813214Y-132588750D01*
X219908452Y-132541130D01*
X220146547Y-132541130D01*
X220241785Y-132588750D01*
X220289404Y-132636369D01*
X220337023Y-132731607D01*
X220337023Y-132826845D01*
X220289404Y-132969702D01*
X219717976Y-133541130D01*
X220337023Y-133541130D01*
X220670357Y-132541130D02*
X221337023Y-132541130D01*
X220908452Y-133541130D01*
X223575595Y-133221130D02*
X223575595Y-132221130D01*
X224147023Y-133221130D02*
X223718452Y-132649702D01*
X224147023Y-132221130D02*
X223575595Y-132792559D01*
G04 #@! TO.C,D28*
X233336261Y-124065368D02*
X232629155Y-123358261D01*
X232797513Y-123189902D01*
X232932200Y-123122559D01*
X233066887Y-123122559D01*
X233167903Y-123156231D01*
X233336261Y-123257246D01*
X233437277Y-123358261D01*
X233538292Y-123526620D01*
X233571964Y-123627635D01*
X233571964Y-123762322D01*
X233504620Y-123897009D01*
X233336261Y-124065368D01*
X233369933Y-122752169D02*
X233369933Y-122684826D01*
X233403605Y-122583811D01*
X233571964Y-122415452D01*
X233672979Y-122381780D01*
X233740322Y-122381780D01*
X233841338Y-122415452D01*
X233908681Y-122482795D01*
X233976025Y-122617482D01*
X233976025Y-123425605D01*
X234413758Y-122987872D01*
X234413758Y-122179750D02*
X234312742Y-122213421D01*
X234245399Y-122213421D01*
X234144384Y-122179750D01*
X234110712Y-122146078D01*
X234077040Y-122045063D01*
X234077040Y-121977719D01*
X234110712Y-121876704D01*
X234245399Y-121742017D01*
X234346414Y-121708345D01*
X234413758Y-121708345D01*
X234514773Y-121742017D01*
X234548445Y-121775689D01*
X234582116Y-121876704D01*
X234582116Y-121944047D01*
X234548445Y-122045063D01*
X234413758Y-122179750D01*
X234380086Y-122280765D01*
X234380086Y-122348108D01*
X234413758Y-122449124D01*
X234548445Y-122583811D01*
X234649460Y-122617482D01*
X234716803Y-122617482D01*
X234817819Y-122583811D01*
X234952506Y-122449124D01*
X234986177Y-122348108D01*
X234986177Y-122280765D01*
X234952506Y-122179750D01*
X234817819Y-122045063D01*
X234716803Y-122011391D01*
X234649460Y-122011391D01*
X234548445Y-122045063D01*
X231541895Y-126312284D02*
X230834788Y-125605177D01*
X231945956Y-125908223D02*
X231238849Y-125807208D01*
X231238849Y-125201116D02*
X231238849Y-126009238D01*
G04 #@! TO.C,D29*
X226932380Y-143304285D02*
X225932380Y-143304285D01*
X225932380Y-143066190D01*
X225980000Y-142923333D01*
X226075238Y-142828095D01*
X226170476Y-142780476D01*
X226360952Y-142732857D01*
X226503809Y-142732857D01*
X226694285Y-142780476D01*
X226789523Y-142828095D01*
X226884761Y-142923333D01*
X226932380Y-143066190D01*
X226932380Y-143304285D01*
X226027619Y-142351904D02*
X225980000Y-142304285D01*
X225932380Y-142209047D01*
X225932380Y-141970952D01*
X225980000Y-141875714D01*
X226027619Y-141828095D01*
X226122857Y-141780476D01*
X226218095Y-141780476D01*
X226360952Y-141828095D01*
X226932380Y-142399523D01*
X226932380Y-141780476D01*
X226932380Y-141304285D02*
X226932380Y-141113809D01*
X226884761Y-141018571D01*
X226837142Y-140970952D01*
X226694285Y-140875714D01*
X226503809Y-140828095D01*
X226122857Y-140828095D01*
X226027619Y-140875714D01*
X225980000Y-140923333D01*
X225932380Y-141018571D01*
X225932380Y-141209047D01*
X225980000Y-141304285D01*
X226027619Y-141351904D01*
X226122857Y-141399523D01*
X226360952Y-141399523D01*
X226456190Y-141351904D01*
X226503809Y-141304285D01*
X226551428Y-141209047D01*
X226551428Y-141018571D01*
X226503809Y-140923333D01*
X226456190Y-140875714D01*
X226360952Y-140828095D01*
X227252380Y-146161904D02*
X226252380Y-146161904D01*
X227252380Y-145590476D02*
X226680952Y-146019047D01*
X226252380Y-145590476D02*
X226823809Y-146161904D01*
G04 #@! TO.C,D30*
X249044145Y-138727942D02*
X248544145Y-137861916D01*
X248750341Y-137742869D01*
X248897869Y-137712679D01*
X249027966Y-137747539D01*
X249116825Y-137806208D01*
X249253302Y-137947356D01*
X249324731Y-138071074D01*
X249378729Y-138259840D01*
X249385109Y-138366129D01*
X249350250Y-138496226D01*
X249250341Y-138608894D01*
X249044145Y-138727942D01*
X249327691Y-137409535D02*
X249863802Y-137100012D01*
X249765604Y-137596593D01*
X249889321Y-137525164D01*
X249995610Y-137518784D01*
X250060658Y-137536214D01*
X250149517Y-137594883D01*
X250268564Y-137801080D01*
X250274944Y-137907368D01*
X250257514Y-137972417D01*
X250198845Y-138061275D01*
X249951409Y-138204132D01*
X249845121Y-138210512D01*
X249780072Y-138193082D01*
X250399913Y-136790488D02*
X250482392Y-136742869D01*
X250588680Y-136736489D01*
X250653729Y-136753919D01*
X250742587Y-136812588D01*
X250879065Y-136953736D01*
X250998112Y-137159932D01*
X251052111Y-137348699D01*
X251058491Y-137454987D01*
X251041061Y-137520036D01*
X250982392Y-137608894D01*
X250899913Y-137656513D01*
X250793625Y-137662893D01*
X250728576Y-137645463D01*
X250639718Y-137586794D01*
X250503241Y-137445646D01*
X250384193Y-137239450D01*
X250330194Y-137050683D01*
X250323815Y-136944395D01*
X250341244Y-136879346D01*
X250399913Y-136790488D01*
X246729374Y-140433879D02*
X246229374Y-139567854D01*
X247224245Y-140148165D02*
X246567377Y-139867579D01*
X246724245Y-139282140D02*
X246515088Y-140062726D01*
G04 #@! TO.C,K1*
X124714047Y-77390178D02*
X125475952Y-77390178D01*
X122174047Y-77390178D02*
X122935952Y-77390178D01*
X122555000Y-77771130D02*
X122555000Y-77009226D01*
G04 #@! TO.C,K4*
X181864047Y-58340178D02*
X182625952Y-58340178D01*
X179324047Y-58340178D02*
X180085952Y-58340178D01*
X179705000Y-58721130D02*
X179705000Y-57959226D01*
G04 #@! TO.C,K5*
X198374047Y-67865178D02*
X199135952Y-67865178D01*
X198755000Y-68246130D02*
X198755000Y-67484226D01*
X200914047Y-67865178D02*
X201675952Y-67865178D01*
G04 #@! TO.C,K6*
X219964047Y-67865178D02*
X220725952Y-67865178D01*
X217424047Y-67865178D02*
X218185952Y-67865178D01*
X217805000Y-68246130D02*
X217805000Y-67484226D01*
G04 #@! TO.C,K7*
X236474047Y-67865178D02*
X237235952Y-67865178D01*
X236855000Y-68246130D02*
X236855000Y-67484226D01*
X239014047Y-67865178D02*
X239775952Y-67865178D01*
G04 #@! TO.C,K8*
X122174047Y-96440178D02*
X122935952Y-96440178D01*
X122555000Y-96821130D02*
X122555000Y-96059226D01*
X124714047Y-96440178D02*
X125475952Y-96440178D01*
G04 #@! TO.C,K9*
X143764047Y-96440178D02*
X144525952Y-96440178D01*
X141224047Y-96440178D02*
X141985952Y-96440178D01*
X141605000Y-96821130D02*
X141605000Y-96059226D01*
G04 #@! TO.C,K10*
X160274047Y-82152678D02*
X161035952Y-82152678D01*
X160655000Y-82533630D02*
X160655000Y-81771726D01*
X162814047Y-82152678D02*
X163575952Y-82152678D01*
G04 #@! TO.C,K11*
X181864047Y-77390178D02*
X182625952Y-77390178D01*
X179324047Y-77390178D02*
X180085952Y-77390178D01*
X179705000Y-77771130D02*
X179705000Y-77009226D01*
G04 #@! TO.C,K12*
X198374047Y-86915178D02*
X199135952Y-86915178D01*
X198755000Y-87296130D02*
X198755000Y-86534226D01*
X200914047Y-86915178D02*
X201675952Y-86915178D01*
G04 #@! TO.C,K13*
X219964047Y-86915178D02*
X220725952Y-86915178D01*
X217424047Y-86915178D02*
X218185952Y-86915178D01*
X217805000Y-87296130D02*
X217805000Y-86534226D01*
G04 #@! TO.C,K14*
X236474047Y-86915178D02*
X237235952Y-86915178D01*
X236855000Y-87296130D02*
X236855000Y-86534226D01*
X239014047Y-86915178D02*
X239775952Y-86915178D01*
G04 #@! TO.C,K15*
X124714047Y-115490178D02*
X125475952Y-115490178D01*
X122174047Y-115490178D02*
X122935952Y-115490178D01*
X122555000Y-115871130D02*
X122555000Y-115109226D01*
G04 #@! TO.C,K16*
X141224047Y-115490178D02*
X141985952Y-115490178D01*
X141605000Y-115871130D02*
X141605000Y-115109226D01*
X143764047Y-115490178D02*
X144525952Y-115490178D01*
G04 #@! TO.C,K17*
X160274047Y-101202678D02*
X161035952Y-101202678D01*
X160655000Y-101583630D02*
X160655000Y-100821726D01*
X162814047Y-101202678D02*
X163575952Y-101202678D01*
G04 #@! TO.C,K18*
X181864047Y-96440178D02*
X182625952Y-96440178D01*
X179324047Y-96440178D02*
X180085952Y-96440178D01*
X179705000Y-96821130D02*
X179705000Y-96059226D01*
G04 #@! TO.C,K19*
X198374047Y-105965178D02*
X199135952Y-105965178D01*
X198755000Y-106346130D02*
X198755000Y-105584226D01*
X200914047Y-105965178D02*
X201675952Y-105965178D01*
G04 #@! TO.C,K20*
X219964047Y-105965178D02*
X220725952Y-105965178D01*
X217424047Y-105965178D02*
X218185952Y-105965178D01*
X217805000Y-106346130D02*
X217805000Y-105584226D01*
G04 #@! TO.C,K21*
X236474047Y-105965178D02*
X237235952Y-105965178D01*
X236855000Y-106346130D02*
X236855000Y-105584226D01*
X239014047Y-105965178D02*
X239775952Y-105965178D01*
G04 #@! TO.C,K22*
X124714047Y-134540178D02*
X125475952Y-134540178D01*
X122174047Y-134540178D02*
X122935952Y-134540178D01*
X122555000Y-134921130D02*
X122555000Y-134159226D01*
G04 #@! TO.C,K23*
X141224047Y-134540178D02*
X141985952Y-134540178D01*
X141605000Y-134921130D02*
X141605000Y-134159226D01*
X143764047Y-134540178D02*
X144525952Y-134540178D01*
G04 #@! TO.C,K24*
X162814047Y-120252678D02*
X163575952Y-120252678D01*
X160274047Y-120252678D02*
X161035952Y-120252678D01*
X160655000Y-120633630D02*
X160655000Y-119871726D01*
G04 #@! TO.C,K25*
X179324047Y-115490178D02*
X180085952Y-115490178D01*
X179705000Y-115871130D02*
X179705000Y-115109226D01*
X181864047Y-115490178D02*
X182625952Y-115490178D01*
G04 #@! TO.C,K26*
X200914047Y-125015178D02*
X201675952Y-125015178D01*
X198374047Y-125015178D02*
X199135952Y-125015178D01*
X198755000Y-125396130D02*
X198755000Y-124634226D01*
G04 #@! TO.C,K27*
X217424047Y-125015178D02*
X218185952Y-125015178D01*
X217805000Y-125396130D02*
X217805000Y-124634226D01*
X219964047Y-125015178D02*
X220725952Y-125015178D01*
G04 #@! TO.C,K28*
X240168270Y-134027782D02*
X240707018Y-134566530D01*
X238372219Y-132231731D02*
X238910967Y-132770479D01*
X238372219Y-132770479D02*
X238910967Y-132231731D01*
G04 #@! TO.C,K29*
X217424047Y-144065178D02*
X218185952Y-144065178D01*
X217805000Y-144446130D02*
X217805000Y-143684226D01*
X219964047Y-144065178D02*
X220725952Y-144065178D01*
G04 #@! TO.C,K30*
X252421575Y-150575651D02*
X252802528Y-151235480D01*
X251151575Y-148375947D02*
X251532528Y-149035776D01*
X251012137Y-148896338D02*
X251671966Y-148515386D01*
G04 #@! TO.C,U1*
X175376666Y-57083809D02*
X175490952Y-57121904D01*
X175681428Y-57121904D01*
X175757619Y-57083809D01*
X175795714Y-57045714D01*
X175833809Y-56969523D01*
X175833809Y-56893333D01*
X175795714Y-56817142D01*
X175757619Y-56779047D01*
X175681428Y-56740952D01*
X175529047Y-56702857D01*
X175452857Y-56664761D01*
X175414761Y-56626666D01*
X175376666Y-56550476D01*
X175376666Y-56474285D01*
X175414761Y-56398095D01*
X175452857Y-56360000D01*
X175529047Y-56321904D01*
X175719523Y-56321904D01*
X175833809Y-56360000D01*
X176062380Y-56321904D02*
X176519523Y-56321904D01*
X176290952Y-57121904D02*
X176290952Y-56321904D01*
X182331395Y-51261904D02*
X182788538Y-51261904D01*
X182559967Y-52061904D02*
X182559967Y-51261904D01*
X182979014Y-51261904D02*
X183512348Y-52061904D01*
X183512348Y-51261904D02*
X182979014Y-52061904D01*
X183969491Y-51261904D02*
X184045681Y-51261904D01*
X184121872Y-51300000D01*
X184159967Y-51338095D01*
X184198062Y-51414285D01*
X184236157Y-51566666D01*
X184236157Y-51757142D01*
X184198062Y-51909523D01*
X184159967Y-51985714D01*
X184121872Y-52023809D01*
X184045681Y-52061904D01*
X183969491Y-52061904D01*
X183893300Y-52023809D01*
X183855205Y-51985714D01*
X183817110Y-51909523D01*
X183779014Y-51757142D01*
X183779014Y-51566666D01*
X183817110Y-51414285D01*
X183855205Y-51338095D01*
X183893300Y-51300000D01*
X183969491Y-51261904D01*
X185150443Y-51223809D02*
X184464729Y-52252380D01*
X185417110Y-52061904D02*
X185417110Y-51261904D01*
X185607586Y-51261904D01*
X185721872Y-51300000D01*
X185798062Y-51376190D01*
X185836157Y-51452380D01*
X185874252Y-51604761D01*
X185874252Y-51719047D01*
X185836157Y-51871428D01*
X185798062Y-51947619D01*
X185721872Y-52023809D01*
X185607586Y-52061904D01*
X185417110Y-52061904D01*
X186140919Y-51261904D02*
X186636157Y-51261904D01*
X186369491Y-51566666D01*
X186483776Y-51566666D01*
X186559967Y-51604761D01*
X186598062Y-51642857D01*
X186636157Y-51719047D01*
X186636157Y-51909523D01*
X186598062Y-51985714D01*
X186559967Y-52023809D01*
X186483776Y-52061904D01*
X186255205Y-52061904D01*
X186179014Y-52023809D01*
X186140919Y-51985714D01*
X175165190Y-77042857D02*
X175279476Y-77080952D01*
X175317571Y-77119047D01*
X175355666Y-77195238D01*
X175355666Y-77309523D01*
X175317571Y-77385714D01*
X175279476Y-77423809D01*
X175203285Y-77461904D01*
X174898523Y-77461904D01*
X174898523Y-76661904D01*
X175165190Y-76661904D01*
X175241380Y-76700000D01*
X175279476Y-76738095D01*
X175317571Y-76814285D01*
X175317571Y-76890476D01*
X175279476Y-76966666D01*
X175241380Y-77004761D01*
X175165190Y-77042857D01*
X174898523Y-77042857D01*
X175660428Y-76738095D02*
X175698523Y-76700000D01*
X175774714Y-76661904D01*
X175965190Y-76661904D01*
X176041380Y-76700000D01*
X176079476Y-76738095D01*
X176117571Y-76814285D01*
X176117571Y-76890476D01*
X176079476Y-77004761D01*
X175622333Y-77461904D01*
X176117571Y-77461904D01*
X175222333Y-69422857D02*
X174955666Y-69422857D01*
X174955666Y-69841904D02*
X174955666Y-69041904D01*
X175336619Y-69041904D01*
X175565190Y-69041904D02*
X176098523Y-69041904D01*
X175755666Y-69841904D01*
X175222333Y-66882857D02*
X174955666Y-66882857D01*
X174955666Y-67301904D02*
X174955666Y-66501904D01*
X175336619Y-66501904D01*
X175984238Y-66501904D02*
X175831857Y-66501904D01*
X175755666Y-66540000D01*
X175717571Y-66578095D01*
X175641380Y-66692380D01*
X175603285Y-66844761D01*
X175603285Y-67149523D01*
X175641380Y-67225714D01*
X175679476Y-67263809D01*
X175755666Y-67301904D01*
X175908047Y-67301904D01*
X175984238Y-67263809D01*
X176022333Y-67225714D01*
X176060428Y-67149523D01*
X176060428Y-66959047D01*
X176022333Y-66882857D01*
X175984238Y-66844761D01*
X175908047Y-66806666D01*
X175755666Y-66806666D01*
X175679476Y-66844761D01*
X175641380Y-66882857D01*
X175603285Y-66959047D01*
X175222333Y-64342857D02*
X174955666Y-64342857D01*
X174955666Y-64761904D02*
X174955666Y-63961904D01*
X175336619Y-63961904D01*
X176022333Y-63961904D02*
X175641380Y-63961904D01*
X175603285Y-64342857D01*
X175641380Y-64304761D01*
X175717571Y-64266666D01*
X175908047Y-64266666D01*
X175984238Y-64304761D01*
X176022333Y-64342857D01*
X176060428Y-64419047D01*
X176060428Y-64609523D01*
X176022333Y-64685714D01*
X175984238Y-64723809D01*
X175908047Y-64761904D01*
X175717571Y-64761904D01*
X175641380Y-64723809D01*
X175603285Y-64685714D01*
X174936619Y-52061904D02*
X174669952Y-51680952D01*
X174479476Y-52061904D02*
X174479476Y-51261904D01*
X174784238Y-51261904D01*
X174860428Y-51300000D01*
X174898523Y-51338095D01*
X174936619Y-51414285D01*
X174936619Y-51528571D01*
X174898523Y-51604761D01*
X174860428Y-51642857D01*
X174784238Y-51680952D01*
X174479476Y-51680952D01*
X175241380Y-51833333D02*
X175622333Y-51833333D01*
X175165190Y-52061904D02*
X175431857Y-51261904D01*
X175698523Y-52061904D01*
X175889000Y-51261904D02*
X176079476Y-52061904D01*
X176231857Y-51490476D01*
X176384238Y-52061904D01*
X176574714Y-51261904D01*
X174879476Y-53840000D02*
X174803285Y-53801904D01*
X174689000Y-53801904D01*
X174574714Y-53840000D01*
X174498523Y-53916190D01*
X174460428Y-53992380D01*
X174422333Y-54144761D01*
X174422333Y-54259047D01*
X174460428Y-54411428D01*
X174498523Y-54487619D01*
X174574714Y-54563809D01*
X174689000Y-54601904D01*
X174765190Y-54601904D01*
X174879476Y-54563809D01*
X174917571Y-54525714D01*
X174917571Y-54259047D01*
X174765190Y-54259047D01*
X175260428Y-54601904D02*
X175260428Y-53801904D01*
X175717571Y-54601904D01*
X175717571Y-53801904D01*
X176098523Y-54601904D02*
X176098523Y-53801904D01*
X176289000Y-53801904D01*
X176403285Y-53840000D01*
X176479476Y-53916190D01*
X176517571Y-53992380D01*
X176555666Y-54144761D01*
X176555666Y-54259047D01*
X176517571Y-54411428D01*
X176479476Y-54487619D01*
X176403285Y-54563809D01*
X176289000Y-54601904D01*
X176098523Y-54601904D01*
X174422333Y-58881904D02*
X174689000Y-59681904D01*
X174955666Y-58881904D01*
X175679476Y-59605714D02*
X175641380Y-59643809D01*
X175527095Y-59681904D01*
X175450904Y-59681904D01*
X175336619Y-59643809D01*
X175260428Y-59567619D01*
X175222333Y-59491428D01*
X175184238Y-59339047D01*
X175184238Y-59224761D01*
X175222333Y-59072380D01*
X175260428Y-58996190D01*
X175336619Y-58920000D01*
X175450904Y-58881904D01*
X175527095Y-58881904D01*
X175641380Y-58920000D01*
X175679476Y-58958095D01*
X176479476Y-59605714D02*
X176441380Y-59643809D01*
X176327095Y-59681904D01*
X176250904Y-59681904D01*
X176136619Y-59643809D01*
X176060428Y-59567619D01*
X176022333Y-59491428D01*
X175984238Y-59339047D01*
X175984238Y-59224761D01*
X176022333Y-59072380D01*
X176060428Y-58996190D01*
X176136619Y-58920000D01*
X176250904Y-58881904D01*
X176327095Y-58881904D01*
X176441380Y-58920000D01*
X176479476Y-58958095D01*
X175222333Y-61802857D02*
X174955666Y-61802857D01*
X174955666Y-62221904D02*
X174955666Y-61421904D01*
X175336619Y-61421904D01*
X175984238Y-61688571D02*
X175984238Y-62221904D01*
X175793761Y-61383809D02*
X175603285Y-61955238D01*
X176098523Y-61955238D01*
X175165190Y-71962857D02*
X175279476Y-72000952D01*
X175317571Y-72039047D01*
X175355666Y-72115238D01*
X175355666Y-72229523D01*
X175317571Y-72305714D01*
X175279476Y-72343809D01*
X175203285Y-72381904D01*
X174898523Y-72381904D01*
X174898523Y-71581904D01*
X175165190Y-71581904D01*
X175241380Y-71620000D01*
X175279476Y-71658095D01*
X175317571Y-71734285D01*
X175317571Y-71810476D01*
X175279476Y-71886666D01*
X175241380Y-71924761D01*
X175165190Y-71962857D01*
X174898523Y-71962857D01*
X176117571Y-72381904D02*
X175660428Y-72381904D01*
X175889000Y-72381904D02*
X175889000Y-71581904D01*
X175812809Y-71696190D01*
X175736619Y-71772380D01*
X175660428Y-71810476D01*
X175165190Y-74502857D02*
X175279476Y-74540952D01*
X175317571Y-74579047D01*
X175355666Y-74655238D01*
X175355666Y-74769523D01*
X175317571Y-74845714D01*
X175279476Y-74883809D01*
X175203285Y-74921904D01*
X174898523Y-74921904D01*
X174898523Y-74121904D01*
X175165190Y-74121904D01*
X175241380Y-74160000D01*
X175279476Y-74198095D01*
X175317571Y-74274285D01*
X175317571Y-74350476D01*
X175279476Y-74426666D01*
X175241380Y-74464761D01*
X175165190Y-74502857D01*
X174898523Y-74502857D01*
X175622333Y-74121904D02*
X176117571Y-74121904D01*
X175850904Y-74426666D01*
X175965190Y-74426666D01*
X176041380Y-74464761D01*
X176079476Y-74502857D01*
X176117571Y-74579047D01*
X176117571Y-74769523D01*
X176079476Y-74845714D01*
X176041380Y-74883809D01*
X175965190Y-74921904D01*
X175736619Y-74921904D01*
X175660428Y-74883809D01*
X175622333Y-74845714D01*
X175165190Y-79582857D02*
X175279476Y-79620952D01*
X175317571Y-79659047D01*
X175355666Y-79735238D01*
X175355666Y-79849523D01*
X175317571Y-79925714D01*
X175279476Y-79963809D01*
X175203285Y-80001904D01*
X174898523Y-80001904D01*
X174898523Y-79201904D01*
X175165190Y-79201904D01*
X175241380Y-79240000D01*
X175279476Y-79278095D01*
X175317571Y-79354285D01*
X175317571Y-79430476D01*
X175279476Y-79506666D01*
X175241380Y-79544761D01*
X175165190Y-79582857D01*
X174898523Y-79582857D01*
X176041380Y-79201904D02*
X175889000Y-79201904D01*
X175812809Y-79240000D01*
X175774714Y-79278095D01*
X175698523Y-79392380D01*
X175660428Y-79544761D01*
X175660428Y-79849523D01*
X175698523Y-79925714D01*
X175736619Y-79963809D01*
X175812809Y-80001904D01*
X175965190Y-80001904D01*
X176041380Y-79963809D01*
X176079476Y-79925714D01*
X176117571Y-79849523D01*
X176117571Y-79659047D01*
X176079476Y-79582857D01*
X176041380Y-79544761D01*
X175965190Y-79506666D01*
X175812809Y-79506666D01*
X175736619Y-79544761D01*
X175698523Y-79582857D01*
X175660428Y-79659047D01*
X186087190Y-79582857D02*
X186201476Y-79620952D01*
X186239571Y-79659047D01*
X186277666Y-79735238D01*
X186277666Y-79849523D01*
X186239571Y-79925714D01*
X186201476Y-79963809D01*
X186125285Y-80001904D01*
X185820523Y-80001904D01*
X185820523Y-79201904D01*
X186087190Y-79201904D01*
X186163380Y-79240000D01*
X186201476Y-79278095D01*
X186239571Y-79354285D01*
X186239571Y-79430476D01*
X186201476Y-79506666D01*
X186163380Y-79544761D01*
X186087190Y-79582857D01*
X185820523Y-79582857D01*
X187001476Y-79201904D02*
X186620523Y-79201904D01*
X186582428Y-79582857D01*
X186620523Y-79544761D01*
X186696714Y-79506666D01*
X186887190Y-79506666D01*
X186963380Y-79544761D01*
X187001476Y-79582857D01*
X187039571Y-79659047D01*
X187039571Y-79849523D01*
X187001476Y-79925714D01*
X186963380Y-79963809D01*
X186887190Y-80001904D01*
X186696714Y-80001904D01*
X186620523Y-79963809D01*
X186582428Y-79925714D01*
X186087190Y-77042857D02*
X186201476Y-77080952D01*
X186239571Y-77119047D01*
X186277666Y-77195238D01*
X186277666Y-77309523D01*
X186239571Y-77385714D01*
X186201476Y-77423809D01*
X186125285Y-77461904D01*
X185820523Y-77461904D01*
X185820523Y-76661904D01*
X186087190Y-76661904D01*
X186163380Y-76700000D01*
X186201476Y-76738095D01*
X186239571Y-76814285D01*
X186239571Y-76890476D01*
X186201476Y-76966666D01*
X186163380Y-77004761D01*
X186087190Y-77042857D01*
X185820523Y-77042857D01*
X186963380Y-76928571D02*
X186963380Y-77461904D01*
X186772904Y-76623809D02*
X186582428Y-77195238D01*
X187077666Y-77195238D01*
X185858619Y-74502857D02*
X186125285Y-74502857D01*
X186239571Y-74921904D02*
X185858619Y-74921904D01*
X185858619Y-74121904D01*
X186239571Y-74121904D01*
X186925285Y-74121904D02*
X186772904Y-74121904D01*
X186696714Y-74160000D01*
X186658619Y-74198095D01*
X186582428Y-74312380D01*
X186544333Y-74464761D01*
X186544333Y-74769523D01*
X186582428Y-74845714D01*
X186620523Y-74883809D01*
X186696714Y-74921904D01*
X186849095Y-74921904D01*
X186925285Y-74883809D01*
X186963380Y-74845714D01*
X187001476Y-74769523D01*
X187001476Y-74579047D01*
X186963380Y-74502857D01*
X186925285Y-74464761D01*
X186849095Y-74426666D01*
X186696714Y-74426666D01*
X186620523Y-74464761D01*
X186582428Y-74502857D01*
X186544333Y-74579047D01*
X185820523Y-72381904D02*
X185820523Y-71581904D01*
X186011000Y-71581904D01*
X186125285Y-71620000D01*
X186201476Y-71696190D01*
X186239571Y-71772380D01*
X186277666Y-71924761D01*
X186277666Y-72039047D01*
X186239571Y-72191428D01*
X186201476Y-72267619D01*
X186125285Y-72343809D01*
X186011000Y-72381904D01*
X185820523Y-72381904D01*
X186544333Y-71581904D02*
X187077666Y-71581904D01*
X186734809Y-72381904D01*
X186277666Y-69765714D02*
X186239571Y-69803809D01*
X186125285Y-69841904D01*
X186049095Y-69841904D01*
X185934809Y-69803809D01*
X185858619Y-69727619D01*
X185820523Y-69651428D01*
X185782428Y-69499047D01*
X185782428Y-69384761D01*
X185820523Y-69232380D01*
X185858619Y-69156190D01*
X185934809Y-69080000D01*
X186049095Y-69041904D01*
X186125285Y-69041904D01*
X186239571Y-69080000D01*
X186277666Y-69118095D01*
X186963380Y-69041904D02*
X186811000Y-69041904D01*
X186734809Y-69080000D01*
X186696714Y-69118095D01*
X186620523Y-69232380D01*
X186582428Y-69384761D01*
X186582428Y-69689523D01*
X186620523Y-69765714D01*
X186658619Y-69803809D01*
X186734809Y-69841904D01*
X186887190Y-69841904D01*
X186963380Y-69803809D01*
X187001476Y-69765714D01*
X187039571Y-69689523D01*
X187039571Y-69499047D01*
X187001476Y-69422857D01*
X186963380Y-69384761D01*
X186887190Y-69346666D01*
X186734809Y-69346666D01*
X186658619Y-69384761D01*
X186620523Y-69422857D01*
X186582428Y-69499047D01*
X185820523Y-67301904D02*
X185820523Y-66501904D01*
X186011000Y-66501904D01*
X186125285Y-66540000D01*
X186201476Y-66616190D01*
X186239571Y-66692380D01*
X186277666Y-66844761D01*
X186277666Y-66959047D01*
X186239571Y-67111428D01*
X186201476Y-67187619D01*
X186125285Y-67263809D01*
X186011000Y-67301904D01*
X185820523Y-67301904D01*
X186963380Y-66768571D02*
X186963380Y-67301904D01*
X186772904Y-66463809D02*
X186582428Y-67035238D01*
X187077666Y-67035238D01*
X185801476Y-56380000D02*
X185725285Y-56341904D01*
X185611000Y-56341904D01*
X185496714Y-56380000D01*
X185420523Y-56456190D01*
X185382428Y-56532380D01*
X185344333Y-56684761D01*
X185344333Y-56799047D01*
X185382428Y-56951428D01*
X185420523Y-57027619D01*
X185496714Y-57103809D01*
X185611000Y-57141904D01*
X185687190Y-57141904D01*
X185801476Y-57103809D01*
X185839571Y-57065714D01*
X185839571Y-56799047D01*
X185687190Y-56799047D01*
X186182428Y-57141904D02*
X186182428Y-56341904D01*
X186639571Y-57141904D01*
X186639571Y-56341904D01*
X187020523Y-57141904D02*
X187020523Y-56341904D01*
X187211000Y-56341904D01*
X187325285Y-56380000D01*
X187401476Y-56456190D01*
X187439571Y-56532380D01*
X187477666Y-56684761D01*
X187477666Y-56799047D01*
X187439571Y-56951428D01*
X187401476Y-57027619D01*
X187325285Y-57103809D01*
X187211000Y-57141904D01*
X187020523Y-57141904D01*
X185801476Y-58920000D02*
X185725285Y-58881904D01*
X185611000Y-58881904D01*
X185496714Y-58920000D01*
X185420523Y-58996190D01*
X185382428Y-59072380D01*
X185344333Y-59224761D01*
X185344333Y-59339047D01*
X185382428Y-59491428D01*
X185420523Y-59567619D01*
X185496714Y-59643809D01*
X185611000Y-59681904D01*
X185687190Y-59681904D01*
X185801476Y-59643809D01*
X185839571Y-59605714D01*
X185839571Y-59339047D01*
X185687190Y-59339047D01*
X186182428Y-59681904D02*
X186182428Y-58881904D01*
X186639571Y-59681904D01*
X186639571Y-58881904D01*
X187020523Y-59681904D02*
X187020523Y-58881904D01*
X187211000Y-58881904D01*
X187325285Y-58920000D01*
X187401476Y-58996190D01*
X187439571Y-59072380D01*
X187477666Y-59224761D01*
X187477666Y-59339047D01*
X187439571Y-59491428D01*
X187401476Y-59567619D01*
X187325285Y-59643809D01*
X187211000Y-59681904D01*
X187020523Y-59681904D01*
X185820523Y-62221904D02*
X185820523Y-61421904D01*
X186011000Y-61421904D01*
X186125285Y-61460000D01*
X186201476Y-61536190D01*
X186239571Y-61612380D01*
X186277666Y-61764761D01*
X186277666Y-61879047D01*
X186239571Y-62031428D01*
X186201476Y-62107619D01*
X186125285Y-62183809D01*
X186011000Y-62221904D01*
X185820523Y-62221904D01*
X187039571Y-62221904D02*
X186582428Y-62221904D01*
X186811000Y-62221904D02*
X186811000Y-61421904D01*
X186734809Y-61536190D01*
X186658619Y-61612380D01*
X186582428Y-61650476D01*
X185820523Y-64761904D02*
X185820523Y-63961904D01*
X186011000Y-63961904D01*
X186125285Y-64000000D01*
X186201476Y-64076190D01*
X186239571Y-64152380D01*
X186277666Y-64304761D01*
X186277666Y-64419047D01*
X186239571Y-64571428D01*
X186201476Y-64647619D01*
X186125285Y-64723809D01*
X186011000Y-64761904D01*
X185820523Y-64761904D01*
X186772904Y-63961904D02*
X186849095Y-63961904D01*
X186925285Y-64000000D01*
X186963380Y-64038095D01*
X187001476Y-64114285D01*
X187039571Y-64266666D01*
X187039571Y-64457142D01*
X187001476Y-64609523D01*
X186963380Y-64685714D01*
X186925285Y-64723809D01*
X186849095Y-64761904D01*
X186772904Y-64761904D01*
X186696714Y-64723809D01*
X186658619Y-64685714D01*
X186620523Y-64609523D01*
X186582428Y-64457142D01*
X186582428Y-64266666D01*
X186620523Y-64114285D01*
X186658619Y-64038095D01*
X186696714Y-64000000D01*
X186772904Y-63961904D01*
X185820523Y-54601904D02*
X185820523Y-53801904D01*
X186011000Y-53801904D01*
X186125285Y-53840000D01*
X186201476Y-53916190D01*
X186239571Y-53992380D01*
X186277666Y-54144761D01*
X186277666Y-54259047D01*
X186239571Y-54411428D01*
X186201476Y-54487619D01*
X186125285Y-54563809D01*
X186011000Y-54601904D01*
X185820523Y-54601904D01*
X186582428Y-53878095D02*
X186620523Y-53840000D01*
X186696714Y-53801904D01*
X186887190Y-53801904D01*
X186963380Y-53840000D01*
X187001476Y-53878095D01*
X187039571Y-53954285D01*
X187039571Y-54030476D01*
X187001476Y-54144761D01*
X186544333Y-54601904D01*
X187039571Y-54601904D01*
G04 #@! TO.C,REF\002A\002A*
X143482380Y-60579047D02*
X142482380Y-60579047D01*
X142482380Y-60198095D01*
X142530000Y-60102857D01*
X142577619Y-60055238D01*
X142672857Y-60007619D01*
X142815714Y-60007619D01*
X142910952Y-60055238D01*
X142958571Y-60102857D01*
X143006190Y-60198095D01*
X143006190Y-60579047D01*
X142482380Y-59293333D02*
X143196666Y-59293333D01*
X143339523Y-59340952D01*
X143434761Y-59436190D01*
X143482380Y-59579047D01*
X143482380Y-59674285D01*
X143101428Y-58817142D02*
X143101428Y-58055238D01*
X142482380Y-57674285D02*
X142482380Y-57055238D01*
X142863333Y-57388571D01*
X142863333Y-57245714D01*
X142910952Y-57150476D01*
X142958571Y-57102857D01*
X143053809Y-57055238D01*
X143291904Y-57055238D01*
X143387142Y-57102857D01*
X143434761Y-57150476D01*
X143482380Y-57245714D01*
X143482380Y-57531428D01*
X143434761Y-57626666D01*
X143387142Y-57674285D01*
X142577619Y-56674285D02*
X142530000Y-56626666D01*
X142482380Y-56531428D01*
X142482380Y-56293333D01*
X142530000Y-56198095D01*
X142577619Y-56150476D01*
X142672857Y-56102857D01*
X142768095Y-56102857D01*
X142910952Y-56150476D01*
X143482380Y-56721904D01*
X143482380Y-56102857D01*
X142482380Y-55483809D02*
X142482380Y-55388571D01*
X142530000Y-55293333D01*
X142577619Y-55245714D01*
X142672857Y-55198095D01*
X142863333Y-55150476D01*
X143101428Y-55150476D01*
X143291904Y-55198095D01*
X143387142Y-55245714D01*
X143434761Y-55293333D01*
X143482380Y-55388571D01*
X143482380Y-55483809D01*
X143434761Y-55579047D01*
X143387142Y-55626666D01*
X143291904Y-55674285D01*
X143101428Y-55721904D01*
X142863333Y-55721904D01*
X142672857Y-55674285D01*
X142577619Y-55626666D01*
X142530000Y-55579047D01*
X142482380Y-55483809D01*
X143196666Y-54769523D02*
X143196666Y-54293333D01*
X143482380Y-54864761D02*
X142482380Y-54531428D01*
X143482380Y-54198095D01*
G04 #@! TO.C,*
G04 #@! TD*
M02*
