M48
;DRILL file {KiCad (5.0.0)} date 05/29/19 22:19:01
;FORMAT={-:-/ absolute / inch / decimal}
FMAT,2
INCH,TZ
T1C0.0157
T2C0.0315
T3C0.0354
T4C0.0390
T5C0.0430
T6C0.0472
T7C0.0579
%
G90
G05
M72
T1
X5.0016Y-4.7972
X5.7909Y-3.2039
X6.1862Y-3.2039
X6.4866Y-4.1728
X6.489Y-4.2803
X6.4941Y-3.4213
X6.5094Y-3.3028
X6.5862Y-3.2071
X6.6126Y-2.7673
X6.6142Y-2.6689
X6.6409Y-4.1811
X6.6449Y-4.2728
X6.652Y-3.4291
X6.6535Y-3.5177
X6.6988Y-3.5087
X6.7012Y-3.428
X6.7098Y-4.9295
X6.7098Y-5.0083
X6.7425Y-3.428
X6.7425Y-3.5315
X6.9402Y-3.1768
X7.2161Y-3.285
X7.2894Y-3.0039
X7.5913Y-2.4252
T2
X8.5125Y-5.1562
X8.8125Y-5.1562
X9.2625Y-2.9062
X9.5625Y-2.9062
X5.5125Y-3.2812
X5.8125Y-3.2812
X7.7812Y-4.4062
X8.0812Y-4.4062
X6.2625Y-4.9688
X6.5625Y-4.9688
X9.2625Y-3.6562
X9.5625Y-3.6562
X7.4906Y-4.6425
X7.4906Y-4.9425
X7.0125Y-3.2812
X7.3125Y-3.2812
X8.5125Y-4.4062
X8.8125Y-4.4062
X8.5125Y-3.6562
X8.8125Y-3.6562
X9.2625Y-4.4062
X9.5625Y-4.4062
X6.2625Y-4.2188
X6.5625Y-4.2188
X7.0047Y-4.7812
X7.3047Y-4.7812
X7.0125Y-4.0312
X7.3125Y-4.0312
X5.5125Y-4.7812
X5.8125Y-4.7812
X7.7625Y-3.6562
X8.0625Y-3.6562
X6.0008Y-5.0366
X6.0008Y-5.3366
X8.5125Y-2.9062
X8.8125Y-2.9062
X4.7625Y-4.7812
X5.0625Y-4.7812
X9.Y-5.4441
X9.Y-5.7441
X4.7625Y-4.0312
X5.0625Y-4.0312
X5.2382Y-5.0319
X5.2382Y-5.3319
X7.7625Y-2.9062
X8.0625Y-2.9062
X9.7492Y-5.5697
X10.009Y-5.4197
X9.1606Y-5.0031
X9.3728Y-4.791
X5.5125Y-4.0312
X5.8125Y-4.0312
X7.0125Y-2.5312
X7.3125Y-2.5312
X6.2625Y-3.4688
X6.5625Y-3.4688
X6.2354Y-2.7188
X6.5354Y-2.7188
X4.7812Y-3.2812
X5.0812Y-3.2812
T4
X7.825Y-4.2313
X7.925Y-4.2313
X5.575Y-3.1062
X5.675Y-3.1062
X4.825Y-3.8562
X4.925Y-3.8562
X4.825Y-5.3563
X4.925Y-5.3563
X7.825Y-4.9813
X7.925Y-4.9813
X8.575Y-4.2313
X8.675Y-4.2313
X7.075Y-3.8562
X7.175Y-3.8562
X8.575Y-2.7312
X8.675Y-2.7312
X6.325Y-4.0438
X6.425Y-4.0438
X4.825Y-4.6063
X4.925Y-4.6063
X7.075Y-3.1062
X7.175Y-3.1062
X6.325Y-3.2937
X6.425Y-3.2937
X9.325Y-4.2313
X9.425Y-4.2313
X4.825Y-3.1062
X4.925Y-3.1062
X9.325Y-2.7312
X9.425Y-2.7312
X6.325Y-4.7938
X6.425Y-4.7938
X9.8439Y-5.8843
X9.8939Y-5.9709
X6.325Y-2.5437
X6.425Y-2.5437
X8.575Y-5.7313
X8.675Y-5.7313
X9.3533Y-5.2586
X9.4241Y-5.3293
X5.575Y-3.8562
X5.675Y-3.8562
X8.575Y-4.9813
X8.675Y-4.9813
X7.075Y-4.6063
X7.175Y-4.6063
X8.575Y-3.4812
X8.675Y-3.4812
X7.825Y-3.4812
X7.925Y-3.4812
X5.575Y-5.3563
X5.675Y-5.3563
X7.075Y-2.3562
X7.175Y-2.3562
X7.825Y-2.7312
X7.925Y-2.7312
X9.325Y-3.4812
X9.425Y-3.4812
X5.575Y-4.6063
X5.675Y-4.6063
T5
X6.824Y-2.0354
X6.824Y-2.1354
X6.824Y-2.2354
X6.824Y-2.3354
X6.824Y-2.4354
X6.824Y-2.5354
X6.824Y-2.6354
X6.824Y-2.7354
X6.824Y-2.8354
X6.824Y-2.9354
X6.824Y-3.0354
X6.824Y-3.1354
X7.424Y-2.0354
X7.424Y-2.1354
X7.424Y-2.2354
X7.424Y-2.3354
X7.424Y-2.4354
X7.424Y-2.5354
X7.424Y-2.6354
X7.424Y-2.7354
X7.424Y-2.8354
X7.424Y-2.9354
X7.424Y-3.0354
X7.424Y-3.1354
T6
X7.125Y-2.674
X7.3219Y-2.7566
X6.375Y-2.8615
X6.5719Y-2.9441
X9.375Y-3.799
X9.5719Y-3.8816
X4.875Y-2.674
X5.0719Y-2.7566
X9.375Y-2.299
X9.5719Y-2.3816
X6.375Y-4.3615
X6.5719Y-4.4441
X10.2433Y-5.7114
X10.2701Y-5.9232
X6.375Y-2.1115
X6.5719Y-2.1941
X8.625Y-5.299
X8.8219Y-5.3816
X9.6944Y-4.9883
X9.7751Y-5.1859
X5.625Y-3.424
X5.8219Y-3.5066
X8.625Y-4.549
X8.8219Y-4.6316
X7.125Y-4.174
X7.3219Y-4.2566
X8.625Y-3.049
X8.8219Y-3.1316
X7.875Y-3.049
X8.0719Y-3.1316
X5.625Y-4.924
X5.8219Y-5.0066
X7.125Y-1.924
X7.3219Y-2.0066
X7.875Y-2.299
X8.0719Y-2.3816
X9.375Y-3.049
X9.5719Y-3.1316
X5.625Y-4.174
X5.8219Y-4.2566
X7.875Y-3.799
X8.0719Y-3.8816
X5.625Y-2.674
X5.8219Y-2.7566
X4.875Y-3.424
X5.0719Y-3.5066
X4.875Y-4.924
X5.0719Y-5.0066
X7.875Y-4.549
X8.0719Y-4.6316
X8.625Y-3.799
X8.8219Y-3.8816
X7.125Y-3.424
X7.3219Y-3.5066
X8.625Y-2.299
X8.8219Y-2.3816
X6.375Y-3.6115
X6.5719Y-3.6941
X4.875Y-4.174
X5.0719Y-4.2566
T7
X6.975Y-3.5562
X7.0266Y-3.4988
X7.2234Y-3.4791
X7.225Y-3.4562
X8.475Y-2.4312
X8.5266Y-2.3738
X8.7234Y-2.3541
X8.725Y-2.3312
X6.225Y-3.7437
X6.2766Y-3.6863
X6.4734Y-3.6666
X6.475Y-3.6437
X4.725Y-4.3062
X4.7766Y-4.2488
X4.9734Y-4.2291
X4.975Y-4.2062
X6.975Y-2.8062
X7.0266Y-2.7488
X7.2234Y-2.7291
X7.225Y-2.7062
X6.225Y-2.9937
X6.2766Y-2.9363
X6.4734Y-2.9166
X6.475Y-2.8937
X9.225Y-3.9312
X9.2766Y-3.8738
X9.4734Y-3.8541
X9.475Y-3.8312
X4.725Y-2.8062
X4.7766Y-2.7488
X4.9734Y-2.7291
X4.975Y-2.7062
X9.225Y-2.4312
X9.2766Y-2.3738
X9.4734Y-2.3541
X9.475Y-2.3312
X6.225Y-4.4937
X6.2766Y-4.4363
X6.4734Y-4.4166
X6.475Y-4.3937
X10.0537Y-5.6477
X10.1293Y-5.6636
X10.2448Y-5.8242
X10.2653Y-5.8142
X6.225Y-2.2437
X6.2766Y-2.1863
X6.4734Y-2.1666
X6.475Y-2.1437
X8.475Y-5.4312
X8.5266Y-5.3738
X8.7234Y-5.3541
X8.725Y-5.3312
X9.4948Y-4.9757
X9.5719Y-4.9716
X9.725Y-5.0968
X9.7423Y-5.0818
X5.475Y-3.5562
X5.5266Y-3.4988
X5.7234Y-3.4791
X5.725Y-3.4562
X8.475Y-4.6812
X8.5266Y-4.6238
X8.7234Y-4.6041
X8.725Y-4.5812
X6.975Y-4.3062
X7.0266Y-4.2488
X7.2234Y-4.2291
X7.225Y-4.2062
X8.475Y-3.1812
X8.5266Y-3.1238
X8.7234Y-3.1041
X8.725Y-3.0812
X7.725Y-3.1812
X7.7766Y-3.1238
X7.9734Y-3.1041
X7.975Y-3.0812
X5.475Y-5.0562
X5.5266Y-4.9988
X5.7234Y-4.9791
X5.725Y-4.9562
X6.975Y-2.0562
X7.0266Y-1.9988
X7.2234Y-1.9791
X7.225Y-1.9563
X7.725Y-2.4312
X7.7766Y-2.3738
X7.9734Y-2.3541
X7.975Y-2.3312
X9.225Y-3.1812
X9.2766Y-3.1238
X9.4734Y-3.1041
X9.475Y-3.0812
X5.475Y-4.3062
X5.5266Y-4.2488
X5.7234Y-4.2291
X5.725Y-4.2062
X7.725Y-3.9312
X7.7766Y-3.8738
X7.9734Y-3.8541
X7.975Y-3.8312
X5.475Y-2.8062
X5.5266Y-2.7488
X5.7234Y-2.7291
X5.725Y-2.7062
X4.725Y-3.5562
X4.7766Y-3.4988
X4.9734Y-3.4791
X4.975Y-3.4562
X4.725Y-5.0562
X4.7766Y-4.9988
X4.9734Y-4.9791
X4.975Y-4.9562
X7.725Y-4.6812
X7.7766Y-4.6238
X7.9734Y-4.6041
X7.975Y-4.5812
X8.475Y-3.9312
X8.5266Y-3.8738
X8.7234Y-3.8541
X8.725Y-3.8312
T3
X5.6075Y-2.4886G85X5.6075Y-2.5122
G05
X5.7886Y-2.1697G85X5.7886Y-2.1933
G05
X5.7886Y-2.2878G85X5.7886Y-2.3114
G05
X5.7886Y-2.4453G85X5.7886Y-2.4689
G05
X5.9697Y-2.4886G85X5.9697Y-2.5122
G05
T0
M30
