G04 #@! TF.GenerationSoftware,KiCad,Pcbnew,(5.0.0)*
G04 #@! TF.CreationDate,2019-05-29T22:18:10-05:00*
G04 #@! TF.ProjectId,PCB,5043422E6B696361645F706362000000,rev?*
G04 #@! TF.SameCoordinates,Original*
G04 #@! TF.FileFunction,Soldermask,Bot*
G04 #@! TF.FilePolarity,Negative*
%FSLAX46Y46*%
G04 Gerber Fmt 4.6, Leading zero omitted, Abs format (unit mm)*
G04 Created by KiCad (PCBNEW (5.0.0)) date 05/29/19 22:18:10*
%MOMM*%
%LPD*%
G01*
G04 APERTURE LIST*
%ADD10C,2.650000*%
%ADD11C,2.650000*%
%ADD12C,4.387800*%
%ADD13C,2.150000*%
%ADD14C,2.400000*%
%ADD15C,2.100000*%
%ADD16C,1.600000*%
%ADD17C,2.305000*%
%ADD18R,2.305000X2.305000*%
%ADD19R,2.000000X2.000000*%
%ADD20O,2.000000X2.000000*%
%ADD21C,2.000000*%
%ADD22C,0.100000*%
%ADD23C,2.000000*%
%ADD24C,2.152600*%
%ADD25R,2.152600X2.152600*%
%ADD26O,2.000000X2.600000*%
%ADD27C,1.900000*%
%ADD28C,2.600000*%
%ADD29R,1.900000X1.400000*%
G04 APERTURE END LIST*
D10*
G04 #@! TO.C,K3*
X164444771Y-54741234D03*
D11*
X164425000Y-55031250D02*
X164464542Y-54451218D01*
D10*
X164465000Y-54451250D03*
X158769995Y-56261246D03*
D11*
X158115000Y-56991250D02*
X159424990Y-55531242D01*
D12*
X161925000Y-59531250D03*
D10*
X159425000Y-55531250D03*
D13*
X156845000Y-59531250D03*
X167005000Y-59531250D03*
D14*
X166925000Y-55731250D03*
X161925000Y-53631250D03*
D15*
X156425000Y-59531250D03*
X167425000Y-59531250D03*
D16*
X156705000Y-63731250D03*
D17*
X160655000Y-64611250D03*
D18*
X163195000Y-64611250D03*
G04 #@! TD*
G04 #@! TO.C,K2*
X144145000Y-78898750D03*
D17*
X141605000Y-78898750D03*
D16*
X137655000Y-78018750D03*
D15*
X148375000Y-73818750D03*
X137375000Y-73818750D03*
D14*
X142875000Y-67918750D03*
X147875000Y-70018750D03*
D13*
X147955000Y-73818750D03*
X137795000Y-73818750D03*
D10*
X140375000Y-69818750D03*
D12*
X142875000Y-73818750D03*
D10*
X139719995Y-70548746D03*
D11*
X139065000Y-71278750D02*
X140374990Y-69818742D01*
D10*
X145415000Y-68738750D03*
X145394771Y-69028734D03*
D11*
X145375000Y-69318750D02*
X145414542Y-68738718D01*
G04 #@! TD*
D19*
G04 #@! TO.C,D1*
X129063750Y-83343750D03*
D20*
X121443750Y-83343750D03*
G04 #@! TD*
G04 #@! TO.C,D2*
X140017500Y-83343750D03*
D19*
X147637500Y-83343750D03*
G04 #@! TD*
G04 #@! TO.C,D3*
X165998389Y-69056250D03*
D20*
X158378389Y-69056250D03*
G04 #@! TD*
G04 #@! TO.C,D4*
X178117500Y-64293750D03*
D19*
X185737500Y-64293750D03*
G04 #@! TD*
G04 #@! TO.C,D5*
X204787500Y-73818750D03*
D20*
X197167500Y-73818750D03*
G04 #@! TD*
G04 #@! TO.C,D6*
X216217500Y-73818750D03*
D19*
X223837500Y-73818750D03*
G04 #@! TD*
G04 #@! TO.C,D7*
X242887500Y-73818750D03*
D20*
X235267500Y-73818750D03*
G04 #@! TD*
G04 #@! TO.C,D8*
X120967500Y-102393750D03*
D19*
X128587500Y-102393750D03*
G04 #@! TD*
G04 #@! TO.C,D9*
X147637500Y-102393750D03*
D20*
X140017500Y-102393750D03*
G04 #@! TD*
G04 #@! TO.C,D10*
X159067500Y-88106250D03*
D19*
X166687500Y-88106250D03*
G04 #@! TD*
G04 #@! TO.C,D11*
X185737500Y-83343750D03*
D20*
X178117500Y-83343750D03*
G04 #@! TD*
G04 #@! TO.C,D12*
X197167500Y-92868750D03*
D19*
X204787500Y-92868750D03*
G04 #@! TD*
G04 #@! TO.C,D13*
X223837500Y-92868750D03*
D20*
X216217500Y-92868750D03*
G04 #@! TD*
G04 #@! TO.C,D14*
X235267500Y-92868750D03*
D19*
X242887500Y-92868750D03*
G04 #@! TD*
G04 #@! TO.C,D15*
X128587500Y-121443750D03*
D20*
X120967500Y-121443750D03*
G04 #@! TD*
G04 #@! TO.C,D16*
X140017500Y-121443750D03*
D19*
X147637500Y-121443750D03*
G04 #@! TD*
G04 #@! TO.C,D17*
X166687500Y-107156250D03*
D20*
X159067500Y-107156250D03*
G04 #@! TD*
G04 #@! TO.C,D18*
X178117500Y-102393750D03*
D19*
X185737500Y-102393750D03*
G04 #@! TD*
G04 #@! TO.C,D19*
X205263750Y-111918750D03*
D20*
X197643750Y-111918750D03*
G04 #@! TD*
G04 #@! TO.C,D20*
X216217500Y-111918750D03*
D19*
X223837500Y-111918750D03*
G04 #@! TD*
G04 #@! TO.C,D21*
X242887500Y-111918750D03*
D20*
X235267500Y-111918750D03*
G04 #@! TD*
G04 #@! TO.C,D22*
X133050000Y-127810000D03*
D19*
X133050000Y-135430000D03*
G04 #@! TD*
G04 #@! TO.C,D23*
X152420000Y-135550000D03*
D20*
X152420000Y-127930000D03*
G04 #@! TD*
D19*
G04 #@! TO.C,D24*
X166687500Y-126206250D03*
D20*
X159067500Y-126206250D03*
G04 #@! TD*
G04 #@! TO.C,D25*
X177918390Y-121443750D03*
D19*
X185538390Y-121443750D03*
G04 #@! TD*
G04 #@! TO.C,D26*
X190260000Y-125540000D03*
D20*
X190260000Y-117920000D03*
G04 #@! TD*
G04 #@! TO.C,D27*
X216217500Y-130968750D03*
D19*
X223837500Y-130968750D03*
G04 #@! TD*
D21*
G04 #@! TO.C,D28*
X232680000Y-127080000D03*
D22*
G36*
X232680000Y-128494214D02*
X231265786Y-127080000D01*
X232680000Y-125665786D01*
X234094214Y-127080000D01*
X232680000Y-128494214D01*
X232680000Y-128494214D01*
G37*
D21*
X238068154Y-121691846D03*
D23*
X238068154Y-121691846D02*
X238068154Y-121691846D01*
G04 #@! TD*
D20*
G04 #@! TO.C,D29*
X228600000Y-138280000D03*
D19*
X228600000Y-145900000D03*
G04 #@! TD*
D21*
G04 #@! TO.C,D30*
X254229114Y-137660000D03*
D23*
X254229114Y-137660000D02*
X254229114Y-137660000D01*
D21*
X247630000Y-141470000D03*
D22*
G36*
X247263975Y-142836025D02*
X246263975Y-141103975D01*
X247996025Y-140103975D01*
X248996025Y-141836025D01*
X247263975Y-142836025D01*
X247263975Y-142836025D01*
G37*
G04 #@! TD*
D18*
G04 #@! TO.C,K1*
X125095000Y-78898750D03*
D17*
X122555000Y-78898750D03*
D16*
X118605000Y-78018750D03*
D15*
X129325000Y-73818750D03*
X118325000Y-73818750D03*
D14*
X123825000Y-67918750D03*
X128825000Y-70018750D03*
D13*
X128905000Y-73818750D03*
X118745000Y-73818750D03*
D10*
X121325000Y-69818750D03*
D12*
X123825000Y-73818750D03*
D10*
X120669995Y-70548746D03*
D11*
X120015000Y-71278750D02*
X121324990Y-69818742D01*
D10*
X126365000Y-68738750D03*
X126344771Y-69028734D03*
D11*
X126325000Y-69318750D02*
X126364542Y-68738718D01*
G04 #@! TD*
D18*
G04 #@! TO.C,K4*
X182245000Y-59848750D03*
D17*
X179705000Y-59848750D03*
D16*
X175755000Y-58968750D03*
D15*
X186475000Y-54768750D03*
X175475000Y-54768750D03*
D14*
X180975000Y-48868750D03*
X185975000Y-50968750D03*
D13*
X186055000Y-54768750D03*
X175895000Y-54768750D03*
D10*
X178475000Y-50768750D03*
D12*
X180975000Y-54768750D03*
D10*
X177819995Y-51498746D03*
D11*
X177165000Y-52228750D02*
X178474990Y-50768742D01*
D10*
X183515000Y-49688750D03*
X183494771Y-49978734D03*
D11*
X183475000Y-50268750D02*
X183514542Y-49688718D01*
G04 #@! TD*
D10*
G04 #@! TO.C,K5*
X202544771Y-59503734D03*
D11*
X202525000Y-59793750D02*
X202564542Y-59213718D01*
D10*
X202565000Y-59213750D03*
X196869995Y-61023746D03*
D11*
X196215000Y-61753750D02*
X197524990Y-60293742D01*
D12*
X200025000Y-64293750D03*
D10*
X197525000Y-60293750D03*
D13*
X194945000Y-64293750D03*
X205105000Y-64293750D03*
D14*
X205025000Y-60493750D03*
X200025000Y-58393750D03*
D15*
X194525000Y-64293750D03*
X205525000Y-64293750D03*
D16*
X194805000Y-68493750D03*
D17*
X198755000Y-69373750D03*
D18*
X201295000Y-69373750D03*
G04 #@! TD*
G04 #@! TO.C,K6*
X220345000Y-69373750D03*
D17*
X217805000Y-69373750D03*
D16*
X213855000Y-68493750D03*
D15*
X224575000Y-64293750D03*
X213575000Y-64293750D03*
D14*
X219075000Y-58393750D03*
X224075000Y-60493750D03*
D13*
X224155000Y-64293750D03*
X213995000Y-64293750D03*
D10*
X216575000Y-60293750D03*
D12*
X219075000Y-64293750D03*
D10*
X215919995Y-61023746D03*
D11*
X215265000Y-61753750D02*
X216574990Y-60293742D01*
D10*
X221615000Y-59213750D03*
X221594771Y-59503734D03*
D11*
X221575000Y-59793750D02*
X221614542Y-59213718D01*
G04 #@! TD*
D10*
G04 #@! TO.C,K7*
X240644771Y-59503734D03*
D11*
X240625000Y-59793750D02*
X240664542Y-59213718D01*
D10*
X240665000Y-59213750D03*
X234969995Y-61023746D03*
D11*
X234315000Y-61753750D02*
X235624990Y-60293742D01*
D12*
X238125000Y-64293750D03*
D10*
X235625000Y-60293750D03*
D13*
X233045000Y-64293750D03*
X243205000Y-64293750D03*
D14*
X243125000Y-60493750D03*
X238125000Y-58393750D03*
D15*
X232625000Y-64293750D03*
X243625000Y-64293750D03*
D16*
X232905000Y-68493750D03*
D17*
X236855000Y-69373750D03*
D18*
X239395000Y-69373750D03*
G04 #@! TD*
D10*
G04 #@! TO.C,K8*
X126344771Y-88078734D03*
D11*
X126325000Y-88368750D02*
X126364542Y-87788718D01*
D10*
X126365000Y-87788750D03*
X120669995Y-89598746D03*
D11*
X120015000Y-90328750D02*
X121324990Y-88868742D01*
D12*
X123825000Y-92868750D03*
D10*
X121325000Y-88868750D03*
D13*
X118745000Y-92868750D03*
X128905000Y-92868750D03*
D14*
X128825000Y-89068750D03*
X123825000Y-86968750D03*
D15*
X118325000Y-92868750D03*
X129325000Y-92868750D03*
D16*
X118605000Y-97068750D03*
D17*
X122555000Y-97948750D03*
D18*
X125095000Y-97948750D03*
G04 #@! TD*
G04 #@! TO.C,K9*
X144145000Y-97948750D03*
D17*
X141605000Y-97948750D03*
D16*
X137655000Y-97068750D03*
D15*
X148375000Y-92868750D03*
X137375000Y-92868750D03*
D14*
X142875000Y-86968750D03*
X147875000Y-89068750D03*
D13*
X147955000Y-92868750D03*
X137795000Y-92868750D03*
D10*
X140375000Y-88868750D03*
D12*
X142875000Y-92868750D03*
D10*
X139719995Y-89598746D03*
D11*
X139065000Y-90328750D02*
X140374990Y-88868742D01*
D10*
X145415000Y-87788750D03*
X145394771Y-88078734D03*
D11*
X145375000Y-88368750D02*
X145414542Y-87788718D01*
G04 #@! TD*
D10*
G04 #@! TO.C,K10*
X164444771Y-73791234D03*
D11*
X164425000Y-74081250D02*
X164464542Y-73501218D01*
D10*
X164465000Y-73501250D03*
X158769995Y-75311246D03*
D11*
X158115000Y-76041250D02*
X159424990Y-74581242D01*
D12*
X161925000Y-78581250D03*
D10*
X159425000Y-74581250D03*
D13*
X156845000Y-78581250D03*
X167005000Y-78581250D03*
D14*
X166925000Y-74781250D03*
X161925000Y-72681250D03*
D15*
X156425000Y-78581250D03*
X167425000Y-78581250D03*
D16*
X156705000Y-82781250D03*
D17*
X160655000Y-83661250D03*
D18*
X163195000Y-83661250D03*
G04 #@! TD*
G04 #@! TO.C,K11*
X182245000Y-78898750D03*
D17*
X179705000Y-78898750D03*
D16*
X175755000Y-78018750D03*
D15*
X186475000Y-73818750D03*
X175475000Y-73818750D03*
D14*
X180975000Y-67918750D03*
X185975000Y-70018750D03*
D13*
X186055000Y-73818750D03*
X175895000Y-73818750D03*
D10*
X178475000Y-69818750D03*
D12*
X180975000Y-73818750D03*
D10*
X177819995Y-70548746D03*
D11*
X177165000Y-71278750D02*
X178474990Y-69818742D01*
D10*
X183515000Y-68738750D03*
X183494771Y-69028734D03*
D11*
X183475000Y-69318750D02*
X183514542Y-68738718D01*
G04 #@! TD*
D10*
G04 #@! TO.C,K12*
X202544771Y-78553734D03*
D11*
X202525000Y-78843750D02*
X202564542Y-78263718D01*
D10*
X202565000Y-78263750D03*
X196869995Y-80073746D03*
D11*
X196215000Y-80803750D02*
X197524990Y-79343742D01*
D12*
X200025000Y-83343750D03*
D10*
X197525000Y-79343750D03*
D13*
X194945000Y-83343750D03*
X205105000Y-83343750D03*
D14*
X205025000Y-79543750D03*
X200025000Y-77443750D03*
D15*
X194525000Y-83343750D03*
X205525000Y-83343750D03*
D16*
X194805000Y-87543750D03*
D17*
X198755000Y-88423750D03*
D18*
X201295000Y-88423750D03*
G04 #@! TD*
G04 #@! TO.C,K13*
X220345000Y-88423750D03*
D17*
X217805000Y-88423750D03*
D16*
X213855000Y-87543750D03*
D15*
X224575000Y-83343750D03*
X213575000Y-83343750D03*
D14*
X219075000Y-77443750D03*
X224075000Y-79543750D03*
D13*
X224155000Y-83343750D03*
X213995000Y-83343750D03*
D10*
X216575000Y-79343750D03*
D12*
X219075000Y-83343750D03*
D10*
X215919995Y-80073746D03*
D11*
X215265000Y-80803750D02*
X216574990Y-79343742D01*
D10*
X221615000Y-78263750D03*
X221594771Y-78553734D03*
D11*
X221575000Y-78843750D02*
X221614542Y-78263718D01*
G04 #@! TD*
D10*
G04 #@! TO.C,K14*
X240644771Y-78553734D03*
D11*
X240625000Y-78843750D02*
X240664542Y-78263718D01*
D10*
X240665000Y-78263750D03*
X234969995Y-80073746D03*
D11*
X234315000Y-80803750D02*
X235624990Y-79343742D01*
D12*
X238125000Y-83343750D03*
D10*
X235625000Y-79343750D03*
D13*
X233045000Y-83343750D03*
X243205000Y-83343750D03*
D14*
X243125000Y-79543750D03*
X238125000Y-77443750D03*
D15*
X232625000Y-83343750D03*
X243625000Y-83343750D03*
D16*
X232905000Y-87543750D03*
D17*
X236855000Y-88423750D03*
D18*
X239395000Y-88423750D03*
G04 #@! TD*
G04 #@! TO.C,K15*
X125095000Y-116998750D03*
D17*
X122555000Y-116998750D03*
D16*
X118605000Y-116118750D03*
D15*
X129325000Y-111918750D03*
X118325000Y-111918750D03*
D14*
X123825000Y-106018750D03*
X128825000Y-108118750D03*
D13*
X128905000Y-111918750D03*
X118745000Y-111918750D03*
D10*
X121325000Y-107918750D03*
D12*
X123825000Y-111918750D03*
D10*
X120669995Y-108648746D03*
D11*
X120015000Y-109378750D02*
X121324990Y-107918742D01*
D10*
X126365000Y-106838750D03*
X126344771Y-107128734D03*
D11*
X126325000Y-107418750D02*
X126364542Y-106838718D01*
G04 #@! TD*
D10*
G04 #@! TO.C,K16*
X145394771Y-107128734D03*
D11*
X145375000Y-107418750D02*
X145414542Y-106838718D01*
D10*
X145415000Y-106838750D03*
X139719995Y-108648746D03*
D11*
X139065000Y-109378750D02*
X140374990Y-107918742D01*
D12*
X142875000Y-111918750D03*
D10*
X140375000Y-107918750D03*
D13*
X137795000Y-111918750D03*
X147955000Y-111918750D03*
D14*
X147875000Y-108118750D03*
X142875000Y-106018750D03*
D15*
X137375000Y-111918750D03*
X148375000Y-111918750D03*
D16*
X137655000Y-116118750D03*
D17*
X141605000Y-116998750D03*
D18*
X144145000Y-116998750D03*
G04 #@! TD*
D10*
G04 #@! TO.C,K17*
X164444771Y-92841234D03*
D11*
X164425000Y-93131250D02*
X164464542Y-92551218D01*
D10*
X164465000Y-92551250D03*
X158769995Y-94361246D03*
D11*
X158115000Y-95091250D02*
X159424990Y-93631242D01*
D12*
X161925000Y-97631250D03*
D10*
X159425000Y-93631250D03*
D13*
X156845000Y-97631250D03*
X167005000Y-97631250D03*
D14*
X166925000Y-93831250D03*
X161925000Y-91731250D03*
D15*
X156425000Y-97631250D03*
X167425000Y-97631250D03*
D16*
X156705000Y-101831250D03*
D17*
X160655000Y-102711250D03*
D18*
X163195000Y-102711250D03*
G04 #@! TD*
G04 #@! TO.C,K18*
X182245000Y-97948750D03*
D17*
X179705000Y-97948750D03*
D16*
X175755000Y-97068750D03*
D15*
X186475000Y-92868750D03*
X175475000Y-92868750D03*
D14*
X180975000Y-86968750D03*
X185975000Y-89068750D03*
D13*
X186055000Y-92868750D03*
X175895000Y-92868750D03*
D10*
X178475000Y-88868750D03*
D12*
X180975000Y-92868750D03*
D10*
X177819995Y-89598746D03*
D11*
X177165000Y-90328750D02*
X178474990Y-88868742D01*
D10*
X183515000Y-87788750D03*
X183494771Y-88078734D03*
D11*
X183475000Y-88368750D02*
X183514542Y-87788718D01*
G04 #@! TD*
D10*
G04 #@! TO.C,K19*
X202544771Y-97603734D03*
D11*
X202525000Y-97893750D02*
X202564542Y-97313718D01*
D10*
X202565000Y-97313750D03*
X196869995Y-99123746D03*
D11*
X196215000Y-99853750D02*
X197524990Y-98393742D01*
D12*
X200025000Y-102393750D03*
D10*
X197525000Y-98393750D03*
D13*
X194945000Y-102393750D03*
X205105000Y-102393750D03*
D14*
X205025000Y-98593750D03*
X200025000Y-96493750D03*
D15*
X194525000Y-102393750D03*
X205525000Y-102393750D03*
D16*
X194805000Y-106593750D03*
D17*
X198755000Y-107473750D03*
D18*
X201295000Y-107473750D03*
G04 #@! TD*
G04 #@! TO.C,K20*
X220345000Y-107473750D03*
D17*
X217805000Y-107473750D03*
D16*
X213855000Y-106593750D03*
D15*
X224575000Y-102393750D03*
X213575000Y-102393750D03*
D14*
X219075000Y-96493750D03*
X224075000Y-98593750D03*
D13*
X224155000Y-102393750D03*
X213995000Y-102393750D03*
D10*
X216575000Y-98393750D03*
D12*
X219075000Y-102393750D03*
D10*
X215919995Y-99123746D03*
D11*
X215265000Y-99853750D02*
X216574990Y-98393742D01*
D10*
X221615000Y-97313750D03*
X221594771Y-97603734D03*
D11*
X221575000Y-97893750D02*
X221614542Y-97313718D01*
G04 #@! TD*
D10*
G04 #@! TO.C,K21*
X240644771Y-97603734D03*
D11*
X240625000Y-97893750D02*
X240664542Y-97313718D01*
D10*
X240665000Y-97313750D03*
X234969995Y-99123746D03*
D11*
X234315000Y-99853750D02*
X235624990Y-98393742D01*
D12*
X238125000Y-102393750D03*
D10*
X235625000Y-98393750D03*
D13*
X233045000Y-102393750D03*
X243205000Y-102393750D03*
D14*
X243125000Y-98593750D03*
X238125000Y-96493750D03*
D15*
X232625000Y-102393750D03*
X243625000Y-102393750D03*
D16*
X232905000Y-106593750D03*
D17*
X236855000Y-107473750D03*
D18*
X239395000Y-107473750D03*
G04 #@! TD*
G04 #@! TO.C,K22*
X125095000Y-136048750D03*
D17*
X122555000Y-136048750D03*
D16*
X118605000Y-135168750D03*
D15*
X129325000Y-130968750D03*
X118325000Y-130968750D03*
D14*
X123825000Y-125068750D03*
X128825000Y-127168750D03*
D13*
X128905000Y-130968750D03*
X118745000Y-130968750D03*
D10*
X121325000Y-126968750D03*
D12*
X123825000Y-130968750D03*
D10*
X120669995Y-127698746D03*
D11*
X120015000Y-128428750D02*
X121324990Y-126968742D01*
D10*
X126365000Y-125888750D03*
X126344771Y-126178734D03*
D11*
X126325000Y-126468750D02*
X126364542Y-125888718D01*
G04 #@! TD*
D10*
G04 #@! TO.C,K23*
X145394771Y-126178734D03*
D11*
X145375000Y-126468750D02*
X145414542Y-125888718D01*
D10*
X145415000Y-125888750D03*
X139719995Y-127698746D03*
D11*
X139065000Y-128428750D02*
X140374990Y-126968742D01*
D12*
X142875000Y-130968750D03*
D10*
X140375000Y-126968750D03*
D13*
X137795000Y-130968750D03*
X147955000Y-130968750D03*
D14*
X147875000Y-127168750D03*
X142875000Y-125068750D03*
D15*
X137375000Y-130968750D03*
X148375000Y-130968750D03*
D16*
X137655000Y-135168750D03*
D17*
X141605000Y-136048750D03*
D18*
X144145000Y-136048750D03*
G04 #@! TD*
G04 #@! TO.C,K24*
X163195000Y-121761250D03*
D17*
X160655000Y-121761250D03*
D16*
X156705000Y-120881250D03*
D15*
X167425000Y-116681250D03*
X156425000Y-116681250D03*
D14*
X161925000Y-110781250D03*
X166925000Y-112881250D03*
D13*
X167005000Y-116681250D03*
X156845000Y-116681250D03*
D10*
X159425000Y-112681250D03*
D12*
X161925000Y-116681250D03*
D10*
X158769995Y-113411246D03*
D11*
X158115000Y-114141250D02*
X159424990Y-112681242D01*
D10*
X164465000Y-111601250D03*
X164444771Y-111891234D03*
D11*
X164425000Y-112181250D02*
X164464542Y-111601218D01*
G04 #@! TD*
D10*
G04 #@! TO.C,K25*
X183494771Y-107128734D03*
D11*
X183475000Y-107418750D02*
X183514542Y-106838718D01*
D10*
X183515000Y-106838750D03*
X177819995Y-108648746D03*
D11*
X177165000Y-109378750D02*
X178474990Y-107918742D01*
D12*
X180975000Y-111918750D03*
D10*
X178475000Y-107918750D03*
D13*
X175895000Y-111918750D03*
X186055000Y-111918750D03*
D14*
X185975000Y-108118750D03*
X180975000Y-106018750D03*
D15*
X175475000Y-111918750D03*
X186475000Y-111918750D03*
D16*
X175755000Y-116118750D03*
D17*
X179705000Y-116998750D03*
D18*
X182245000Y-116998750D03*
G04 #@! TD*
G04 #@! TO.C,K26*
X201295000Y-126523750D03*
D17*
X198755000Y-126523750D03*
D16*
X194805000Y-125643750D03*
D15*
X205525000Y-121443750D03*
X194525000Y-121443750D03*
D14*
X200025000Y-115543750D03*
X205025000Y-117643750D03*
D13*
X205105000Y-121443750D03*
X194945000Y-121443750D03*
D10*
X197525000Y-117443750D03*
D12*
X200025000Y-121443750D03*
D10*
X196869995Y-118173746D03*
D11*
X196215000Y-118903750D02*
X197524990Y-117443742D01*
D10*
X202565000Y-116363750D03*
X202544771Y-116653734D03*
D11*
X202525000Y-116943750D02*
X202564542Y-116363718D01*
G04 #@! TD*
D10*
G04 #@! TO.C,K27*
X221594771Y-116653734D03*
D11*
X221575000Y-116943750D02*
X221614542Y-116363718D01*
D10*
X221615000Y-116363750D03*
X215919995Y-118173746D03*
D11*
X215265000Y-118903750D02*
X216574990Y-117443742D01*
D12*
X219075000Y-121443750D03*
D10*
X216575000Y-117443750D03*
D13*
X213995000Y-121443750D03*
X224155000Y-121443750D03*
D14*
X224075000Y-117643750D03*
X219075000Y-115543750D03*
D15*
X213575000Y-121443750D03*
X224575000Y-121443750D03*
D16*
X213855000Y-125643750D03*
D17*
X217805000Y-126523750D03*
D18*
X220345000Y-126523750D03*
G04 #@! TD*
D17*
G04 #@! TO.C,K28*
X239370923Y-135363878D03*
D22*
G36*
X237741042Y-135363878D02*
X239370923Y-133733997D01*
X241000804Y-135363878D01*
X239370923Y-136993759D01*
X237741042Y-135363878D01*
X237741042Y-135363878D01*
G37*
D17*
X237574872Y-133567827D03*
D16*
X235404054Y-130152501D03*
D15*
X245954087Y-134762837D03*
X238175913Y-126984663D03*
D14*
X246236930Y-126701820D03*
X248287540Y-131722278D03*
D13*
X245657102Y-134465852D03*
X238472898Y-127281648D03*
D10*
X243125660Y-126277556D03*
D12*
X242065000Y-130873750D03*
D10*
X242146317Y-126330583D03*
D11*
X241166974Y-126383622D02*
X243125660Y-126277544D01*
D10*
X247453154Y-129077699D03*
X247233800Y-129268444D03*
D11*
X247014747Y-129459536D02*
X247452853Y-129077352D01*
G04 #@! TD*
D10*
G04 #@! TO.C,K29*
X221594771Y-135703734D03*
D11*
X221575000Y-135993750D02*
X221614542Y-135413718D01*
D10*
X221615000Y-135413750D03*
X215919995Y-137223746D03*
D11*
X215265000Y-137953750D02*
X216574990Y-136493742D01*
D12*
X219075000Y-140493750D03*
D10*
X216575000Y-136493750D03*
D13*
X213995000Y-140493750D03*
X224155000Y-140493750D03*
D14*
X224075000Y-136693750D03*
X219075000Y-134593750D03*
D15*
X213575000Y-140493750D03*
X224575000Y-140493750D03*
D16*
X213855000Y-144693750D03*
D17*
X217805000Y-145573750D03*
D18*
X220345000Y-145573750D03*
G04 #@! TD*
D17*
G04 #@! TO.C,K30*
X251305591Y-151659852D03*
D22*
G36*
X249731247Y-151238008D02*
X251727435Y-150085508D01*
X252879935Y-152081696D01*
X250883747Y-153234196D01*
X249731247Y-151238008D01*
X249731247Y-151238008D01*
G37*
D17*
X250035591Y-149460148D03*
D16*
X248822693Y-145599347D03*
D15*
X257820000Y-152783140D03*
X252320000Y-143256860D03*
D14*
X260179550Y-145070000D03*
X260860897Y-150450127D03*
D13*
X257610000Y-152419409D03*
X252530000Y-143620591D03*
D10*
X257284102Y-143854936D03*
D12*
X255070000Y-148020000D03*
D10*
X256324405Y-143652684D03*
D11*
X255364705Y-143450443D02*
X257284105Y-143854925D01*
D10*
X260739409Y-147679705D03*
X260478161Y-147807179D03*
D11*
X260217114Y-147935064D02*
X260739208Y-147679294D01*
G04 #@! TD*
D24*
G04 #@! TO.C,U1*
X173330000Y-51700000D03*
X188570000Y-79640000D03*
X173330000Y-54240000D03*
X173330000Y-56780000D03*
X173330000Y-59320000D03*
X173330000Y-61860000D03*
X173330000Y-64400000D03*
X173330000Y-66940000D03*
X173330000Y-69480000D03*
X173330000Y-72020000D03*
X173330000Y-74560000D03*
X173330000Y-77100000D03*
X173330000Y-79640000D03*
X188570000Y-77100000D03*
X188570000Y-74560000D03*
X188570000Y-72020000D03*
X188570000Y-69480000D03*
X188570000Y-66940000D03*
X188570000Y-64400000D03*
X188570000Y-61860000D03*
X188570000Y-59320000D03*
X188570000Y-56780000D03*
X188570000Y-54240000D03*
D25*
X188570000Y-51700000D03*
G04 #@! TD*
D26*
G04 #@! TO.C,REF\002A\002A*
X147030000Y-58410000D03*
D27*
X144730000Y-53810000D03*
X144730000Y-60810000D03*
D26*
X147030000Y-55410000D03*
X147030000Y-62410000D03*
X142430000Y-63510000D03*
X151630000Y-63510000D03*
D27*
X149330000Y-53810000D03*
X149330000Y-60810000D03*
G04 #@! TD*
D28*
G04 #@! TO.C,*
X152400000Y-111918750D03*
G04 #@! TD*
G04 #@! TO.C,*
X152400000Y-78581250D03*
G04 #@! TD*
G04 #@! TO.C,*
X190500000Y-102393750D03*
G04 #@! TD*
G04 #@! TO.C,*
X228600000Y-83343750D03*
G04 #@! TD*
G04 #@! TO.C,*
X228600000Y-121443750D03*
G04 #@! TD*
G04 #@! TO.C,*
X192881250Y-73818750D03*
G04 #@! TD*
D29*
G04 #@! TO.C,JP1*
X141450000Y-56690000D03*
X141450000Y-55390000D03*
G04 #@! TD*
M02*
