G04 #@! TF.GenerationSoftware,KiCad,Pcbnew,(5.0.0)*
G04 #@! TF.CreationDate,2019-05-29T22:18:10-05:00*
G04 #@! TF.ProjectId,PCB,5043422E6B696361645F706362000000,rev?*
G04 #@! TF.SameCoordinates,Original*
G04 #@! TF.FileFunction,Copper,L2,Bot,Signal*
G04 #@! TF.FilePolarity,Positive*
%FSLAX46Y46*%
G04 Gerber Fmt 4.6, Leading zero omitted, Abs format (unit mm)*
G04 Created by KiCad (PCBNEW (5.0.0)) date 05/29/19 22:18:10*
%MOMM*%
%LPD*%
G01*
G04 APERTURE LIST*
G04 #@! TA.AperFunction,ComponentPad*
%ADD10C,2.250000*%
G04 #@! TD*
G04 #@! TA.AperFunction,Conductor*
%ADD11C,2.250000*%
G04 #@! TD*
G04 #@! TA.AperFunction,ComponentPad*
%ADD12C,2.000000*%
G04 #@! TD*
G04 #@! TA.AperFunction,ComponentPad*
%ADD13C,1.905000*%
G04 #@! TD*
G04 #@! TA.AperFunction,ComponentPad*
%ADD14R,1.905000X1.905000*%
G04 #@! TD*
G04 #@! TA.AperFunction,ComponentPad*
%ADD15R,1.600000X1.600000*%
G04 #@! TD*
G04 #@! TA.AperFunction,ComponentPad*
%ADD16O,1.600000X1.600000*%
G04 #@! TD*
G04 #@! TA.AperFunction,ComponentPad*
%ADD17C,1.600000*%
G04 #@! TD*
G04 #@! TA.AperFunction,Conductor*
%ADD18C,0.100000*%
G04 #@! TD*
G04 #@! TA.AperFunction,Conductor*
%ADD19C,1.600000*%
G04 #@! TD*
G04 #@! TA.AperFunction,ComponentPad*
%ADD20C,1.752600*%
G04 #@! TD*
G04 #@! TA.AperFunction,ComponentPad*
%ADD21R,1.752600X1.752600*%
G04 #@! TD*
G04 #@! TA.AperFunction,ComponentPad*
%ADD22O,1.600000X2.200000*%
G04 #@! TD*
G04 #@! TA.AperFunction,SMDPad,CuDef*
%ADD23R,1.500000X1.000000*%
G04 #@! TD*
G04 #@! TA.AperFunction,ViaPad*
%ADD24C,0.800000*%
G04 #@! TD*
G04 #@! TA.AperFunction,Conductor*
%ADD25C,0.250000*%
G04 #@! TD*
G04 APERTURE END LIST*
D10*
G04 #@! TO.P,K3,1*
G04 #@! TO.N,Col2*
X164444771Y-54741234D03*
D11*
G04 #@! TD*
G04 #@! TO.N,Col2*
G04 #@! TO.C,K3*
X164425000Y-55031250D02*
X164464542Y-54451218D01*
D10*
G04 #@! TO.P,K3,1*
G04 #@! TO.N,Col2*
X164465000Y-54451250D03*
G04 #@! TO.P,K3,2*
G04 #@! TO.N,Net-(D3-Pad2)*
X158769995Y-56261246D03*
D11*
G04 #@! TD*
G04 #@! TO.N,Net-(D3-Pad2)*
G04 #@! TO.C,K3*
X158115000Y-56991250D02*
X159424990Y-55531242D01*
D10*
G04 #@! TO.P,K3,2*
G04 #@! TO.N,Net-(D3-Pad2)*
X159425000Y-55531250D03*
D12*
G04 #@! TO.P,K3,1*
G04 #@! TO.N,Col2*
X166925000Y-55731250D03*
G04 #@! TO.P,K3,2*
G04 #@! TO.N,Net-(D3-Pad2)*
X161925000Y-53631250D03*
D13*
G04 #@! TO.P,K3,3*
G04 #@! TO.N,N/C*
X160655000Y-64611250D03*
D14*
G04 #@! TO.P,K3,4*
X163195000Y-64611250D03*
G04 #@! TD*
G04 #@! TO.P,K2,4*
G04 #@! TO.N,N/C*
X144145000Y-78898750D03*
D13*
G04 #@! TO.P,K2,3*
X141605000Y-78898750D03*
D12*
G04 #@! TO.P,K2,2*
G04 #@! TO.N,Net-(D2-Pad2)*
X142875000Y-67918750D03*
G04 #@! TO.P,K2,1*
G04 #@! TO.N,Col1*
X147875000Y-70018750D03*
D10*
G04 #@! TO.P,K2,2*
G04 #@! TO.N,Net-(D2-Pad2)*
X140375000Y-69818750D03*
X139719995Y-70548746D03*
D11*
G04 #@! TD*
G04 #@! TO.N,Net-(D2-Pad2)*
G04 #@! TO.C,K2*
X139065000Y-71278750D02*
X140374990Y-69818742D01*
D10*
G04 #@! TO.P,K2,1*
G04 #@! TO.N,Col1*
X145415000Y-68738750D03*
X145394771Y-69028734D03*
D11*
G04 #@! TD*
G04 #@! TO.N,Col1*
G04 #@! TO.C,K2*
X145375000Y-69318750D02*
X145414542Y-68738718D01*
D15*
G04 #@! TO.P,D1,1*
G04 #@! TO.N,Row0*
X129063750Y-83343750D03*
D16*
G04 #@! TO.P,D1,2*
G04 #@! TO.N,Net-(D1-Pad2)*
X121443750Y-83343750D03*
G04 #@! TD*
G04 #@! TO.P,D2,2*
G04 #@! TO.N,Net-(D2-Pad2)*
X140017500Y-83343750D03*
D15*
G04 #@! TO.P,D2,1*
G04 #@! TO.N,Row0*
X147637500Y-83343750D03*
G04 #@! TD*
G04 #@! TO.P,D3,1*
G04 #@! TO.N,Row0*
X165998389Y-69056250D03*
D16*
G04 #@! TO.P,D3,2*
G04 #@! TO.N,Net-(D3-Pad2)*
X158378389Y-69056250D03*
G04 #@! TD*
G04 #@! TO.P,D4,2*
G04 #@! TO.N,Net-(D4-Pad2)*
X178117500Y-64293750D03*
D15*
G04 #@! TO.P,D4,1*
G04 #@! TO.N,Row0*
X185737500Y-64293750D03*
G04 #@! TD*
G04 #@! TO.P,D5,1*
G04 #@! TO.N,Row0*
X204787500Y-73818750D03*
D16*
G04 #@! TO.P,D5,2*
G04 #@! TO.N,Net-(D5-Pad2)*
X197167500Y-73818750D03*
G04 #@! TD*
G04 #@! TO.P,D6,2*
G04 #@! TO.N,Net-(D6-Pad2)*
X216217500Y-73818750D03*
D15*
G04 #@! TO.P,D6,1*
G04 #@! TO.N,Row0*
X223837500Y-73818750D03*
G04 #@! TD*
G04 #@! TO.P,D7,1*
G04 #@! TO.N,Row0*
X242887500Y-73818750D03*
D16*
G04 #@! TO.P,D7,2*
G04 #@! TO.N,Net-(D7-Pad2)*
X235267500Y-73818750D03*
G04 #@! TD*
G04 #@! TO.P,D8,2*
G04 #@! TO.N,Net-(D8-Pad2)*
X120967500Y-102393750D03*
D15*
G04 #@! TO.P,D8,1*
G04 #@! TO.N,Row1*
X128587500Y-102393750D03*
G04 #@! TD*
G04 #@! TO.P,D9,1*
G04 #@! TO.N,Row1*
X147637500Y-102393750D03*
D16*
G04 #@! TO.P,D9,2*
G04 #@! TO.N,Net-(D9-Pad2)*
X140017500Y-102393750D03*
G04 #@! TD*
G04 #@! TO.P,D10,2*
G04 #@! TO.N,Net-(D10-Pad2)*
X159067500Y-88106250D03*
D15*
G04 #@! TO.P,D10,1*
G04 #@! TO.N,Row1*
X166687500Y-88106250D03*
G04 #@! TD*
G04 #@! TO.P,D11,1*
G04 #@! TO.N,Row1*
X185737500Y-83343750D03*
D16*
G04 #@! TO.P,D11,2*
G04 #@! TO.N,Net-(D11-Pad2)*
X178117500Y-83343750D03*
G04 #@! TD*
G04 #@! TO.P,D12,2*
G04 #@! TO.N,Net-(D12-Pad2)*
X197167500Y-92868750D03*
D15*
G04 #@! TO.P,D12,1*
G04 #@! TO.N,Row1*
X204787500Y-92868750D03*
G04 #@! TD*
G04 #@! TO.P,D13,1*
G04 #@! TO.N,Row1*
X223837500Y-92868750D03*
D16*
G04 #@! TO.P,D13,2*
G04 #@! TO.N,Net-(D13-Pad2)*
X216217500Y-92868750D03*
G04 #@! TD*
G04 #@! TO.P,D14,2*
G04 #@! TO.N,Net-(D14-Pad2)*
X235267500Y-92868750D03*
D15*
G04 #@! TO.P,D14,1*
G04 #@! TO.N,Row1*
X242887500Y-92868750D03*
G04 #@! TD*
G04 #@! TO.P,D15,1*
G04 #@! TO.N,Row2*
X128587500Y-121443750D03*
D16*
G04 #@! TO.P,D15,2*
G04 #@! TO.N,Net-(D15-Pad2)*
X120967500Y-121443750D03*
G04 #@! TD*
G04 #@! TO.P,D16,2*
G04 #@! TO.N,Net-(D16-Pad2)*
X140017500Y-121443750D03*
D15*
G04 #@! TO.P,D16,1*
G04 #@! TO.N,Row2*
X147637500Y-121443750D03*
G04 #@! TD*
G04 #@! TO.P,D17,1*
G04 #@! TO.N,Row2*
X166687500Y-107156250D03*
D16*
G04 #@! TO.P,D17,2*
G04 #@! TO.N,Net-(D17-Pad2)*
X159067500Y-107156250D03*
G04 #@! TD*
G04 #@! TO.P,D18,2*
G04 #@! TO.N,Net-(D18-Pad2)*
X178117500Y-102393750D03*
D15*
G04 #@! TO.P,D18,1*
G04 #@! TO.N,Row2*
X185737500Y-102393750D03*
G04 #@! TD*
G04 #@! TO.P,D19,1*
G04 #@! TO.N,Row2*
X205263750Y-111918750D03*
D16*
G04 #@! TO.P,D19,2*
G04 #@! TO.N,Net-(D19-Pad2)*
X197643750Y-111918750D03*
G04 #@! TD*
G04 #@! TO.P,D20,2*
G04 #@! TO.N,Net-(D20-Pad2)*
X216217500Y-111918750D03*
D15*
G04 #@! TO.P,D20,1*
G04 #@! TO.N,Row2*
X223837500Y-111918750D03*
G04 #@! TD*
G04 #@! TO.P,D21,1*
G04 #@! TO.N,Row2*
X242887500Y-111918750D03*
D16*
G04 #@! TO.P,D21,2*
G04 #@! TO.N,Net-(D21-Pad2)*
X235267500Y-111918750D03*
G04 #@! TD*
G04 #@! TO.P,D22,2*
G04 #@! TO.N,Net-(D22-Pad2)*
X133050000Y-127810000D03*
D15*
G04 #@! TO.P,D22,1*
G04 #@! TO.N,Row3*
X133050000Y-135430000D03*
G04 #@! TD*
G04 #@! TO.P,D23,1*
G04 #@! TO.N,Row3*
X152420000Y-135550000D03*
D16*
G04 #@! TO.P,D23,2*
G04 #@! TO.N,Net-(D23-Pad2)*
X152420000Y-127930000D03*
G04 #@! TD*
D15*
G04 #@! TO.P,D24,1*
G04 #@! TO.N,Row3*
X166687500Y-126206250D03*
D16*
G04 #@! TO.P,D24,2*
G04 #@! TO.N,Net-(D24-Pad2)*
X159067500Y-126206250D03*
G04 #@! TD*
G04 #@! TO.P,D25,2*
G04 #@! TO.N,Net-(D25-Pad2)*
X177918390Y-121443750D03*
D15*
G04 #@! TO.P,D25,1*
G04 #@! TO.N,Row3*
X185538390Y-121443750D03*
G04 #@! TD*
G04 #@! TO.P,D26,1*
G04 #@! TO.N,Row3*
X190260000Y-125540000D03*
D16*
G04 #@! TO.P,D26,2*
G04 #@! TO.N,Net-(D26-Pad2)*
X190260000Y-117920000D03*
G04 #@! TD*
G04 #@! TO.P,D27,2*
G04 #@! TO.N,Net-(D27-Pad2)*
X216217500Y-130968750D03*
D15*
G04 #@! TO.P,D27,1*
G04 #@! TO.N,Row3*
X223837500Y-130968750D03*
G04 #@! TD*
D17*
G04 #@! TO.P,D28,1*
G04 #@! TO.N,Row3*
X232680000Y-127080000D03*
D18*
G04 #@! TD*
G04 #@! TO.N,Row3*
G04 #@! TO.C,D28*
G36*
X232680000Y-128211371D02*
X231548629Y-127080000D01*
X232680000Y-125948629D01*
X233811371Y-127080000D01*
X232680000Y-128211371D01*
X232680000Y-128211371D01*
G37*
D17*
G04 #@! TO.P,D28,2*
G04 #@! TO.N,Net-(D28-Pad2)*
X238068154Y-121691846D03*
D19*
G04 #@! TD*
G04 #@! TO.N,Net-(D28-Pad2)*
G04 #@! TO.C,D28*
X238068154Y-121691846D02*
X238068154Y-121691846D01*
D16*
G04 #@! TO.P,D29,2*
G04 #@! TO.N,Net-(D29-Pad2)*
X228600000Y-138280000D03*
D15*
G04 #@! TO.P,D29,1*
G04 #@! TO.N,Row4*
X228600000Y-145900000D03*
G04 #@! TD*
D17*
G04 #@! TO.P,D30,2*
G04 #@! TO.N,Net-(D30-Pad2)*
X254229114Y-137660000D03*
D19*
G04 #@! TD*
G04 #@! TO.N,Net-(D30-Pad2)*
G04 #@! TO.C,D30*
X254229114Y-137660000D02*
X254229114Y-137660000D01*
D17*
G04 #@! TO.P,D30,1*
G04 #@! TO.N,Row4*
X247630000Y-141470000D03*
D18*
G04 #@! TD*
G04 #@! TO.N,Row4*
G04 #@! TO.C,D30*
G36*
X247337180Y-142562820D02*
X246537180Y-141177180D01*
X247922820Y-140377180D01*
X248722820Y-141762820D01*
X247337180Y-142562820D01*
X247337180Y-142562820D01*
G37*
D14*
G04 #@! TO.P,K1,4*
G04 #@! TO.N,N/C*
X125095000Y-78898750D03*
D13*
G04 #@! TO.P,K1,3*
X122555000Y-78898750D03*
D12*
G04 #@! TO.P,K1,2*
G04 #@! TO.N,Net-(D1-Pad2)*
X123825000Y-67918750D03*
G04 #@! TO.P,K1,1*
G04 #@! TO.N,Col0*
X128825000Y-70018750D03*
D10*
G04 #@! TO.P,K1,2*
G04 #@! TO.N,Net-(D1-Pad2)*
X121325000Y-69818750D03*
X120669995Y-70548746D03*
D11*
G04 #@! TD*
G04 #@! TO.N,Net-(D1-Pad2)*
G04 #@! TO.C,K1*
X120015000Y-71278750D02*
X121324990Y-69818742D01*
D10*
G04 #@! TO.P,K1,1*
G04 #@! TO.N,Col0*
X126365000Y-68738750D03*
X126344771Y-69028734D03*
D11*
G04 #@! TD*
G04 #@! TO.N,Col0*
G04 #@! TO.C,K1*
X126325000Y-69318750D02*
X126364542Y-68738718D01*
D14*
G04 #@! TO.P,K4,4*
G04 #@! TO.N,N/C*
X182245000Y-59848750D03*
D13*
G04 #@! TO.P,K4,3*
X179705000Y-59848750D03*
D12*
G04 #@! TO.P,K4,2*
G04 #@! TO.N,Net-(D4-Pad2)*
X180975000Y-48868750D03*
G04 #@! TO.P,K4,1*
G04 #@! TO.N,Col3*
X185975000Y-50968750D03*
D10*
G04 #@! TO.P,K4,2*
G04 #@! TO.N,Net-(D4-Pad2)*
X178475000Y-50768750D03*
X177819995Y-51498746D03*
D11*
G04 #@! TD*
G04 #@! TO.N,Net-(D4-Pad2)*
G04 #@! TO.C,K4*
X177165000Y-52228750D02*
X178474990Y-50768742D01*
D10*
G04 #@! TO.P,K4,1*
G04 #@! TO.N,Col3*
X183515000Y-49688750D03*
X183494771Y-49978734D03*
D11*
G04 #@! TD*
G04 #@! TO.N,Col3*
G04 #@! TO.C,K4*
X183475000Y-50268750D02*
X183514542Y-49688718D01*
D10*
G04 #@! TO.P,K5,1*
G04 #@! TO.N,Col4*
X202544771Y-59503734D03*
D11*
G04 #@! TD*
G04 #@! TO.N,Col4*
G04 #@! TO.C,K5*
X202525000Y-59793750D02*
X202564542Y-59213718D01*
D10*
G04 #@! TO.P,K5,1*
G04 #@! TO.N,Col4*
X202565000Y-59213750D03*
G04 #@! TO.P,K5,2*
G04 #@! TO.N,Net-(D5-Pad2)*
X196869995Y-61023746D03*
D11*
G04 #@! TD*
G04 #@! TO.N,Net-(D5-Pad2)*
G04 #@! TO.C,K5*
X196215000Y-61753750D02*
X197524990Y-60293742D01*
D10*
G04 #@! TO.P,K5,2*
G04 #@! TO.N,Net-(D5-Pad2)*
X197525000Y-60293750D03*
D12*
G04 #@! TO.P,K5,1*
G04 #@! TO.N,Col4*
X205025000Y-60493750D03*
G04 #@! TO.P,K5,2*
G04 #@! TO.N,Net-(D5-Pad2)*
X200025000Y-58393750D03*
D13*
G04 #@! TO.P,K5,3*
G04 #@! TO.N,N/C*
X198755000Y-69373750D03*
D14*
G04 #@! TO.P,K5,4*
X201295000Y-69373750D03*
G04 #@! TD*
G04 #@! TO.P,K6,4*
G04 #@! TO.N,N/C*
X220345000Y-69373750D03*
D13*
G04 #@! TO.P,K6,3*
X217805000Y-69373750D03*
D12*
G04 #@! TO.P,K6,2*
G04 #@! TO.N,Net-(D6-Pad2)*
X219075000Y-58393750D03*
G04 #@! TO.P,K6,1*
G04 #@! TO.N,Col5*
X224075000Y-60493750D03*
D10*
G04 #@! TO.P,K6,2*
G04 #@! TO.N,Net-(D6-Pad2)*
X216575000Y-60293750D03*
X215919995Y-61023746D03*
D11*
G04 #@! TD*
G04 #@! TO.N,Net-(D6-Pad2)*
G04 #@! TO.C,K6*
X215265000Y-61753750D02*
X216574990Y-60293742D01*
D10*
G04 #@! TO.P,K6,1*
G04 #@! TO.N,Col5*
X221615000Y-59213750D03*
X221594771Y-59503734D03*
D11*
G04 #@! TD*
G04 #@! TO.N,Col5*
G04 #@! TO.C,K6*
X221575000Y-59793750D02*
X221614542Y-59213718D01*
D10*
G04 #@! TO.P,K7,1*
G04 #@! TO.N,Col6*
X240644771Y-59503734D03*
D11*
G04 #@! TD*
G04 #@! TO.N,Col6*
G04 #@! TO.C,K7*
X240625000Y-59793750D02*
X240664542Y-59213718D01*
D10*
G04 #@! TO.P,K7,1*
G04 #@! TO.N,Col6*
X240665000Y-59213750D03*
G04 #@! TO.P,K7,2*
G04 #@! TO.N,Net-(D7-Pad2)*
X234969995Y-61023746D03*
D11*
G04 #@! TD*
G04 #@! TO.N,Net-(D7-Pad2)*
G04 #@! TO.C,K7*
X234315000Y-61753750D02*
X235624990Y-60293742D01*
D10*
G04 #@! TO.P,K7,2*
G04 #@! TO.N,Net-(D7-Pad2)*
X235625000Y-60293750D03*
D12*
G04 #@! TO.P,K7,1*
G04 #@! TO.N,Col6*
X243125000Y-60493750D03*
G04 #@! TO.P,K7,2*
G04 #@! TO.N,Net-(D7-Pad2)*
X238125000Y-58393750D03*
D13*
G04 #@! TO.P,K7,3*
G04 #@! TO.N,N/C*
X236855000Y-69373750D03*
D14*
G04 #@! TO.P,K7,4*
X239395000Y-69373750D03*
G04 #@! TD*
D10*
G04 #@! TO.P,K8,1*
G04 #@! TO.N,Col0*
X126344771Y-88078734D03*
D11*
G04 #@! TD*
G04 #@! TO.N,Col0*
G04 #@! TO.C,K8*
X126325000Y-88368750D02*
X126364542Y-87788718D01*
D10*
G04 #@! TO.P,K8,1*
G04 #@! TO.N,Col0*
X126365000Y-87788750D03*
G04 #@! TO.P,K8,2*
G04 #@! TO.N,Net-(D8-Pad2)*
X120669995Y-89598746D03*
D11*
G04 #@! TD*
G04 #@! TO.N,Net-(D8-Pad2)*
G04 #@! TO.C,K8*
X120015000Y-90328750D02*
X121324990Y-88868742D01*
D10*
G04 #@! TO.P,K8,2*
G04 #@! TO.N,Net-(D8-Pad2)*
X121325000Y-88868750D03*
D12*
G04 #@! TO.P,K8,1*
G04 #@! TO.N,Col0*
X128825000Y-89068750D03*
G04 #@! TO.P,K8,2*
G04 #@! TO.N,Net-(D8-Pad2)*
X123825000Y-86968750D03*
D13*
G04 #@! TO.P,K8,3*
G04 #@! TO.N,N/C*
X122555000Y-97948750D03*
D14*
G04 #@! TO.P,K8,4*
X125095000Y-97948750D03*
G04 #@! TD*
G04 #@! TO.P,K9,4*
G04 #@! TO.N,N/C*
X144145000Y-97948750D03*
D13*
G04 #@! TO.P,K9,3*
X141605000Y-97948750D03*
D12*
G04 #@! TO.P,K9,2*
G04 #@! TO.N,Net-(D9-Pad2)*
X142875000Y-86968750D03*
G04 #@! TO.P,K9,1*
G04 #@! TO.N,Col1*
X147875000Y-89068750D03*
D10*
G04 #@! TO.P,K9,2*
G04 #@! TO.N,Net-(D9-Pad2)*
X140375000Y-88868750D03*
X139719995Y-89598746D03*
D11*
G04 #@! TD*
G04 #@! TO.N,Net-(D9-Pad2)*
G04 #@! TO.C,K9*
X139065000Y-90328750D02*
X140374990Y-88868742D01*
D10*
G04 #@! TO.P,K9,1*
G04 #@! TO.N,Col1*
X145415000Y-87788750D03*
X145394771Y-88078734D03*
D11*
G04 #@! TD*
G04 #@! TO.N,Col1*
G04 #@! TO.C,K9*
X145375000Y-88368750D02*
X145414542Y-87788718D01*
D10*
G04 #@! TO.P,K10,1*
G04 #@! TO.N,Col2*
X164444771Y-73791234D03*
D11*
G04 #@! TD*
G04 #@! TO.N,Col2*
G04 #@! TO.C,K10*
X164425000Y-74081250D02*
X164464542Y-73501218D01*
D10*
G04 #@! TO.P,K10,1*
G04 #@! TO.N,Col2*
X164465000Y-73501250D03*
G04 #@! TO.P,K10,2*
G04 #@! TO.N,Net-(D10-Pad2)*
X158769995Y-75311246D03*
D11*
G04 #@! TD*
G04 #@! TO.N,Net-(D10-Pad2)*
G04 #@! TO.C,K10*
X158115000Y-76041250D02*
X159424990Y-74581242D01*
D10*
G04 #@! TO.P,K10,2*
G04 #@! TO.N,Net-(D10-Pad2)*
X159425000Y-74581250D03*
D12*
G04 #@! TO.P,K10,1*
G04 #@! TO.N,Col2*
X166925000Y-74781250D03*
G04 #@! TO.P,K10,2*
G04 #@! TO.N,Net-(D10-Pad2)*
X161925000Y-72681250D03*
D13*
G04 #@! TO.P,K10,3*
G04 #@! TO.N,N/C*
X160655000Y-83661250D03*
D14*
G04 #@! TO.P,K10,4*
X163195000Y-83661250D03*
G04 #@! TD*
G04 #@! TO.P,K11,4*
G04 #@! TO.N,N/C*
X182245000Y-78898750D03*
D13*
G04 #@! TO.P,K11,3*
X179705000Y-78898750D03*
D12*
G04 #@! TO.P,K11,2*
G04 #@! TO.N,Net-(D11-Pad2)*
X180975000Y-67918750D03*
G04 #@! TO.P,K11,1*
G04 #@! TO.N,Col3*
X185975000Y-70018750D03*
D10*
G04 #@! TO.P,K11,2*
G04 #@! TO.N,Net-(D11-Pad2)*
X178475000Y-69818750D03*
X177819995Y-70548746D03*
D11*
G04 #@! TD*
G04 #@! TO.N,Net-(D11-Pad2)*
G04 #@! TO.C,K11*
X177165000Y-71278750D02*
X178474990Y-69818742D01*
D10*
G04 #@! TO.P,K11,1*
G04 #@! TO.N,Col3*
X183515000Y-68738750D03*
X183494771Y-69028734D03*
D11*
G04 #@! TD*
G04 #@! TO.N,Col3*
G04 #@! TO.C,K11*
X183475000Y-69318750D02*
X183514542Y-68738718D01*
D10*
G04 #@! TO.P,K12,1*
G04 #@! TO.N,Col4*
X202544771Y-78553734D03*
D11*
G04 #@! TD*
G04 #@! TO.N,Col4*
G04 #@! TO.C,K12*
X202525000Y-78843750D02*
X202564542Y-78263718D01*
D10*
G04 #@! TO.P,K12,1*
G04 #@! TO.N,Col4*
X202565000Y-78263750D03*
G04 #@! TO.P,K12,2*
G04 #@! TO.N,Net-(D12-Pad2)*
X196869995Y-80073746D03*
D11*
G04 #@! TD*
G04 #@! TO.N,Net-(D12-Pad2)*
G04 #@! TO.C,K12*
X196215000Y-80803750D02*
X197524990Y-79343742D01*
D10*
G04 #@! TO.P,K12,2*
G04 #@! TO.N,Net-(D12-Pad2)*
X197525000Y-79343750D03*
D12*
G04 #@! TO.P,K12,1*
G04 #@! TO.N,Col4*
X205025000Y-79543750D03*
G04 #@! TO.P,K12,2*
G04 #@! TO.N,Net-(D12-Pad2)*
X200025000Y-77443750D03*
D13*
G04 #@! TO.P,K12,3*
G04 #@! TO.N,N/C*
X198755000Y-88423750D03*
D14*
G04 #@! TO.P,K12,4*
X201295000Y-88423750D03*
G04 #@! TD*
G04 #@! TO.P,K13,4*
G04 #@! TO.N,N/C*
X220345000Y-88423750D03*
D13*
G04 #@! TO.P,K13,3*
X217805000Y-88423750D03*
D12*
G04 #@! TO.P,K13,2*
G04 #@! TO.N,Net-(D13-Pad2)*
X219075000Y-77443750D03*
G04 #@! TO.P,K13,1*
G04 #@! TO.N,Col5*
X224075000Y-79543750D03*
D10*
G04 #@! TO.P,K13,2*
G04 #@! TO.N,Net-(D13-Pad2)*
X216575000Y-79343750D03*
X215919995Y-80073746D03*
D11*
G04 #@! TD*
G04 #@! TO.N,Net-(D13-Pad2)*
G04 #@! TO.C,K13*
X215265000Y-80803750D02*
X216574990Y-79343742D01*
D10*
G04 #@! TO.P,K13,1*
G04 #@! TO.N,Col5*
X221615000Y-78263750D03*
X221594771Y-78553734D03*
D11*
G04 #@! TD*
G04 #@! TO.N,Col5*
G04 #@! TO.C,K13*
X221575000Y-78843750D02*
X221614542Y-78263718D01*
D10*
G04 #@! TO.P,K14,1*
G04 #@! TO.N,Col6*
X240644771Y-78553734D03*
D11*
G04 #@! TD*
G04 #@! TO.N,Col6*
G04 #@! TO.C,K14*
X240625000Y-78843750D02*
X240664542Y-78263718D01*
D10*
G04 #@! TO.P,K14,1*
G04 #@! TO.N,Col6*
X240665000Y-78263750D03*
G04 #@! TO.P,K14,2*
G04 #@! TO.N,Net-(D14-Pad2)*
X234969995Y-80073746D03*
D11*
G04 #@! TD*
G04 #@! TO.N,Net-(D14-Pad2)*
G04 #@! TO.C,K14*
X234315000Y-80803750D02*
X235624990Y-79343742D01*
D10*
G04 #@! TO.P,K14,2*
G04 #@! TO.N,Net-(D14-Pad2)*
X235625000Y-79343750D03*
D12*
G04 #@! TO.P,K14,1*
G04 #@! TO.N,Col6*
X243125000Y-79543750D03*
G04 #@! TO.P,K14,2*
G04 #@! TO.N,Net-(D14-Pad2)*
X238125000Y-77443750D03*
D13*
G04 #@! TO.P,K14,3*
G04 #@! TO.N,N/C*
X236855000Y-88423750D03*
D14*
G04 #@! TO.P,K14,4*
X239395000Y-88423750D03*
G04 #@! TD*
G04 #@! TO.P,K15,4*
G04 #@! TO.N,N/C*
X125095000Y-116998750D03*
D13*
G04 #@! TO.P,K15,3*
X122555000Y-116998750D03*
D12*
G04 #@! TO.P,K15,2*
G04 #@! TO.N,Net-(D15-Pad2)*
X123825000Y-106018750D03*
G04 #@! TO.P,K15,1*
G04 #@! TO.N,Col0*
X128825000Y-108118750D03*
D10*
G04 #@! TO.P,K15,2*
G04 #@! TO.N,Net-(D15-Pad2)*
X121325000Y-107918750D03*
X120669995Y-108648746D03*
D11*
G04 #@! TD*
G04 #@! TO.N,Net-(D15-Pad2)*
G04 #@! TO.C,K15*
X120015000Y-109378750D02*
X121324990Y-107918742D01*
D10*
G04 #@! TO.P,K15,1*
G04 #@! TO.N,Col0*
X126365000Y-106838750D03*
X126344771Y-107128734D03*
D11*
G04 #@! TD*
G04 #@! TO.N,Col0*
G04 #@! TO.C,K15*
X126325000Y-107418750D02*
X126364542Y-106838718D01*
D10*
G04 #@! TO.P,K16,1*
G04 #@! TO.N,Col1*
X145394771Y-107128734D03*
D11*
G04 #@! TD*
G04 #@! TO.N,Col1*
G04 #@! TO.C,K16*
X145375000Y-107418750D02*
X145414542Y-106838718D01*
D10*
G04 #@! TO.P,K16,1*
G04 #@! TO.N,Col1*
X145415000Y-106838750D03*
G04 #@! TO.P,K16,2*
G04 #@! TO.N,Net-(D16-Pad2)*
X139719995Y-108648746D03*
D11*
G04 #@! TD*
G04 #@! TO.N,Net-(D16-Pad2)*
G04 #@! TO.C,K16*
X139065000Y-109378750D02*
X140374990Y-107918742D01*
D10*
G04 #@! TO.P,K16,2*
G04 #@! TO.N,Net-(D16-Pad2)*
X140375000Y-107918750D03*
D12*
G04 #@! TO.P,K16,1*
G04 #@! TO.N,Col1*
X147875000Y-108118750D03*
G04 #@! TO.P,K16,2*
G04 #@! TO.N,Net-(D16-Pad2)*
X142875000Y-106018750D03*
D13*
G04 #@! TO.P,K16,3*
G04 #@! TO.N,N/C*
X141605000Y-116998750D03*
D14*
G04 #@! TO.P,K16,4*
X144145000Y-116998750D03*
G04 #@! TD*
D10*
G04 #@! TO.P,K17,1*
G04 #@! TO.N,Col2*
X164444771Y-92841234D03*
D11*
G04 #@! TD*
G04 #@! TO.N,Col2*
G04 #@! TO.C,K17*
X164425000Y-93131250D02*
X164464542Y-92551218D01*
D10*
G04 #@! TO.P,K17,1*
G04 #@! TO.N,Col2*
X164465000Y-92551250D03*
G04 #@! TO.P,K17,2*
G04 #@! TO.N,Net-(D17-Pad2)*
X158769995Y-94361246D03*
D11*
G04 #@! TD*
G04 #@! TO.N,Net-(D17-Pad2)*
G04 #@! TO.C,K17*
X158115000Y-95091250D02*
X159424990Y-93631242D01*
D10*
G04 #@! TO.P,K17,2*
G04 #@! TO.N,Net-(D17-Pad2)*
X159425000Y-93631250D03*
D12*
G04 #@! TO.P,K17,1*
G04 #@! TO.N,Col2*
X166925000Y-93831250D03*
G04 #@! TO.P,K17,2*
G04 #@! TO.N,Net-(D17-Pad2)*
X161925000Y-91731250D03*
D13*
G04 #@! TO.P,K17,3*
G04 #@! TO.N,N/C*
X160655000Y-102711250D03*
D14*
G04 #@! TO.P,K17,4*
X163195000Y-102711250D03*
G04 #@! TD*
G04 #@! TO.P,K18,4*
G04 #@! TO.N,N/C*
X182245000Y-97948750D03*
D13*
G04 #@! TO.P,K18,3*
X179705000Y-97948750D03*
D12*
G04 #@! TO.P,K18,2*
G04 #@! TO.N,Net-(D18-Pad2)*
X180975000Y-86968750D03*
G04 #@! TO.P,K18,1*
G04 #@! TO.N,Col3*
X185975000Y-89068750D03*
D10*
G04 #@! TO.P,K18,2*
G04 #@! TO.N,Net-(D18-Pad2)*
X178475000Y-88868750D03*
X177819995Y-89598746D03*
D11*
G04 #@! TD*
G04 #@! TO.N,Net-(D18-Pad2)*
G04 #@! TO.C,K18*
X177165000Y-90328750D02*
X178474990Y-88868742D01*
D10*
G04 #@! TO.P,K18,1*
G04 #@! TO.N,Col3*
X183515000Y-87788750D03*
X183494771Y-88078734D03*
D11*
G04 #@! TD*
G04 #@! TO.N,Col3*
G04 #@! TO.C,K18*
X183475000Y-88368750D02*
X183514542Y-87788718D01*
D10*
G04 #@! TO.P,K19,1*
G04 #@! TO.N,Col4*
X202544771Y-97603734D03*
D11*
G04 #@! TD*
G04 #@! TO.N,Col4*
G04 #@! TO.C,K19*
X202525000Y-97893750D02*
X202564542Y-97313718D01*
D10*
G04 #@! TO.P,K19,1*
G04 #@! TO.N,Col4*
X202565000Y-97313750D03*
G04 #@! TO.P,K19,2*
G04 #@! TO.N,Net-(D19-Pad2)*
X196869995Y-99123746D03*
D11*
G04 #@! TD*
G04 #@! TO.N,Net-(D19-Pad2)*
G04 #@! TO.C,K19*
X196215000Y-99853750D02*
X197524990Y-98393742D01*
D10*
G04 #@! TO.P,K19,2*
G04 #@! TO.N,Net-(D19-Pad2)*
X197525000Y-98393750D03*
D12*
G04 #@! TO.P,K19,1*
G04 #@! TO.N,Col4*
X205025000Y-98593750D03*
G04 #@! TO.P,K19,2*
G04 #@! TO.N,Net-(D19-Pad2)*
X200025000Y-96493750D03*
D13*
G04 #@! TO.P,K19,3*
G04 #@! TO.N,N/C*
X198755000Y-107473750D03*
D14*
G04 #@! TO.P,K19,4*
X201295000Y-107473750D03*
G04 #@! TD*
G04 #@! TO.P,K20,4*
G04 #@! TO.N,N/C*
X220345000Y-107473750D03*
D13*
G04 #@! TO.P,K20,3*
X217805000Y-107473750D03*
D12*
G04 #@! TO.P,K20,2*
G04 #@! TO.N,Net-(D20-Pad2)*
X219075000Y-96493750D03*
G04 #@! TO.P,K20,1*
G04 #@! TO.N,Col5*
X224075000Y-98593750D03*
D10*
G04 #@! TO.P,K20,2*
G04 #@! TO.N,Net-(D20-Pad2)*
X216575000Y-98393750D03*
X215919995Y-99123746D03*
D11*
G04 #@! TD*
G04 #@! TO.N,Net-(D20-Pad2)*
G04 #@! TO.C,K20*
X215265000Y-99853750D02*
X216574990Y-98393742D01*
D10*
G04 #@! TO.P,K20,1*
G04 #@! TO.N,Col5*
X221615000Y-97313750D03*
X221594771Y-97603734D03*
D11*
G04 #@! TD*
G04 #@! TO.N,Col5*
G04 #@! TO.C,K20*
X221575000Y-97893750D02*
X221614542Y-97313718D01*
D10*
G04 #@! TO.P,K21,1*
G04 #@! TO.N,Col6*
X240644771Y-97603734D03*
D11*
G04 #@! TD*
G04 #@! TO.N,Col6*
G04 #@! TO.C,K21*
X240625000Y-97893750D02*
X240664542Y-97313718D01*
D10*
G04 #@! TO.P,K21,1*
G04 #@! TO.N,Col6*
X240665000Y-97313750D03*
G04 #@! TO.P,K21,2*
G04 #@! TO.N,Net-(D21-Pad2)*
X234969995Y-99123746D03*
D11*
G04 #@! TD*
G04 #@! TO.N,Net-(D21-Pad2)*
G04 #@! TO.C,K21*
X234315000Y-99853750D02*
X235624990Y-98393742D01*
D10*
G04 #@! TO.P,K21,2*
G04 #@! TO.N,Net-(D21-Pad2)*
X235625000Y-98393750D03*
D12*
G04 #@! TO.P,K21,1*
G04 #@! TO.N,Col6*
X243125000Y-98593750D03*
G04 #@! TO.P,K21,2*
G04 #@! TO.N,Net-(D21-Pad2)*
X238125000Y-96493750D03*
D13*
G04 #@! TO.P,K21,3*
G04 #@! TO.N,N/C*
X236855000Y-107473750D03*
D14*
G04 #@! TO.P,K21,4*
X239395000Y-107473750D03*
G04 #@! TD*
G04 #@! TO.P,K22,4*
G04 #@! TO.N,N/C*
X125095000Y-136048750D03*
D13*
G04 #@! TO.P,K22,3*
X122555000Y-136048750D03*
D12*
G04 #@! TO.P,K22,2*
G04 #@! TO.N,Net-(D22-Pad2)*
X123825000Y-125068750D03*
G04 #@! TO.P,K22,1*
G04 #@! TO.N,Col0*
X128825000Y-127168750D03*
D10*
G04 #@! TO.P,K22,2*
G04 #@! TO.N,Net-(D22-Pad2)*
X121325000Y-126968750D03*
X120669995Y-127698746D03*
D11*
G04 #@! TD*
G04 #@! TO.N,Net-(D22-Pad2)*
G04 #@! TO.C,K22*
X120015000Y-128428750D02*
X121324990Y-126968742D01*
D10*
G04 #@! TO.P,K22,1*
G04 #@! TO.N,Col0*
X126365000Y-125888750D03*
X126344771Y-126178734D03*
D11*
G04 #@! TD*
G04 #@! TO.N,Col0*
G04 #@! TO.C,K22*
X126325000Y-126468750D02*
X126364542Y-125888718D01*
D10*
G04 #@! TO.P,K23,1*
G04 #@! TO.N,Col1*
X145394771Y-126178734D03*
D11*
G04 #@! TD*
G04 #@! TO.N,Col1*
G04 #@! TO.C,K23*
X145375000Y-126468750D02*
X145414542Y-125888718D01*
D10*
G04 #@! TO.P,K23,1*
G04 #@! TO.N,Col1*
X145415000Y-125888750D03*
G04 #@! TO.P,K23,2*
G04 #@! TO.N,Net-(D23-Pad2)*
X139719995Y-127698746D03*
D11*
G04 #@! TD*
G04 #@! TO.N,Net-(D23-Pad2)*
G04 #@! TO.C,K23*
X139065000Y-128428750D02*
X140374990Y-126968742D01*
D10*
G04 #@! TO.P,K23,2*
G04 #@! TO.N,Net-(D23-Pad2)*
X140375000Y-126968750D03*
D12*
G04 #@! TO.P,K23,1*
G04 #@! TO.N,Col1*
X147875000Y-127168750D03*
G04 #@! TO.P,K23,2*
G04 #@! TO.N,Net-(D23-Pad2)*
X142875000Y-125068750D03*
D13*
G04 #@! TO.P,K23,3*
G04 #@! TO.N,N/C*
X141605000Y-136048750D03*
D14*
G04 #@! TO.P,K23,4*
X144145000Y-136048750D03*
G04 #@! TD*
G04 #@! TO.P,K24,4*
G04 #@! TO.N,N/C*
X163195000Y-121761250D03*
D13*
G04 #@! TO.P,K24,3*
X160655000Y-121761250D03*
D12*
G04 #@! TO.P,K24,2*
G04 #@! TO.N,Net-(D24-Pad2)*
X161925000Y-110781250D03*
G04 #@! TO.P,K24,1*
G04 #@! TO.N,Col2*
X166925000Y-112881250D03*
D10*
G04 #@! TO.P,K24,2*
G04 #@! TO.N,Net-(D24-Pad2)*
X159425000Y-112681250D03*
X158769995Y-113411246D03*
D11*
G04 #@! TD*
G04 #@! TO.N,Net-(D24-Pad2)*
G04 #@! TO.C,K24*
X158115000Y-114141250D02*
X159424990Y-112681242D01*
D10*
G04 #@! TO.P,K24,1*
G04 #@! TO.N,Col2*
X164465000Y-111601250D03*
X164444771Y-111891234D03*
D11*
G04 #@! TD*
G04 #@! TO.N,Col2*
G04 #@! TO.C,K24*
X164425000Y-112181250D02*
X164464542Y-111601218D01*
D10*
G04 #@! TO.P,K25,1*
G04 #@! TO.N,Col3*
X183494771Y-107128734D03*
D11*
G04 #@! TD*
G04 #@! TO.N,Col3*
G04 #@! TO.C,K25*
X183475000Y-107418750D02*
X183514542Y-106838718D01*
D10*
G04 #@! TO.P,K25,1*
G04 #@! TO.N,Col3*
X183515000Y-106838750D03*
G04 #@! TO.P,K25,2*
G04 #@! TO.N,Net-(D25-Pad2)*
X177819995Y-108648746D03*
D11*
G04 #@! TD*
G04 #@! TO.N,Net-(D25-Pad2)*
G04 #@! TO.C,K25*
X177165000Y-109378750D02*
X178474990Y-107918742D01*
D10*
G04 #@! TO.P,K25,2*
G04 #@! TO.N,Net-(D25-Pad2)*
X178475000Y-107918750D03*
D12*
G04 #@! TO.P,K25,1*
G04 #@! TO.N,Col3*
X185975000Y-108118750D03*
G04 #@! TO.P,K25,2*
G04 #@! TO.N,Net-(D25-Pad2)*
X180975000Y-106018750D03*
D13*
G04 #@! TO.P,K25,3*
G04 #@! TO.N,N/C*
X179705000Y-116998750D03*
D14*
G04 #@! TO.P,K25,4*
X182245000Y-116998750D03*
G04 #@! TD*
G04 #@! TO.P,K26,4*
G04 #@! TO.N,N/C*
X201295000Y-126523750D03*
D13*
G04 #@! TO.P,K26,3*
X198755000Y-126523750D03*
D12*
G04 #@! TO.P,K26,2*
G04 #@! TO.N,Net-(D26-Pad2)*
X200025000Y-115543750D03*
G04 #@! TO.P,K26,1*
G04 #@! TO.N,Col4*
X205025000Y-117643750D03*
D10*
G04 #@! TO.P,K26,2*
G04 #@! TO.N,Net-(D26-Pad2)*
X197525000Y-117443750D03*
X196869995Y-118173746D03*
D11*
G04 #@! TD*
G04 #@! TO.N,Net-(D26-Pad2)*
G04 #@! TO.C,K26*
X196215000Y-118903750D02*
X197524990Y-117443742D01*
D10*
G04 #@! TO.P,K26,1*
G04 #@! TO.N,Col4*
X202565000Y-116363750D03*
X202544771Y-116653734D03*
D11*
G04 #@! TD*
G04 #@! TO.N,Col4*
G04 #@! TO.C,K26*
X202525000Y-116943750D02*
X202564542Y-116363718D01*
D10*
G04 #@! TO.P,K27,1*
G04 #@! TO.N,Col5*
X221594771Y-116653734D03*
D11*
G04 #@! TD*
G04 #@! TO.N,Col5*
G04 #@! TO.C,K27*
X221575000Y-116943750D02*
X221614542Y-116363718D01*
D10*
G04 #@! TO.P,K27,1*
G04 #@! TO.N,Col5*
X221615000Y-116363750D03*
G04 #@! TO.P,K27,2*
G04 #@! TO.N,Net-(D27-Pad2)*
X215919995Y-118173746D03*
D11*
G04 #@! TD*
G04 #@! TO.N,Net-(D27-Pad2)*
G04 #@! TO.C,K27*
X215265000Y-118903750D02*
X216574990Y-117443742D01*
D10*
G04 #@! TO.P,K27,2*
G04 #@! TO.N,Net-(D27-Pad2)*
X216575000Y-117443750D03*
D12*
G04 #@! TO.P,K27,1*
G04 #@! TO.N,Col5*
X224075000Y-117643750D03*
G04 #@! TO.P,K27,2*
G04 #@! TO.N,Net-(D27-Pad2)*
X219075000Y-115543750D03*
D13*
G04 #@! TO.P,K27,3*
G04 #@! TO.N,N/C*
X217805000Y-126523750D03*
D14*
G04 #@! TO.P,K27,4*
X220345000Y-126523750D03*
G04 #@! TD*
D13*
G04 #@! TO.P,K28,4*
G04 #@! TO.N,N/C*
X239370923Y-135363878D03*
D18*
G04 #@! TD*
G04 #@! TO.N,N/C*
G04 #@! TO.C,K28*
G36*
X238023885Y-135363878D02*
X239370923Y-134016840D01*
X240717961Y-135363878D01*
X239370923Y-136710916D01*
X238023885Y-135363878D01*
X238023885Y-135363878D01*
G37*
D13*
G04 #@! TO.P,K28,3*
G04 #@! TO.N,N/C*
X237574872Y-133567827D03*
D12*
G04 #@! TO.P,K28,2*
G04 #@! TO.N,Net-(D28-Pad2)*
X246236930Y-126701820D03*
G04 #@! TO.P,K28,1*
G04 #@! TO.N,Col6*
X248287540Y-131722278D03*
D10*
G04 #@! TO.P,K28,2*
G04 #@! TO.N,Net-(D28-Pad2)*
X243125660Y-126277556D03*
X242146317Y-126330583D03*
D11*
G04 #@! TD*
G04 #@! TO.N,Net-(D28-Pad2)*
G04 #@! TO.C,K28*
X241166974Y-126383622D02*
X243125660Y-126277544D01*
D10*
G04 #@! TO.P,K28,1*
G04 #@! TO.N,Col6*
X247453154Y-129077699D03*
X247233800Y-129268444D03*
D11*
G04 #@! TD*
G04 #@! TO.N,Col6*
G04 #@! TO.C,K28*
X247014747Y-129459536D02*
X247452853Y-129077352D01*
D10*
G04 #@! TO.P,K29,1*
G04 #@! TO.N,Col5*
X221594771Y-135703734D03*
D11*
G04 #@! TD*
G04 #@! TO.N,Col5*
G04 #@! TO.C,K29*
X221575000Y-135993750D02*
X221614542Y-135413718D01*
D10*
G04 #@! TO.P,K29,1*
G04 #@! TO.N,Col5*
X221615000Y-135413750D03*
G04 #@! TO.P,K29,2*
G04 #@! TO.N,Net-(D29-Pad2)*
X215919995Y-137223746D03*
D11*
G04 #@! TD*
G04 #@! TO.N,Net-(D29-Pad2)*
G04 #@! TO.C,K29*
X215265000Y-137953750D02*
X216574990Y-136493742D01*
D10*
G04 #@! TO.P,K29,2*
G04 #@! TO.N,Net-(D29-Pad2)*
X216575000Y-136493750D03*
D12*
G04 #@! TO.P,K29,1*
G04 #@! TO.N,Col5*
X224075000Y-136693750D03*
G04 #@! TO.P,K29,2*
G04 #@! TO.N,Net-(D29-Pad2)*
X219075000Y-134593750D03*
D13*
G04 #@! TO.P,K29,3*
G04 #@! TO.N,N/C*
X217805000Y-145573750D03*
D14*
G04 #@! TO.P,K29,4*
X220345000Y-145573750D03*
G04 #@! TD*
D13*
G04 #@! TO.P,K30,4*
G04 #@! TO.N,N/C*
X251305591Y-151659852D03*
D18*
G04 #@! TD*
G04 #@! TO.N,N/C*
G04 #@! TO.C,K30*
G36*
X250004452Y-151311213D02*
X251654230Y-150358713D01*
X252606730Y-152008491D01*
X250956952Y-152960991D01*
X250004452Y-151311213D01*
X250004452Y-151311213D01*
G37*
D13*
G04 #@! TO.P,K30,3*
G04 #@! TO.N,N/C*
X250035591Y-149460148D03*
D12*
G04 #@! TO.P,K30,2*
G04 #@! TO.N,Net-(D30-Pad2)*
X260179550Y-145070000D03*
G04 #@! TO.P,K30,1*
G04 #@! TO.N,Col6*
X260860897Y-150450127D03*
D10*
G04 #@! TO.P,K30,2*
G04 #@! TO.N,Net-(D30-Pad2)*
X257284102Y-143854936D03*
X256324405Y-143652684D03*
D11*
G04 #@! TD*
G04 #@! TO.N,Net-(D30-Pad2)*
G04 #@! TO.C,K30*
X255364705Y-143450443D02*
X257284105Y-143854925D01*
D10*
G04 #@! TO.P,K30,1*
G04 #@! TO.N,Col6*
X260739409Y-147679705D03*
X260478161Y-147807179D03*
D11*
G04 #@! TD*
G04 #@! TO.N,Col6*
G04 #@! TO.C,K30*
X260217114Y-147935064D02*
X260739208Y-147679294D01*
D20*
G04 #@! TO.P,U1,24*
G04 #@! TO.N,Breakout*
X173330000Y-51700000D03*
G04 #@! TO.P,U1,12*
G04 #@! TO.N,Row1*
X188570000Y-79640000D03*
G04 #@! TO.P,U1,23*
G04 #@! TO.N,RGBGnd*
X173330000Y-54240000D03*
G04 #@! TO.P,U1,22*
G04 #@! TO.N,Breakout*
X173330000Y-56780000D03*
G04 #@! TO.P,U1,21*
G04 #@! TO.N,CommVCCandRGBVCC*
X173330000Y-59320000D03*
G04 #@! TO.P,U1,20*
G04 #@! TO.N,Row3*
X173330000Y-61860000D03*
G04 #@! TO.P,U1,19*
G04 #@! TO.N,Row0*
X173330000Y-64400000D03*
G04 #@! TO.P,U1,18*
G04 #@! TO.N,Col5*
X173330000Y-66940000D03*
G04 #@! TO.P,U1,17*
G04 #@! TO.N,Col2*
X173330000Y-69480000D03*
G04 #@! TO.P,U1,16*
G04 #@! TO.N,Row2*
X173330000Y-72020000D03*
G04 #@! TO.P,U1,15*
G04 #@! TO.N,Row4*
X173330000Y-74560000D03*
G04 #@! TO.P,U1,14*
G04 #@! TO.N,Breakout*
X173330000Y-77100000D03*
G04 #@! TO.P,U1,13*
X173330000Y-79640000D03*
G04 #@! TO.P,U1,11*
G04 #@! TO.N,Col4*
X188570000Y-77100000D03*
G04 #@! TO.P,U1,10*
G04 #@! TO.N,Col1*
X188570000Y-74560000D03*
G04 #@! TO.P,U1,9*
G04 #@! TO.N,Col0*
X188570000Y-72020000D03*
G04 #@! TO.P,U1,8*
G04 #@! TO.N,RGB*
X188570000Y-69480000D03*
G04 #@! TO.P,U1,7*
G04 #@! TO.N,Col3*
X188570000Y-66940000D03*
G04 #@! TO.P,U1,6*
G04 #@! TO.N,Col6*
X188570000Y-64400000D03*
G04 #@! TO.P,U1,5*
G04 #@! TO.N,Comm*
X188570000Y-61860000D03*
G04 #@! TO.P,U1,4*
G04 #@! TO.N,CommGnd*
X188570000Y-59320000D03*
G04 #@! TO.P,U1,3*
G04 #@! TO.N,Breakout*
X188570000Y-56780000D03*
G04 #@! TO.P,U1,2*
X188570000Y-54240000D03*
D21*
G04 #@! TO.P,U1,1*
X188570000Y-51700000D03*
G04 #@! TD*
D22*
G04 #@! TO.P,REF\002A\002A,3*
G04 #@! TO.N,RGBTRRS*
X147030000Y-58410000D03*
G04 #@! TO.P,REF\002A\002A,4*
G04 #@! TO.N,CommGnd*
X147030000Y-55410000D03*
G04 #@! TO.P,REF\002A\002A,2*
G04 #@! TO.N,Comm*
X147030000Y-62410000D03*
G04 #@! TO.P,REF\002A\002A,1*
G04 #@! TO.N,N/C*
X142430000Y-63510000D03*
G04 #@! TO.N,CommVCCandRGBVCC*
X151630000Y-63510000D03*
G04 #@! TD*
D23*
G04 #@! TO.P,JP1,2*
G04 #@! TO.N,RGBTRRS*
X141450000Y-56690000D03*
G04 #@! TO.P,JP1,1*
G04 #@! TO.N,RGB*
X141450000Y-55390000D03*
G04 #@! TD*
D24*
G04 #@! TO.N,Row2*
X170210000Y-87070000D03*
X170150000Y-89120000D03*
G04 #@! TO.N,Row3*
X168960000Y-87100000D03*
X169000000Y-89350000D03*
X164760000Y-105990000D03*
X164820000Y-108720000D03*
X168000000Y-67790000D03*
X167960000Y-70290000D03*
G04 #@! TO.N,Row4*
X171260000Y-87070000D03*
X171260000Y-89700000D03*
X168680000Y-106200000D03*
X170430000Y-125210000D03*
X170430000Y-127210000D03*
X168780000Y-108530000D03*
G04 #@! TO.N,Col0*
X127040000Y-121850000D03*
X157130000Y-81380000D03*
X167290000Y-81460000D03*
X176280000Y-80690000D03*
X147090000Y-81380000D03*
G04 #@! TO.N,Col2*
X165340000Y-83890000D03*
X164950000Y-86900000D03*
G04 #@! TO.N,Col3*
X185150000Y-76300000D03*
X183290000Y-83440000D03*
G04 #@! TO.N,RGB*
X192820000Y-61600000D03*
G04 #@! TD*
D25*
G04 #@! TO.N,Row0*
X129063750Y-84393750D02*
X129063750Y-83343750D01*
X129370000Y-84700000D02*
X129063750Y-84393750D01*
X147331250Y-84700000D02*
X129370000Y-84700000D01*
X147637500Y-84393750D02*
X147331250Y-84700000D01*
X147637500Y-83343750D02*
X147637500Y-84393750D01*
X147637500Y-82293750D02*
X148670000Y-81261250D01*
X147637500Y-83343750D02*
X147637500Y-82293750D01*
X148670000Y-81261250D02*
X148670000Y-79050000D01*
X148670000Y-79050000D02*
X156140000Y-71580000D01*
X156140000Y-71580000D02*
X159490000Y-71580000D01*
X162013750Y-69056250D02*
X165998389Y-69056250D01*
X159490000Y-71580000D02*
X162013750Y-69056250D01*
X168673750Y-69056250D02*
X173330000Y-64400000D01*
X165998389Y-69056250D02*
X168673750Y-69056250D01*
X174206299Y-63523701D02*
X175236299Y-63523701D01*
X173330000Y-64400000D02*
X174206299Y-63523701D01*
X175236299Y-63523701D02*
X176460000Y-62300000D01*
X176460000Y-62300000D02*
X180010000Y-62300000D01*
X182003750Y-64293750D02*
X185737500Y-64293750D01*
X180010000Y-62300000D02*
X182003750Y-64293750D01*
X219021250Y-73818750D02*
X223837500Y-73818750D01*
X216550000Y-76290000D02*
X219021250Y-73818750D01*
X206208750Y-76290000D02*
X216550000Y-76290000D01*
X204787500Y-73818750D02*
X204787500Y-74868750D01*
X204787500Y-74868750D02*
X206208750Y-76290000D01*
X223837500Y-74868750D02*
X224640000Y-75671250D01*
X223837500Y-73818750D02*
X223837500Y-74868750D01*
X224640000Y-75671250D02*
X236808750Y-75671250D01*
X238661250Y-73818750D02*
X242887500Y-73818750D01*
X236808750Y-75671250D02*
X238661250Y-73818750D01*
X203737500Y-73818750D02*
X204787500Y-73818750D01*
X202058750Y-72140000D02*
X203737500Y-73818750D01*
X195570000Y-72140000D02*
X202058750Y-72140000D01*
X185737500Y-63243750D02*
X185841250Y-63140000D01*
X185841250Y-63140000D02*
X190480000Y-63140000D01*
X190480000Y-63140000D02*
X191000000Y-63660000D01*
X185737500Y-64293750D02*
X185737500Y-63243750D01*
X191000000Y-63660000D02*
X191000000Y-67570000D01*
X191000000Y-67570000D02*
X195570000Y-72140000D01*
G04 #@! TO.N,Row1*
X241837500Y-92868750D02*
X240096250Y-94610000D01*
X242887500Y-92868750D02*
X241837500Y-92868750D01*
X224887500Y-92868750D02*
X223837500Y-92868750D01*
X226628750Y-94610000D02*
X224887500Y-92868750D01*
X240096250Y-94610000D02*
X226628750Y-94610000D01*
X222787500Y-92868750D02*
X221346250Y-94310000D01*
X223837500Y-92868750D02*
X222787500Y-92868750D01*
X205837500Y-92868750D02*
X204787500Y-92868750D01*
X207278750Y-94310000D02*
X205837500Y-92868750D01*
X221346250Y-94310000D02*
X207278750Y-94310000D01*
X203737500Y-92868750D02*
X201498750Y-90630000D01*
X204787500Y-92868750D02*
X203737500Y-92868750D01*
X186787500Y-83343750D02*
X185737500Y-83343750D01*
X194073750Y-90630000D02*
X186787500Y-83343750D01*
X201498750Y-90630000D02*
X194073750Y-90630000D01*
X188391250Y-79640000D02*
X188570000Y-79640000D01*
X185737500Y-82293750D02*
X188391250Y-79640000D01*
X185737500Y-83343750D02*
X185737500Y-82293750D01*
X184687500Y-83343750D02*
X183381250Y-84650000D01*
X185737500Y-83343750D02*
X184687500Y-83343750D01*
X183381250Y-84650000D02*
X179940000Y-84650000D01*
X176483750Y-88106250D02*
X166687500Y-88106250D01*
X179940000Y-84650000D02*
X176483750Y-88106250D01*
X147637500Y-101343750D02*
X147637500Y-102393750D01*
X159771250Y-89210000D02*
X147637500Y-101343750D01*
X162485248Y-89210000D02*
X159771250Y-89210000D01*
X163588998Y-88106250D02*
X162485248Y-89210000D01*
X166687500Y-88106250D02*
X163588998Y-88106250D01*
X144538998Y-102393750D02*
X142942748Y-103990000D01*
X147637500Y-102393750D02*
X144538998Y-102393750D01*
X129637500Y-102393750D02*
X128587500Y-102393750D01*
X131233750Y-103990000D02*
X129637500Y-102393750D01*
X142942748Y-103990000D02*
X131233750Y-103990000D01*
G04 #@! TO.N,Row2*
X129637500Y-121443750D02*
X131613750Y-123420000D01*
X128587500Y-121443750D02*
X129637500Y-121443750D01*
X146587500Y-121443750D02*
X147637500Y-121443750D01*
X144611250Y-123420000D02*
X146587500Y-121443750D01*
X131613750Y-123420000D02*
X144611250Y-123420000D01*
X147637500Y-120393750D02*
X158320000Y-109711250D01*
X147637500Y-121443750D02*
X147637500Y-120393750D01*
X158320000Y-109711250D02*
X159528750Y-109711250D01*
X162083750Y-107156250D02*
X166687500Y-107156250D01*
X159528750Y-109711250D02*
X162083750Y-107156250D01*
X166687500Y-107156250D02*
X175733750Y-107156250D01*
X180496250Y-102393750D02*
X185737500Y-102393750D01*
X175733750Y-107156250D02*
X180496250Y-102393750D01*
X185737500Y-103443750D02*
X191573750Y-109280000D01*
X185737500Y-102393750D02*
X185737500Y-103443750D01*
X191573750Y-109280000D02*
X197310000Y-109280000D01*
X199948750Y-111918750D02*
X205263750Y-111918750D01*
X197310000Y-109280000D02*
X199948750Y-111918750D01*
X206313750Y-111918750D02*
X208462500Y-109770000D01*
X205263750Y-111918750D02*
X206313750Y-111918750D01*
X222787500Y-111918750D02*
X223837500Y-111918750D01*
X220638750Y-109770000D02*
X222787500Y-111918750D01*
X208462500Y-109770000D02*
X220638750Y-109770000D01*
X224887500Y-111918750D02*
X227178750Y-114210000D01*
X223837500Y-111918750D02*
X224887500Y-111918750D01*
X241837500Y-111918750D02*
X242887500Y-111918750D01*
X239546250Y-114210000D02*
X241837500Y-111918750D01*
X227178750Y-114210000D02*
X239546250Y-114210000D01*
X166687500Y-106106250D02*
X166687500Y-107156250D01*
X170210000Y-86504315D02*
X170210000Y-87070000D01*
X170270000Y-86444315D02*
X170210000Y-86504315D01*
X170270000Y-72540000D02*
X170270000Y-86444315D01*
X173330000Y-72020000D02*
X170790000Y-72020000D01*
X170790000Y-72020000D02*
X170270000Y-72540000D01*
X170150000Y-89685685D02*
X169340000Y-90495685D01*
X170150000Y-89120000D02*
X170150000Y-89685685D01*
X169340000Y-90495685D02*
X169340000Y-102370000D01*
X166687500Y-105022500D02*
X166687500Y-107156250D01*
X169340000Y-102370000D02*
X166687500Y-105022500D01*
G04 #@! TO.N,Row3*
X133050000Y-136480000D02*
X134890000Y-138320000D01*
X133050000Y-135430000D02*
X133050000Y-136480000D01*
X151370000Y-135550000D02*
X152420000Y-135550000D01*
X148600000Y-138320000D02*
X151370000Y-135550000D01*
X134890000Y-138320000D02*
X148600000Y-138320000D01*
X153470000Y-135550000D02*
X152420000Y-135550000D01*
X158393750Y-135550000D02*
X153470000Y-135550000D01*
X166687500Y-127256250D02*
X158393750Y-135550000D01*
X166687500Y-126206250D02*
X166687500Y-127256250D01*
X185538390Y-122493750D02*
X185538390Y-121443750D01*
X181825890Y-126206250D02*
X185538390Y-122493750D01*
X166687500Y-126206250D02*
X181825890Y-126206250D01*
X186588390Y-121443750D02*
X185538390Y-121443750D01*
X187213750Y-121443750D02*
X186588390Y-121443750D01*
X190260000Y-124490000D02*
X187213750Y-121443750D01*
X190260000Y-125540000D02*
X190260000Y-124490000D01*
X191310000Y-125540000D02*
X195620000Y-129850000D01*
X190260000Y-125540000D02*
X191310000Y-125540000D01*
X195626251Y-129843749D02*
X211453749Y-129843749D01*
X195620000Y-129850000D02*
X195626251Y-129843749D01*
X211453749Y-129843749D02*
X212627498Y-128670000D01*
X222787500Y-130968750D02*
X223837500Y-130968750D01*
X220488750Y-128670000D02*
X222787500Y-130968750D01*
X212627498Y-128670000D02*
X220488750Y-128670000D01*
X228791250Y-130968750D02*
X223837500Y-130968750D01*
X232680000Y-127080000D02*
X228791250Y-130968750D01*
X168960000Y-87100000D02*
X168960000Y-87100000D01*
X168600001Y-89749999D02*
X168600001Y-102149999D01*
X169000000Y-89350000D02*
X168600001Y-89749999D01*
X168600001Y-102149999D02*
X164760000Y-105990000D01*
X164760000Y-105990000D02*
X164760000Y-105990000D01*
X164820000Y-108720000D02*
X166790000Y-108720000D01*
X166790000Y-108720000D02*
X169770000Y-111700000D01*
X166687500Y-125156250D02*
X166687500Y-126206250D01*
X169770000Y-122073750D02*
X166687500Y-125156250D01*
X169770000Y-111700000D02*
X169770000Y-122073750D01*
X168000000Y-67790000D02*
X168050000Y-67030000D01*
X168050000Y-67030000D02*
X172343701Y-62736299D01*
X172343701Y-62736299D02*
X172453701Y-62736299D01*
X172453701Y-62736299D02*
X173330000Y-61860000D01*
X168960000Y-73880000D02*
X168960000Y-87100000D01*
X168170000Y-73090000D02*
X168960000Y-73880000D01*
X168170000Y-71065685D02*
X168170000Y-73090000D01*
X167960000Y-70855685D02*
X168170000Y-71065685D01*
X167960000Y-70290000D02*
X167960000Y-70855685D01*
G04 #@! TO.N,Row4*
X243200000Y-145900000D02*
X247630000Y-141470000D01*
X228600000Y-145900000D02*
X243200000Y-145900000D01*
X170740000Y-77150000D02*
X173330000Y-74560000D01*
X170740000Y-86060000D02*
X170740000Y-77150000D01*
X171260000Y-87070000D02*
X170740000Y-86060000D01*
X171260000Y-90265685D02*
X169950000Y-91575685D01*
X171260000Y-89700000D02*
X171260000Y-90265685D01*
X169950000Y-91575685D02*
X169950000Y-104930000D01*
X169950000Y-104930000D02*
X168680000Y-106200000D01*
X168680000Y-106200000D02*
X168680000Y-106200000D01*
X170430000Y-125210000D02*
X170430000Y-125210000D01*
X229650000Y-145900000D02*
X228600000Y-145900000D01*
X231340000Y-137230000D02*
X231340000Y-144210000D01*
X226800000Y-132690000D02*
X231340000Y-137230000D01*
X170829999Y-127609999D02*
X191519999Y-127609999D01*
X170430000Y-127210000D02*
X170829999Y-127609999D01*
X191519999Y-127609999D02*
X196350000Y-132440000D01*
X231340000Y-144210000D02*
X229650000Y-145900000D01*
X196350000Y-132440000D02*
X208490000Y-132440000D01*
X208490000Y-132440000D02*
X208740000Y-132690000D01*
X208740000Y-132690000D02*
X226800000Y-132690000D01*
X170430000Y-118720000D02*
X170430000Y-125210000D01*
X170430000Y-109630000D02*
X170430000Y-118720000D01*
X168780000Y-108530000D02*
X170430000Y-109630000D01*
G04 #@! TO.N,Col0*
X127040000Y-125213750D02*
X126365000Y-125888750D01*
X127040000Y-121850000D02*
X127040000Y-125213750D01*
X157695685Y-81380000D02*
X157775685Y-81460000D01*
X157130000Y-81380000D02*
X157695685Y-81380000D01*
X157775685Y-81460000D02*
X167290000Y-81460000D01*
X167290000Y-81460000D02*
X167290000Y-81460000D01*
X184060000Y-73360000D02*
X185400000Y-72020000D01*
X184060000Y-76350000D02*
X184060000Y-73360000D01*
X183950000Y-76460000D02*
X184060000Y-76350000D01*
X176679999Y-80290001D02*
X176679999Y-78910001D01*
X176280000Y-80690000D02*
X176679999Y-80290001D01*
X185400000Y-72020000D02*
X188570000Y-72020000D01*
X176679999Y-78910001D02*
X178740000Y-76850000D01*
X181800000Y-76850000D02*
X182190000Y-76460000D01*
X178740000Y-76850000D02*
X181800000Y-76850000D01*
X182190000Y-76460000D02*
X183950000Y-76460000D01*
X147090000Y-81380000D02*
X136420000Y-81380000D01*
X136420000Y-81380000D02*
X133880463Y-78840463D01*
X133880463Y-78840463D02*
X133880463Y-73660000D01*
X133880463Y-73660000D02*
X130239213Y-70018750D01*
X130239213Y-70018750D02*
X128825000Y-70018750D01*
G04 #@! TO.N,Col2*
X165340000Y-84455685D02*
X164460000Y-85335685D01*
X165340000Y-83890000D02*
X165340000Y-84455685D01*
X164460000Y-85335685D02*
X164950000Y-86900000D01*
G04 #@! TO.N,Col3*
X185150000Y-76865685D02*
X184600000Y-77415685D01*
X185150000Y-76300000D02*
X185150000Y-76865685D01*
X184600000Y-77415685D02*
X184600000Y-81380000D01*
X184600000Y-81380000D02*
X183290000Y-82690000D01*
X183290000Y-82690000D02*
X183290000Y-83440000D01*
X183290000Y-83440000D02*
X183290000Y-83440000D01*
G04 #@! TO.N,Col4*
X189551251Y-76118749D02*
X198241251Y-76118749D01*
X188570000Y-77100000D02*
X189551251Y-76118749D01*
X198241251Y-76118749D02*
X199390000Y-74970000D01*
X199390000Y-74970000D02*
X201250000Y-74970000D01*
X202565000Y-78803750D02*
X202525000Y-78843750D01*
X202565000Y-76285000D02*
X202565000Y-78803750D01*
X201250000Y-74970000D02*
X202565000Y-76285000D01*
G04 #@! TO.N,Col5*
X221575000Y-76632760D02*
X221575000Y-78843750D01*
X218430000Y-75470000D02*
X220412240Y-75470000D01*
X187720000Y-70780000D02*
X192460000Y-70780000D01*
X187300001Y-70360001D02*
X187720000Y-70780000D01*
X201750000Y-73820000D02*
X205250000Y-77320000D01*
X187300001Y-68200001D02*
X187300001Y-70360001D01*
X174206299Y-66063701D02*
X185163701Y-66063701D01*
X197760000Y-75370000D02*
X199310000Y-73820000D01*
X173330000Y-66940000D02*
X174206299Y-66063701D01*
X205250000Y-77320000D02*
X216580000Y-77320000D01*
X220412240Y-75470000D02*
X221575000Y-76632760D01*
X192460000Y-70780000D02*
X194440000Y-72760000D01*
X194440000Y-72760000D02*
X194880000Y-72760000D01*
X194880000Y-72760000D02*
X195410000Y-73290000D01*
X185163701Y-66063701D02*
X187300001Y-68200001D01*
X195410000Y-73290000D02*
X195410000Y-74710000D01*
X216580000Y-77320000D02*
X218430000Y-75470000D01*
X196070000Y-75370000D02*
X197760000Y-75370000D01*
X195410000Y-74710000D02*
X196070000Y-75370000D01*
X199310000Y-73820000D02*
X201750000Y-73820000D01*
G04 #@! TO.N,CommGnd*
X148080000Y-55410000D02*
X147030000Y-55410000D01*
X155060000Y-55900000D02*
X148570000Y-55900000D01*
X160240000Y-50720000D02*
X155060000Y-55900000D01*
X171310000Y-50720000D02*
X160240000Y-50720000D01*
X175580000Y-46450000D02*
X171310000Y-50720000D01*
X189771301Y-58118699D02*
X190391301Y-58118699D01*
X188570000Y-59320000D02*
X189771301Y-58118699D01*
X190391301Y-58118699D02*
X190490000Y-55070000D01*
X148570000Y-55900000D02*
X148080000Y-55410000D01*
X190490000Y-55070000D02*
X190340000Y-49540000D01*
X190340000Y-49540000D02*
X188580000Y-46450000D01*
X188580000Y-46450000D02*
X175580000Y-46450000D01*
G04 #@! TO.N,RGB*
X192430000Y-60644315D02*
X191670000Y-53690000D01*
X192820000Y-61600000D02*
X192820000Y-61034315D01*
X192820000Y-61034315D02*
X192430000Y-60644315D01*
X191670000Y-53690000D02*
X191670000Y-49280000D01*
X191670000Y-49280000D02*
X190770000Y-48380000D01*
X190770000Y-48380000D02*
X190770000Y-46940000D01*
X190770000Y-46940000D02*
X189330000Y-45500000D01*
X189330000Y-45500000D02*
X174700000Y-45500000D01*
X174700000Y-45500000D02*
X170440000Y-49760000D01*
X170440000Y-49760000D02*
X145850000Y-49760000D01*
X145850000Y-49760000D02*
X142140000Y-53470000D01*
X141450000Y-55390000D02*
X141450000Y-54020000D01*
X142000000Y-53470000D02*
X142140000Y-53470000D01*
X141450000Y-54020000D02*
X142000000Y-53470000D01*
G04 #@! TO.N,RGBTRRS*
X147030000Y-58110000D02*
X147030000Y-58410000D01*
X145610000Y-56690000D02*
X147030000Y-58110000D01*
X141450000Y-56690000D02*
X145610000Y-56690000D01*
G04 #@! TD*
M02*
