G04 #@! TF.GenerationSoftware,KiCad,Pcbnew,(5.0.0)*
G04 #@! TF.CreationDate,2019-05-29T22:18:10-05:00*
G04 #@! TF.ProjectId,PCB,5043422E6B696361645F706362000000,rev?*
G04 #@! TF.SameCoordinates,Original*
G04 #@! TF.FileFunction,Profile,NP*
%FSLAX46Y46*%
G04 Gerber Fmt 4.6, Leading zero omitted, Abs format (unit mm)*
G04 Created by KiCad (PCBNEW (5.0.0)) date 05/29/19 22:18:10*
%MOMM*%
%LPD*%
G01*
G04 APERTURE LIST*
%ADD10C,0.150000*%
G04 APERTURE END LIST*
D10*
X192849997Y-132949997D02*
X207560000Y-147660000D01*
X167200000Y-132950000D02*
X169090000Y-132950000D01*
X157680000Y-142470000D02*
X167200000Y-132950000D01*
X112299999Y-142470000D02*
X157680987Y-142470000D01*
X112300000Y-142470009D02*
X112300000Y-62309372D01*
X169041057Y-132950000D02*
X192850008Y-132950000D01*
X250790000Y-163590000D02*
X244090000Y-151990000D01*
X207559999Y-151990000D02*
X244090003Y-151990000D01*
X207560000Y-147659585D02*
X207560000Y-151990000D01*
X270350000Y-152310000D02*
X250790000Y-163590000D01*
X258370000Y-131560000D02*
X270350000Y-152310000D01*
X249640000Y-122830000D02*
X258370000Y-131560000D01*
X249640000Y-52830000D02*
X249640000Y-122830000D01*
X192500000Y-52830000D02*
X249640000Y-52830000D01*
X192500000Y-43270000D02*
X192500000Y-52830000D01*
X169510000Y-43270000D02*
X192500000Y-43270000D01*
X169510000Y-48250000D02*
X169510000Y-43270000D01*
X139510000Y-48250000D02*
X169510000Y-48250000D01*
X139510000Y-62310000D02*
X139510000Y-48250000D01*
X112299999Y-62310000D02*
X139510000Y-62310000D01*
M02*
